<svg id="svg" version="1.1" xmlns="http://www.w3.org/2000/svg" xmlns:xlink="http://www.w3.org/1999/xlink" width="400" height="400" viewBox="0, 0, 400,400"><g id="svgg"><path id="path0" d="M179.003 0.275 C 177.025 0.362,175.234 0.606,175.023 0.817 C 174.812 1.028,173.416 1.200,171.920 1.200 C 170.373 1.200,169.200 1.373,169.200 1.600 C 169.200 1.822,168.133 2.000,166.800 2.000 C 165.467 2.000,164.400 2.178,164.400 2.400 C 164.400 2.620,163.511 2.800,162.424 2.800 C 161.337 2.800,160.336 2.980,160.200 3.200 C 160.064 3.420,159.243 3.600,158.376 3.600 C 157.509 3.600,156.800 3.780,156.800 4.000 C 156.800 4.220,156.001 4.400,155.024 4.400 C 154.047 4.400,153.136 4.580,153.000 4.800 C 152.864 5.020,152.043 5.200,151.176 5.200 C 150.309 5.200,149.600 5.380,149.600 5.600 C 149.600 5.820,149.071 6.000,148.424 6.000 C 147.777 6.000,147.136 6.180,147.000 6.400 C 146.864 6.620,146.133 6.800,145.376 6.800 C 144.619 6.800,144.000 6.980,144.000 7.200 C 144.000 7.420,143.460 7.600,142.800 7.600 C 142.140 7.600,141.600 7.780,141.600 8.000 C 141.600 8.220,141.064 8.400,140.408 8.400 C 139.224 8.400,133.632 10.062,132.305 10.809 C 131.923 11.024,131.248 11.200,130.805 11.200 C 130.362 11.200,130.000 11.380,130.000 11.600 C 130.000 11.820,129.645 12.000,129.212 12.000 C 128.779 12.000,127.783 12.360,127.000 12.800 C 126.217 13.240,125.221 13.600,124.788 13.600 C 124.355 13.600,124.000 13.780,124.000 14.000 C 124.000 14.220,123.651 14.400,123.224 14.400 C 122.797 14.400,122.336 14.580,122.200 14.800 C 122.064 15.020,121.513 15.200,120.976 15.200 C 120.439 15.200,120.000 15.380,120.000 15.600 C 120.000 15.820,119.640 16.000,119.200 16.000 C 118.760 16.000,118.400 16.180,118.400 16.400 C 118.400 16.620,118.040 16.800,117.600 16.800 C 117.160 16.800,116.800 16.980,116.800 17.200 C 116.800 17.420,116.440 17.600,116.000 17.600 C 115.560 17.600,115.200 17.780,115.200 18.000 C 115.200 18.220,114.750 18.400,114.200 18.400 C 113.650 18.400,113.200 18.580,113.200 18.800 C 113.200 19.020,112.840 19.200,112.400 19.200 C 111.960 19.200,111.600 19.380,111.600 19.600 C 111.600 19.820,111.240 20.000,110.800 20.000 C 110.360 20.000,110.000 20.159,110.000 20.353 C 110.000 20.548,109.685 20.807,109.300 20.929 C 108.364 21.225,106.234 22.524,106.067 22.900 C 105.993 23.065,105.588 23.200,105.167 23.200 C 104.745 23.200,104.400 23.380,104.400 23.600 C 104.400 23.820,104.040 24.000,103.600 24.000 C 103.160 24.000,102.800 24.180,102.800 24.400 C 102.800 24.620,102.558 24.800,102.261 24.800 C 101.701 24.800,99.149 25.960,98.800 26.374 C 98.690 26.504,97.745 27.042,96.700 27.568 C 95.655 28.095,94.800 28.677,94.800 28.863 C 94.800 29.048,94.564 29.200,94.275 29.200 C 93.987 29.200,93.364 29.560,92.892 30.000 C 92.420 30.440,91.846 30.800,91.617 30.800 C 91.388 30.800,91.200 30.980,91.200 31.200 C 91.200 31.420,90.964 31.600,90.675 31.600 C 90.387 31.600,89.764 31.960,89.292 32.400 C 88.820 32.840,88.244 33.200,88.013 33.200 C 87.782 33.200,87.028 33.740,86.337 34.400 C 85.646 35.060,84.878 35.600,84.629 35.600 C 84.380 35.600,83.917 35.960,83.600 36.400 C 83.283 36.840,82.791 37.200,82.508 37.200 C 82.225 37.200,81.428 37.740,80.737 38.400 C 80.046 39.060,79.310 39.600,79.101 39.600 C 78.892 39.600,78.217 40.140,77.600 40.800 C 76.983 41.460,76.319 42.000,76.123 42.000 C 75.927 42.000,75.099 42.630,74.282 43.400 C 73.466 44.170,72.634 44.800,72.434 44.800 C 72.234 44.800,70.973 45.880,69.632 47.200 C 68.292 48.520,67.026 49.600,66.820 49.600 C 66.614 49.600,64.680 51.390,62.522 53.579 C 57.759 58.410,58.410 57.759,53.579 62.522 C 51.390 64.680,49.600 66.614,49.600 66.820 C 49.600 67.026,48.520 68.292,47.200 69.632 C 45.880 70.973,44.800 72.234,44.800 72.434 C 44.800 72.634,44.170 73.466,43.400 74.282 C 42.630 75.099,42.000 75.927,42.000 76.123 C 42.000 76.319,41.460 76.983,40.800 77.600 C 40.140 78.217,39.600 78.892,39.600 79.101 C 39.600 79.310,39.060 80.046,38.400 80.737 C 37.740 81.428,37.200 82.225,37.200 82.508 C 37.200 82.791,36.840 83.283,36.400 83.600 C 35.960 83.917,35.600 84.380,35.600 84.629 C 35.600 84.878,35.060 85.646,34.400 86.337 C 33.740 87.028,33.200 87.782,33.200 88.013 C 33.200 88.244,32.840 88.820,32.400 89.292 C 31.960 89.764,31.600 90.387,31.600 90.675 C 31.600 90.964,31.420 91.200,31.200 91.200 C 30.980 91.200,30.800 91.388,30.800 91.617 C 30.800 91.846,30.440 92.420,30.000 92.892 C 29.560 93.364,29.200 93.987,29.200 94.275 C 29.200 94.564,29.048 94.800,28.863 94.800 C 28.677 94.800,28.095 95.655,27.568 96.700 C 27.042 97.745,26.504 98.690,26.374 98.800 C 25.960 99.149,24.800 101.701,24.800 102.261 C 24.800 102.558,24.620 102.800,24.400 102.800 C 24.180 102.800,24.000 103.160,24.000 103.600 C 24.000 104.040,23.820 104.400,23.600 104.400 C 23.380 104.400,23.200 104.745,23.200 105.167 C 23.200 105.588,23.065 105.993,22.900 106.067 C 22.524 106.234,21.225 108.364,20.929 109.300 C 20.807 109.685,20.548 110.000,20.353 110.000 C 20.159 110.000,20.000 110.360,20.000 110.800 C 20.000 111.240,19.820 111.600,19.600 111.600 C 19.380 111.600,19.200 111.960,19.200 112.400 C 19.200 112.840,19.020 113.200,18.800 113.200 C 18.580 113.200,18.400 113.650,18.400 114.200 C 18.400 114.750,18.220 115.200,18.000 115.200 C 17.780 115.200,17.600 115.560,17.600 116.000 C 17.600 116.440,17.420 116.800,17.200 116.800 C 16.980 116.800,16.800 117.160,16.800 117.600 C 16.800 118.040,16.620 118.400,16.400 118.400 C 16.180 118.400,16.000 118.760,16.000 119.200 C 16.000 119.640,15.820 120.000,15.600 120.000 C 15.380 120.000,15.200 120.439,15.200 120.976 C 15.200 121.513,15.020 122.064,14.800 122.200 C 14.580 122.336,14.400 122.797,14.400 123.224 C 14.400 123.651,14.220 124.000,14.000 124.000 C 13.780 124.000,13.600 124.355,13.600 124.788 C 13.600 125.221,13.240 126.217,12.800 127.000 C 12.360 127.783,12.000 128.779,12.000 129.212 C 12.000 129.645,11.820 130.000,11.600 130.000 C 11.380 130.000,11.200 130.362,11.200 130.805 C 11.200 131.248,11.024 131.923,10.809 132.305 C 10.062 133.632,8.400 139.224,8.400 140.408 C 8.400 141.064,8.220 141.600,8.000 141.600 C 7.780 141.600,7.600 142.140,7.600 142.800 C 7.600 143.460,7.420 144.000,7.200 144.000 C 6.980 144.000,6.800 144.619,6.800 145.376 C 6.800 146.133,6.620 146.864,6.400 147.000 C 6.180 147.136,6.000 147.777,6.000 148.424 C 6.000 149.071,5.820 149.600,5.600 149.600 C 5.380 149.600,5.200 150.309,5.200 151.176 C 5.200 152.043,5.020 152.864,4.800 153.000 C 4.580 153.136,4.400 154.047,4.400 155.024 C 4.400 156.001,4.220 156.800,4.000 156.800 C 3.780 156.800,3.600 157.509,3.600 158.376 C 3.600 159.243,3.420 160.064,3.200 160.200 C 2.980 160.336,2.800 161.337,2.800 162.424 C 2.800 163.511,2.620 164.400,2.400 164.400 C 2.178 164.400,2.000 165.467,2.000 166.800 C 2.000 168.133,1.822 169.200,1.600 169.200 C 1.373 169.200,1.200 170.373,1.200 171.920 C 1.200 173.563,1.002 174.838,0.700 175.140 C -0.029 175.869,-0.029 224.131,0.700 224.860 C 1.002 225.162,1.200 226.437,1.200 228.080 C 1.200 229.627,1.373 230.800,1.600 230.800 C 1.822 230.800,2.000 231.867,2.000 233.200 C 2.000 234.533,2.178 235.600,2.400 235.600 C 2.620 235.600,2.800 236.489,2.800 237.576 C 2.800 238.663,2.980 239.664,3.200 239.800 C 3.420 239.936,3.600 240.757,3.600 241.624 C 3.600 242.491,3.780 243.200,4.000 243.200 C 4.220 243.200,4.400 243.999,4.400 244.976 C 4.400 245.953,4.580 246.864,4.800 247.000 C 5.020 247.136,5.200 247.957,5.200 248.824 C 5.200 249.691,5.380 250.400,5.600 250.400 C 5.820 250.400,6.000 250.929,6.000 251.576 C 6.000 252.223,6.180 252.864,6.400 253.000 C 6.620 253.136,6.800 253.867,6.800 254.624 C 6.800 255.381,6.980 256.000,7.200 256.000 C 7.420 256.000,7.600 256.540,7.600 257.200 C 7.600 257.860,7.780 258.400,8.000 258.400 C 8.220 258.400,8.400 258.936,8.400 259.592 C 8.400 260.776,10.062 266.368,10.809 267.695 C 11.024 268.077,11.200 268.752,11.200 269.195 C 11.200 269.638,11.380 270.000,11.600 270.000 C 11.820 270.000,12.000 270.355,12.000 270.788 C 12.000 271.221,12.360 272.217,12.800 273.000 C 13.240 273.783,13.600 274.779,13.600 275.212 C 13.600 275.645,13.780 276.000,14.000 276.000 C 14.220 276.000,14.400 276.349,14.400 276.776 C 14.400 277.203,14.580 277.664,14.800 277.800 C 15.020 277.936,15.200 278.487,15.200 279.024 C 15.200 279.561,15.380 280.000,15.600 280.000 C 15.820 280.000,16.000 280.360,16.000 280.800 C 16.000 281.240,16.180 281.600,16.400 281.600 C 16.620 281.600,16.800 281.960,16.800 282.400 C 16.800 282.840,16.980 283.200,17.200 283.200 C 17.420 283.200,17.600 283.560,17.600 284.000 C 17.600 284.440,17.780 284.800,18.000 284.800 C 18.220 284.800,18.400 285.250,18.400 285.800 C 18.400 286.350,18.580 286.800,18.800 286.800 C 19.020 286.800,19.200 287.160,19.200 287.600 C 19.200 288.040,19.380 288.400,19.600 288.400 C 19.820 288.400,20.000 288.745,20.000 289.167 C 20.000 289.588,20.135 289.993,20.300 290.067 C 20.676 290.234,21.975 292.364,22.271 293.300 C 22.393 293.685,22.652 294.000,22.847 294.000 C 23.041 294.000,23.200 294.360,23.200 294.800 C 23.200 295.240,23.380 295.600,23.600 295.600 C 23.820 295.600,24.000 295.960,24.000 296.400 C 24.000 296.840,24.180 297.200,24.400 297.200 C 24.620 297.200,24.800 297.442,24.800 297.739 C 24.800 298.299,25.960 300.851,26.374 301.200 C 26.504 301.310,27.042 302.255,27.568 303.300 C 28.095 304.345,28.677 305.200,28.863 305.200 C 29.048 305.200,29.200 305.436,29.200 305.725 C 29.200 306.013,29.560 306.636,30.000 307.108 C 30.440 307.580,30.800 308.154,30.800 308.383 C 30.800 308.612,30.980 308.800,31.200 308.800 C 31.420 308.800,31.600 309.036,31.600 309.325 C 31.600 309.613,31.960 310.236,32.400 310.708 C 32.840 311.180,33.200 311.756,33.200 311.987 C 33.200 312.218,33.740 312.972,34.400 313.663 C 35.060 314.354,35.600 315.122,35.600 315.371 C 35.600 315.620,35.960 316.083,36.400 316.400 C 36.840 316.717,37.200 317.209,37.200 317.492 C 37.200 317.775,37.740 318.572,38.400 319.263 C 39.060 319.954,39.600 320.690,39.600 320.899 C 39.600 321.108,40.140 321.783,40.800 322.400 C 41.460 323.017,42.000 323.681,42.000 323.877 C 42.000 324.073,42.630 324.901,43.400 325.718 C 44.170 326.534,44.800 327.366,44.800 327.566 C 44.800 327.766,45.880 329.027,47.200 330.368 C 48.520 331.708,49.600 332.974,49.600 333.180 C 49.600 333.386,51.390 335.320,53.579 337.478 C 58.410 342.241,57.759 341.590,62.522 346.421 C 64.680 348.610,66.614 350.400,66.820 350.400 C 67.026 350.400,68.292 351.480,69.632 352.800 C 70.973 354.120,72.258 355.200,72.488 355.200 C 72.718 355.200,73.197 355.524,73.553 355.921 C 73.909 356.317,74.920 357.170,75.800 357.816 C 76.680 358.462,77.691 359.308,78.047 359.696 C 78.403 360.083,78.871 360.400,79.088 360.400 C 79.304 360.400,80.046 360.940,80.737 361.600 C 81.428 362.260,82.225 362.800,82.508 362.800 C 82.791 362.800,83.283 363.160,83.600 363.600 C 83.917 364.040,84.380 364.400,84.629 364.400 C 84.878 364.400,85.646 364.940,86.337 365.600 C 87.028 366.260,87.782 366.800,88.013 366.800 C 88.244 366.800,88.820 367.160,89.292 367.600 C 89.764 368.040,90.387 368.400,90.675 368.400 C 90.964 368.400,91.200 368.580,91.200 368.800 C 91.200 369.020,91.388 369.200,91.617 369.200 C 91.846 369.200,92.420 369.560,92.892 370.000 C 93.364 370.440,93.987 370.800,94.275 370.800 C 94.564 370.800,94.800 370.952,94.800 371.137 C 94.800 371.323,95.655 371.905,96.700 372.432 C 97.745 372.958,98.690 373.502,98.800 373.639 C 99.168 374.099,101.553 375.200,102.180 375.200 C 102.521 375.200,102.800 375.380,102.800 375.600 C 102.800 375.820,103.160 376.000,103.600 376.000 C 104.040 376.000,104.400 376.180,104.400 376.400 C 104.400 376.620,104.745 376.800,105.167 376.800 C 105.588 376.800,105.993 376.935,106.067 377.100 C 106.234 377.476,108.364 378.775,109.300 379.071 C 109.685 379.193,110.000 379.452,110.000 379.647 C 110.000 379.841,110.360 380.000,110.800 380.000 C 111.240 380.000,111.600 380.180,111.600 380.400 C 111.600 380.620,111.960 380.800,112.400 380.800 C 112.840 380.800,113.200 380.980,113.200 381.200 C 113.200 381.420,113.650 381.600,114.200 381.600 C 114.750 381.600,115.200 381.780,115.200 382.000 C 115.200 382.220,115.560 382.400,116.000 382.400 C 116.440 382.400,116.800 382.580,116.800 382.800 C 116.800 383.020,117.160 383.200,117.600 383.200 C 118.040 383.200,118.400 383.380,118.400 383.600 C 118.400 383.820,118.760 384.000,119.200 384.000 C 119.640 384.000,120.000 384.180,120.000 384.400 C 120.000 384.620,120.439 384.800,120.976 384.800 C 121.513 384.800,122.064 384.980,122.200 385.200 C 122.336 385.420,122.797 385.600,123.224 385.600 C 123.651 385.600,124.000 385.780,124.000 386.000 C 124.000 386.220,124.355 386.400,124.788 386.400 C 125.221 386.400,126.217 386.760,127.000 387.200 C 127.783 387.640,128.779 388.000,129.212 388.000 C 129.645 388.000,130.000 388.180,130.000 388.400 C 130.000 388.620,130.362 388.800,130.805 388.800 C 131.248 388.800,131.923 388.976,132.305 389.191 C 133.632 389.938,139.224 391.600,140.408 391.600 C 141.064 391.600,141.600 391.780,141.600 392.000 C 141.600 392.220,142.140 392.400,142.800 392.400 C 143.460 392.400,144.000 392.580,144.000 392.800 C 144.000 393.020,144.619 393.200,145.376 393.200 C 146.133 393.200,146.864 393.380,147.000 393.600 C 147.136 393.820,147.777 394.000,148.424 394.000 C 149.071 394.000,149.600 394.180,149.600 394.400 C 149.600 394.620,150.309 394.800,151.176 394.800 C 152.043 394.800,152.864 394.980,153.000 395.200 C 153.136 395.420,154.047 395.600,155.024 395.600 C 156.001 395.600,156.800 395.780,156.800 396.000 C 156.800 396.220,157.509 396.400,158.376 396.400 C 159.243 396.400,160.064 396.580,160.200 396.800 C 160.336 397.020,161.337 397.200,162.424 397.200 C 163.511 397.200,164.400 397.380,164.400 397.600 C 164.400 397.822,165.467 398.000,166.800 398.000 C 168.133 398.000,169.200 398.178,169.200 398.400 C 169.200 398.627,170.373 398.800,171.920 398.800 C 173.563 398.800,174.838 398.998,175.140 399.300 C 175.529 399.689,181.045 399.800,200.000 399.800 C 218.955 399.800,224.471 399.689,224.860 399.300 C 225.162 398.998,226.437 398.800,228.080 398.800 C 229.627 398.800,230.800 398.627,230.800 398.400 C 230.800 398.178,231.867 398.000,233.200 398.000 C 234.533 398.000,235.600 397.822,235.600 397.600 C 235.600 397.380,236.489 397.200,237.576 397.200 C 238.663 397.200,239.664 397.020,239.800 396.800 C 239.936 396.580,240.757 396.400,241.624 396.400 C 242.491 396.400,243.200 396.220,243.200 396.000 C 243.200 395.780,243.999 395.600,244.976 395.600 C 245.953 395.600,246.864 395.420,247.000 395.200 C 247.136 394.980,247.957 394.800,248.824 394.800 C 249.691 394.800,250.400 394.620,250.400 394.400 C 250.400 394.180,250.929 394.000,251.576 394.000 C 252.223 394.000,252.864 393.820,253.000 393.600 C 253.136 393.380,253.867 393.200,254.624 393.200 C 255.381 393.200,256.000 393.020,256.000 392.800 C 256.000 392.580,256.540 392.400,257.200 392.400 C 257.860 392.400,258.400 392.220,258.400 392.000 C 258.400 391.780,258.936 391.600,259.592 391.600 C 260.776 391.600,266.368 389.938,267.695 389.191 C 268.077 388.976,268.752 388.800,269.195 388.800 C 269.638 388.800,270.000 388.620,270.000 388.400 C 270.000 388.180,270.355 388.000,270.788 388.000 C 271.221 388.000,272.217 387.640,273.000 387.200 C 273.783 386.760,274.779 386.400,275.212 386.400 C 275.645 386.400,276.000 386.220,276.000 386.000 C 276.000 385.780,276.349 385.600,276.776 385.600 C 277.203 385.600,277.664 385.420,277.800 385.200 C 277.936 384.980,278.487 384.800,279.024 384.800 C 279.561 384.800,280.000 384.620,280.000 384.400 C 280.000 384.180,280.360 384.000,280.800 384.000 C 281.240 384.000,281.600 383.820,281.600 383.600 C 281.600 383.380,281.960 383.200,282.400 383.200 C 282.840 383.200,283.200 383.020,283.200 382.800 C 283.200 382.580,283.560 382.400,284.000 382.400 C 284.440 382.400,284.800 382.220,284.800 382.000 C 284.800 381.780,285.250 381.600,285.800 381.600 C 286.350 381.600,286.800 381.420,286.800 381.200 C 286.800 380.980,287.160 380.800,287.600 380.800 C 288.040 380.800,288.400 380.620,288.400 380.400 C 288.400 380.180,288.745 380.000,289.167 380.000 C 289.588 380.000,289.993 379.865,290.067 379.700 C 290.234 379.324,292.364 378.025,293.300 377.729 C 293.685 377.607,294.000 377.348,294.000 377.153 C 294.000 376.959,294.360 376.800,294.800 376.800 C 295.240 376.800,295.600 376.620,295.600 376.400 C 295.600 376.180,295.960 376.000,296.400 376.000 C 296.840 376.000,297.200 375.820,297.200 375.600 C 297.200 375.380,297.479 375.200,297.820 375.200 C 298.447 375.200,300.832 374.099,301.200 373.639 C 301.310 373.502,302.255 372.958,303.300 372.432 C 304.345 371.905,305.200 371.323,305.200 371.137 C 305.200 370.952,305.436 370.800,305.725 370.800 C 306.013 370.800,306.636 370.440,307.108 370.000 C 307.580 369.560,308.154 369.200,308.383 369.200 C 308.612 369.200,308.800 369.020,308.800 368.800 C 308.800 368.580,309.036 368.400,309.325 368.400 C 309.613 368.400,310.236 368.040,310.708 367.600 C 311.180 367.160,311.756 366.800,311.987 366.800 C 312.218 366.800,312.972 366.260,313.663 365.600 C 314.354 364.940,315.122 364.400,315.371 364.400 C 315.620 364.400,316.083 364.040,316.400 363.600 C 316.717 363.160,317.209 362.800,317.492 362.800 C 317.775 362.800,318.572 362.260,319.263 361.600 C 319.954 360.940,320.696 360.400,320.912 360.400 C 321.129 360.400,321.597 360.083,321.953 359.696 C 322.309 359.308,323.320 358.462,324.200 357.816 C 325.080 357.170,326.091 356.317,326.447 355.921 C 326.803 355.524,327.282 355.200,327.512 355.200 C 327.742 355.200,329.027 354.120,330.368 352.800 C 331.708 351.480,332.974 350.400,333.180 350.400 C 333.386 350.400,335.320 348.610,337.478 346.421 C 342.241 341.590,341.590 342.241,346.421 337.478 C 348.610 335.320,350.400 333.386,350.400 333.180 C 350.400 332.974,351.480 331.708,352.800 330.368 C 354.120 329.027,355.200 327.742,355.200 327.512 C 355.200 327.282,355.524 326.803,355.921 326.447 C 356.317 326.091,357.170 325.080,357.816 324.200 C 358.462 323.320,359.308 322.309,359.696 321.953 C 360.083 321.597,360.400 321.129,360.400 320.912 C 360.400 320.696,360.940 319.954,361.600 319.263 C 362.260 318.572,362.800 317.775,362.800 317.492 C 362.800 317.209,363.160 316.717,363.600 316.400 C 364.040 316.083,364.400 315.620,364.400 315.371 C 364.400 315.122,364.940 314.354,365.600 313.663 C 366.260 312.972,366.800 312.218,366.800 311.987 C 366.800 311.756,367.160 311.180,367.600 310.708 C 368.040 310.236,368.400 309.613,368.400 309.325 C 368.400 309.036,368.580 308.800,368.800 308.800 C 369.020 308.800,369.200 308.612,369.200 308.383 C 369.200 308.154,369.560 307.580,370.000 307.108 C 370.440 306.636,370.800 306.013,370.800 305.725 C 370.800 305.436,370.952 305.200,371.137 305.200 C 371.323 305.200,371.905 304.345,372.432 303.300 C 372.958 302.255,373.502 301.310,373.639 301.200 C 374.099 300.832,375.200 298.447,375.200 297.820 C 375.200 297.479,375.380 297.200,375.600 297.200 C 375.820 297.200,376.000 296.840,376.000 296.400 C 376.000 295.960,376.180 295.600,376.400 295.600 C 376.620 295.600,376.800 295.255,376.800 294.833 C 376.800 294.412,376.935 294.007,377.100 293.933 C 377.476 293.766,378.775 291.636,379.071 290.700 C 379.193 290.315,379.452 290.000,379.647 290.000 C 379.841 290.000,380.000 289.640,380.000 289.200 C 380.000 288.760,380.180 288.400,380.400 288.400 C 380.620 288.400,380.800 288.040,380.800 287.600 C 380.800 287.160,380.980 286.800,381.200 286.800 C 381.420 286.800,381.600 286.350,381.600 285.800 C 381.600 285.250,381.780 284.800,382.000 284.800 C 382.220 284.800,382.400 284.440,382.400 284.000 C 382.400 283.560,382.580 283.200,382.800 283.200 C 383.020 283.200,383.200 282.840,383.200 282.400 C 383.200 281.960,383.380 281.600,383.600 281.600 C 383.820 281.600,384.000 281.240,384.000 280.800 C 384.000 280.360,384.180 280.000,384.400 280.000 C 384.620 280.000,384.800 279.561,384.800 279.024 C 384.800 278.487,384.980 277.936,385.200 277.800 C 385.420 277.664,385.600 277.203,385.600 276.776 C 385.600 276.349,385.780 276.000,386.000 276.000 C 386.220 276.000,386.400 275.645,386.400 275.212 C 386.400 274.779,386.760 273.783,387.200 273.000 C 387.640 272.217,388.000 271.221,388.000 270.788 C 388.000 270.355,388.180 270.000,388.400 270.000 C 388.620 270.000,388.800 269.638,388.800 269.195 C 388.800 268.752,388.976 268.077,389.191 267.695 C 389.938 266.368,391.600 260.776,391.600 259.592 C 391.600 258.936,391.780 258.400,392.000 258.400 C 392.220 258.400,392.400 257.860,392.400 257.200 C 392.400 256.540,392.580 256.000,392.800 256.000 C 393.020 256.000,393.200 255.381,393.200 254.624 C 393.200 253.867,393.380 253.136,393.600 253.000 C 393.820 252.864,394.000 252.223,394.000 251.576 C 394.000 250.929,394.180 250.400,394.400 250.400 C 394.620 250.400,394.800 249.691,394.800 248.824 C 394.800 247.957,394.980 247.136,395.200 247.000 C 395.420 246.864,395.600 245.953,395.600 244.976 C 395.600 243.999,395.780 243.200,396.000 243.200 C 396.220 243.200,396.400 242.491,396.400 241.624 C 396.400 240.757,396.580 239.936,396.800 239.800 C 397.020 239.664,397.200 238.663,397.200 237.576 C 397.200 236.489,397.380 235.600,397.600 235.600 C 397.822 235.600,398.000 234.533,398.000 233.200 C 398.000 231.867,398.178 230.800,398.400 230.800 C 398.627 230.800,398.800 229.627,398.800 228.080 C 398.800 226.437,398.998 225.162,399.300 224.860 C 400.029 224.131,400.029 175.869,399.300 175.140 C 398.998 174.838,398.800 173.563,398.800 171.920 C 398.800 170.373,398.627 169.200,398.400 169.200 C 398.178 169.200,398.000 168.133,398.000 166.800 C 398.000 165.467,397.822 164.400,397.600 164.400 C 397.380 164.400,397.200 163.511,397.200 162.424 C 397.200 161.337,397.020 160.336,396.800 160.200 C 396.580 160.064,396.400 159.243,396.400 158.376 C 396.400 157.509,396.220 156.800,396.000 156.800 C 395.780 156.800,395.600 156.001,395.600 155.024 C 395.600 154.047,395.420 153.136,395.200 153.000 C 394.980 152.864,394.800 152.043,394.800 151.176 C 394.800 150.309,394.620 149.600,394.400 149.600 C 394.180 149.600,394.000 149.071,394.000 148.424 C 394.000 147.777,393.820 147.136,393.600 147.000 C 393.380 146.864,393.200 146.133,393.200 145.376 C 393.200 144.619,393.020 144.000,392.800 144.000 C 392.580 144.000,392.400 143.460,392.400 142.800 C 392.400 142.140,392.220 141.600,392.000 141.600 C 391.780 141.600,391.600 141.064,391.600 140.408 C 391.600 139.224,389.938 133.632,389.191 132.305 C 388.976 131.923,388.800 131.248,388.800 130.805 C 388.800 130.362,388.620 130.000,388.400 130.000 C 388.180 130.000,388.000 129.645,388.000 129.212 C 388.000 128.779,387.640 127.783,387.200 127.000 C 386.760 126.217,386.400 125.221,386.400 124.788 C 386.400 124.355,386.220 124.000,386.000 124.000 C 385.780 124.000,385.600 123.651,385.600 123.224 C 385.600 122.797,385.420 122.336,385.200 122.200 C 384.980 122.064,384.800 121.513,384.800 120.976 C 384.800 120.439,384.620 120.000,384.400 120.000 C 384.180 120.000,384.000 119.640,384.000 119.200 C 384.000 118.760,383.820 118.400,383.600 118.400 C 383.380 118.400,383.200 118.040,383.200 117.600 C 383.200 117.160,383.020 116.800,382.800 116.800 C 382.580 116.800,382.400 116.440,382.400 116.000 C 382.400 115.560,382.220 115.200,382.000 115.200 C 381.780 115.200,381.600 114.750,381.600 114.200 C 381.600 113.650,381.420 113.200,381.200 113.200 C 380.980 113.200,380.800 112.840,380.800 112.400 C 380.800 111.960,380.620 111.600,380.400 111.600 C 380.180 111.600,380.000 111.255,380.000 110.833 C 380.000 110.412,379.865 110.007,379.700 109.933 C 379.324 109.766,378.025 107.636,377.729 106.700 C 377.607 106.315,377.348 106.000,377.153 106.000 C 376.959 106.000,376.800 105.640,376.800 105.200 C 376.800 104.760,376.620 104.400,376.400 104.400 C 376.180 104.400,376.000 104.040,376.000 103.600 C 376.000 103.160,375.820 102.800,375.600 102.800 C 375.380 102.800,375.200 102.521,375.200 102.180 C 375.200 101.553,374.099 99.168,373.639 98.800 C 373.502 98.690,372.958 97.745,372.432 96.700 C 371.905 95.655,371.323 94.800,371.137 94.800 C 370.952 94.800,370.800 94.564,370.800 94.275 C 370.800 93.987,370.440 93.364,370.000 92.892 C 369.560 92.420,369.200 91.846,369.200 91.617 C 369.200 91.388,369.020 91.200,368.800 91.200 C 368.580 91.200,368.400 90.964,368.400 90.675 C 368.400 90.387,368.040 89.764,367.600 89.292 C 367.160 88.820,366.800 88.244,366.800 88.013 C 366.800 87.782,366.260 87.028,365.600 86.337 C 364.940 85.646,364.400 84.878,364.400 84.629 C 364.400 84.380,364.040 83.917,363.600 83.600 C 363.160 83.283,362.800 82.791,362.800 82.508 C 362.800 82.225,362.260 81.428,361.600 80.737 C 360.940 80.046,360.400 79.304,360.400 79.088 C 360.400 78.871,360.083 78.403,359.696 78.047 C 359.308 77.691,358.462 76.680,357.816 75.800 C 357.170 74.920,356.317 73.909,355.921 73.553 C 355.524 73.197,355.200 72.718,355.200 72.488 C 355.200 72.258,354.120 70.973,352.800 69.632 C 351.480 68.292,350.400 67.026,350.400 66.820 C 350.400 66.614,348.610 64.680,346.421 62.522 C 341.590 57.759,342.241 58.410,337.478 53.579 C 335.320 51.390,333.386 49.600,333.180 49.600 C 332.974 49.600,331.708 48.520,330.368 47.200 C 329.027 45.880,327.766 44.800,327.566 44.800 C 327.366 44.800,326.534 44.170,325.718 43.400 C 324.901 42.630,324.073 42.000,323.877 42.000 C 323.681 42.000,323.017 41.460,322.400 40.800 C 321.783 40.140,321.108 39.600,320.899 39.600 C 320.690 39.600,319.954 39.060,319.263 38.400 C 318.572 37.740,317.775 37.200,317.492 37.200 C 317.209 37.200,316.717 36.840,316.400 36.400 C 316.083 35.960,315.620 35.600,315.371 35.600 C 315.122 35.600,314.354 35.060,313.663 34.400 C 312.972 33.740,312.218 33.200,311.987 33.200 C 311.756 33.200,311.180 32.840,310.708 32.400 C 310.236 31.960,309.613 31.600,309.325 31.600 C 309.036 31.600,308.800 31.420,308.800 31.200 C 308.800 30.980,308.612 30.800,308.383 30.800 C 308.154 30.800,307.580 30.440,307.108 30.000 C 306.636 29.560,306.013 29.200,305.725 29.200 C 305.436 29.200,305.200 29.048,305.200 28.863 C 305.200 28.677,304.345 28.095,303.300 27.568 C 302.255 27.042,301.310 26.504,301.200 26.374 C 300.851 25.960,298.299 24.800,297.739 24.800 C 297.442 24.800,297.200 24.620,297.200 24.400 C 297.200 24.180,296.840 24.000,296.400 24.000 C 295.960 24.000,295.600 23.820,295.600 23.600 C 295.600 23.380,295.255 23.200,294.833 23.200 C 294.412 23.200,294.007 23.065,293.933 22.900 C 293.766 22.524,291.636 21.225,290.700 20.929 C 290.315 20.807,290.000 20.548,290.000 20.353 C 290.000 20.159,289.640 20.000,289.200 20.000 C 288.760 20.000,288.400 19.820,288.400 19.600 C 288.400 19.380,288.040 19.200,287.600 19.200 C 287.160 19.200,286.800 19.020,286.800 18.800 C 286.800 18.580,286.350 18.400,285.800 18.400 C 285.250 18.400,284.800 18.220,284.800 18.000 C 284.800 17.780,284.440 17.600,284.000 17.600 C 283.560 17.600,283.200 17.420,283.200 17.200 C 283.200 16.980,282.840 16.800,282.400 16.800 C 281.960 16.800,281.600 16.620,281.600 16.400 C 281.600 16.180,281.240 16.000,280.800 16.000 C 280.360 16.000,280.000 15.820,280.000 15.600 C 280.000 15.380,279.561 15.200,279.024 15.200 C 278.487 15.200,277.936 15.020,277.800 14.800 C 277.664 14.580,277.203 14.400,276.776 14.400 C 276.349 14.400,276.000 14.220,276.000 14.000 C 276.000 13.780,275.645 13.600,275.212 13.600 C 274.779 13.600,273.783 13.240,273.000 12.800 C 272.217 12.360,271.221 12.000,270.788 12.000 C 270.355 12.000,270.000 11.820,270.000 11.600 C 270.000 11.380,269.638 11.200,269.195 11.200 C 268.752 11.200,268.077 11.024,267.695 10.809 C 266.368 10.062,260.776 8.400,259.592 8.400 C 258.936 8.400,258.400 8.220,258.400 8.000 C 258.400 7.780,257.860 7.600,257.200 7.600 C 256.540 7.600,256.000 7.420,256.000 7.200 C 256.000 6.980,255.381 6.800,254.624 6.800 C 253.867 6.800,253.136 6.620,253.000 6.400 C 252.864 6.180,252.223 6.000,251.576 6.000 C 250.929 6.000,250.400 5.820,250.400 5.600 C 250.400 5.380,249.691 5.200,248.824 5.200 C 247.957 5.200,247.136 5.020,247.000 4.800 C 246.864 4.580,245.953 4.400,244.976 4.400 C 243.999 4.400,243.200 4.220,243.200 4.000 C 243.200 3.780,242.491 3.600,241.624 3.600 C 240.757 3.600,239.936 3.420,239.800 3.200 C 239.664 2.980,238.663 2.800,237.576 2.800 C 236.489 2.800,235.600 2.620,235.600 2.400 C 235.600 2.178,234.533 2.000,233.200 2.000 C 231.867 2.000,230.800 1.822,230.800 1.600 C 230.800 1.373,229.627 1.200,228.080 1.200 C 226.483 1.200,225.160 1.000,224.875 0.715 C 224.394 0.234,187.860 -0.116,179.003 0.275 M213.800 18.800 C 213.937 19.021,215.737 19.200,217.824 19.200 C 220.075 19.200,221.600 19.362,221.600 19.600 C 221.600 19.831,222.867 20.000,224.600 20.000 C 226.333 20.000,227.600 20.169,227.600 20.400 C 227.600 20.620,228.489 20.800,229.576 20.800 C 230.663 20.800,231.664 20.980,231.800 21.200 C 231.936 21.420,233.027 21.600,234.224 21.600 C 235.421 21.600,236.400 21.780,236.400 22.000 C 236.400 22.220,237.109 22.400,237.976 22.400 C 238.843 22.400,239.652 22.561,239.774 22.758 C 239.895 22.955,240.671 23.210,241.497 23.325 C 242.324 23.440,243.810 23.741,244.800 23.993 C 245.790 24.245,247.621 24.664,248.868 24.925 C 250.115 25.186,251.270 25.535,251.435 25.700 C 251.599 25.865,252.333 26.000,253.067 26.000 C 253.800 26.000,254.400 26.180,254.400 26.400 C 254.400 26.620,254.940 26.800,255.600 26.800 C 256.260 26.800,256.800 26.980,256.800 27.200 C 256.800 27.420,257.239 27.600,257.776 27.600 C 258.313 27.600,258.864 27.780,259.000 28.000 C 259.136 28.220,259.687 28.400,260.224 28.400 C 260.761 28.400,261.200 28.580,261.200 28.800 C 261.200 29.020,261.549 29.200,261.976 29.200 C 262.403 29.200,262.864 29.380,263.000 29.600 C 263.136 29.820,263.687 30.000,264.224 30.000 C 264.761 30.000,265.200 30.180,265.200 30.400 C 265.200 30.620,265.549 30.800,265.976 30.800 C 266.403 30.800,266.864 30.980,267.000 31.200 C 267.136 31.420,267.687 31.600,268.224 31.600 C 268.761 31.600,269.200 31.780,269.200 32.000 C 269.200 32.220,269.560 32.400,270.000 32.400 C 270.440 32.400,270.800 32.580,270.800 32.800 C 270.800 33.020,271.340 33.200,272.000 33.200 C 272.660 33.200,273.200 33.380,273.200 33.600 C 273.200 33.820,273.545 34.000,273.967 34.000 C 274.388 34.000,274.793 34.140,274.867 34.312 C 274.940 34.484,278.240 36.231,282.200 38.195 C 286.160 40.159,289.460 41.908,289.533 42.083 C 289.607 42.257,290.012 42.400,290.433 42.400 C 290.855 42.400,291.200 42.580,291.200 42.800 C 291.200 43.020,291.470 43.200,291.800 43.200 C 292.130 43.200,292.400 43.380,292.400 43.600 C 292.400 43.820,292.636 44.000,292.925 44.000 C 293.213 44.000,293.836 44.360,294.308 44.800 C 294.780 45.240,295.404 45.600,295.695 45.600 C 295.986 45.600,296.483 45.960,296.800 46.400 C 297.117 46.840,297.697 47.200,298.088 47.200 C 298.480 47.200,298.800 47.350,298.800 47.532 C 298.800 47.715,299.295 48.119,299.900 48.430 C 300.505 48.740,301.291 49.311,301.647 49.697 C 302.003 50.084,302.548 50.400,302.859 50.400 C 303.169 50.400,303.683 50.760,304.000 51.200 C 304.317 51.640,304.773 52.000,305.013 52.000 C 305.253 52.000,305.798 52.315,306.225 52.700 C 307.281 53.653,309.870 55.662,311.036 56.432 C 311.562 56.780,312.619 57.635,313.385 58.332 C 314.152 59.029,314.973 59.600,315.211 59.600 C 315.450 59.600,316.704 60.680,318.000 62.000 C 319.296 63.320,320.521 64.400,320.723 64.400 C 321.203 64.400,335.600 78.797,335.600 79.277 C 335.600 79.479,336.680 80.704,338.000 82.000 C 339.320 83.296,340.400 84.570,340.400 84.831 C 340.400 85.092,340.734 85.597,341.143 85.953 C 341.552 86.309,342.407 87.340,343.043 88.244 C 344.490 90.299,346.383 92.759,347.300 93.775 C 347.685 94.202,348.000 94.747,348.000 94.987 C 348.000 95.227,348.360 95.683,348.800 96.000 C 349.240 96.317,349.600 96.831,349.600 97.141 C 349.600 97.452,349.916 97.997,350.303 98.353 C 350.689 98.709,351.260 99.495,351.570 100.100 C 351.881 100.705,352.285 101.200,352.468 101.200 C 352.650 101.200,352.800 101.520,352.800 101.912 C 352.800 102.303,353.160 102.883,353.600 103.200 C 354.040 103.517,354.400 104.014,354.400 104.305 C 354.400 104.596,354.760 105.220,355.200 105.692 C 355.640 106.164,356.000 106.787,356.000 107.075 C 356.000 107.364,356.180 107.600,356.400 107.600 C 356.620 107.600,356.800 107.870,356.800 108.200 C 356.800 108.530,356.980 108.800,357.200 108.800 C 357.420 108.800,357.600 109.145,357.600 109.567 C 357.600 109.988,357.743 110.393,357.917 110.467 C 358.092 110.540,359.841 113.840,361.805 117.800 C 363.769 121.760,365.516 125.060,365.688 125.133 C 365.860 125.207,366.000 125.612,366.000 126.033 C 366.000 126.455,366.180 126.800,366.400 126.800 C 366.620 126.800,366.800 127.340,366.800 128.000 C 366.800 128.660,366.980 129.200,367.200 129.200 C 367.420 129.200,367.600 129.560,367.600 130.000 C 367.600 130.440,367.780 130.800,368.000 130.800 C 368.220 130.800,368.400 131.239,368.400 131.776 C 368.400 132.313,368.580 132.864,368.800 133.000 C 369.020 133.136,369.200 133.597,369.200 134.024 C 369.200 134.451,369.380 134.800,369.600 134.800 C 369.820 134.800,370.000 135.239,370.000 135.776 C 370.000 136.313,370.180 136.864,370.400 137.000 C 370.620 137.136,370.800 137.597,370.800 138.024 C 370.800 138.451,370.980 138.800,371.200 138.800 C 371.420 138.800,371.600 139.340,371.600 140.000 C 371.600 140.660,371.780 141.200,372.000 141.200 C 372.220 141.200,372.400 141.650,372.400 142.200 C 372.400 142.750,372.580 143.200,372.800 143.200 C 373.020 143.200,373.200 143.740,373.200 144.400 C 373.200 145.060,373.380 145.600,373.600 145.600 C 373.820 145.600,374.000 146.142,374.000 146.805 C 374.000 147.468,374.160 148.323,374.355 148.705 C 374.550 149.087,375.018 150.840,375.395 152.600 C 375.772 154.360,376.242 156.213,376.440 156.719 C 376.638 157.224,376.800 158.159,376.800 158.795 C 376.800 159.432,376.980 160.064,377.200 160.200 C 377.420 160.336,377.600 161.157,377.600 162.024 C 377.600 162.891,377.780 163.600,378.000 163.600 C 378.220 163.600,378.400 164.579,378.400 165.776 C 378.400 166.973,378.580 168.064,378.800 168.200 C 379.020 168.336,379.200 169.337,379.200 170.424 C 379.200 171.511,379.380 172.400,379.600 172.400 C 379.831 172.400,380.000 173.667,380.000 175.400 C 380.000 177.133,380.169 178.400,380.400 178.400 C 380.638 178.400,380.800 179.925,380.800 182.176 C 380.800 184.263,380.979 186.063,381.200 186.200 C 381.454 186.357,381.600 191.396,381.600 200.000 C 381.600 208.604,381.454 213.643,381.200 213.800 C 380.979 213.937,380.800 215.737,380.800 217.824 C 380.800 220.075,380.638 221.600,380.400 221.600 C 380.169 221.600,380.000 222.867,380.000 224.600 C 380.000 226.333,379.831 227.600,379.600 227.600 C 379.380 227.600,379.200 228.489,379.200 229.576 C 379.200 230.663,379.020 231.664,378.800 231.800 C 378.580 231.936,378.400 233.027,378.400 234.224 C 378.400 235.421,378.220 236.400,378.000 236.400 C 377.780 236.400,377.600 237.109,377.600 237.976 C 377.600 238.843,377.420 239.664,377.200 239.800 C 376.980 239.936,376.800 240.568,376.800 241.205 C 376.800 241.841,376.638 242.776,376.440 243.281 C 376.242 243.787,375.772 245.640,375.395 247.400 C 375.018 249.160,374.550 250.913,374.355 251.295 C 374.160 251.677,374.000 252.532,374.000 253.195 C 374.000 253.858,373.820 254.400,373.600 254.400 C 373.380 254.400,373.200 254.940,373.200 255.600 C 373.200 256.260,373.020 256.800,372.800 256.800 C 372.580 256.800,372.400 257.239,372.400 257.776 C 372.400 258.313,372.220 258.864,372.000 259.000 C 371.780 259.136,371.600 259.687,371.600 260.224 C 371.600 260.761,371.420 261.200,371.200 261.200 C 370.980 261.200,370.800 261.549,370.800 261.976 C 370.800 262.403,370.620 262.864,370.400 263.000 C 370.180 263.136,370.000 263.687,370.000 264.224 C 370.000 264.761,369.820 265.200,369.600 265.200 C 369.380 265.200,369.200 265.549,369.200 265.976 C 369.200 266.403,369.020 266.864,368.800 267.000 C 368.580 267.136,368.400 267.687,368.400 268.224 C 368.400 268.761,368.220 269.200,368.000 269.200 C 367.780 269.200,367.600 269.560,367.600 270.000 C 367.600 270.440,367.420 270.800,367.200 270.800 C 366.980 270.800,366.800 271.340,366.800 272.000 C 366.800 272.660,366.620 273.200,366.400 273.200 C 366.180 273.200,366.000 273.545,366.000 273.967 C 366.000 274.388,365.860 274.793,365.688 274.867 C 365.516 274.940,363.769 278.240,361.805 282.200 C 359.841 286.160,358.092 289.460,357.917 289.533 C 357.743 289.607,357.600 290.012,357.600 290.433 C 357.600 290.855,357.420 291.200,357.200 291.200 C 356.980 291.200,356.800 291.470,356.800 291.800 C 356.800 292.130,356.620 292.400,356.400 292.400 C 356.180 292.400,356.000 292.636,356.000 292.925 C 356.000 293.213,355.640 293.836,355.200 294.308 C 354.760 294.780,354.400 295.404,354.400 295.695 C 354.400 295.986,354.040 296.483,353.600 296.800 C 353.160 297.117,352.800 297.697,352.800 298.088 C 352.800 298.480,352.650 298.800,352.468 298.800 C 352.285 298.800,351.881 299.295,351.570 299.900 C 351.260 300.505,350.689 301.291,350.303 301.647 C 349.916 302.003,349.600 302.548,349.600 302.859 C 349.600 303.169,349.240 303.683,348.800 304.000 C 348.360 304.317,348.000 304.773,348.000 305.013 C 348.000 305.253,347.685 305.798,347.300 306.225 C 346.383 307.241,344.490 309.701,343.043 311.756 C 342.407 312.660,341.552 313.691,341.143 314.047 C 340.734 314.403,340.400 314.908,340.400 315.169 C 340.400 315.430,339.320 316.704,338.000 318.000 C 336.680 319.296,335.600 320.521,335.600 320.723 C 335.600 321.203,321.203 335.600,320.723 335.600 C 320.521 335.600,319.296 336.680,318.000 338.000 C 316.704 339.320,315.430 340.400,315.169 340.400 C 314.908 340.400,314.403 340.734,314.047 341.143 C 313.691 341.552,312.660 342.407,311.756 343.043 C 309.701 344.490,307.241 346.383,306.225 347.300 C 305.798 347.685,305.253 348.000,305.013 348.000 C 304.773 348.000,304.317 348.360,304.000 348.800 C 303.683 349.240,303.169 349.600,302.859 349.600 C 302.548 349.600,302.003 349.916,301.647 350.303 C 301.291 350.689,300.505 351.260,299.900 351.570 C 299.295 351.881,298.800 352.285,298.800 352.468 C 298.800 352.650,298.480 352.800,298.088 352.800 C 297.697 352.800,297.117 353.160,296.800 353.600 C 296.483 354.040,295.986 354.400,295.695 354.400 C 295.404 354.400,294.780 354.760,294.308 355.200 C 293.836 355.640,293.213 356.000,292.925 356.000 C 292.636 356.000,292.400 356.180,292.400 356.400 C 292.400 356.620,292.130 356.800,291.800 356.800 C 291.470 356.800,291.200 356.980,291.200 357.200 C 291.200 357.420,290.855 357.600,290.433 357.600 C 290.012 357.600,289.607 357.743,289.533 357.917 C 289.460 358.092,286.160 359.841,282.200 361.805 C 278.240 363.769,274.940 365.516,274.867 365.688 C 274.793 365.860,274.388 366.000,273.967 366.000 C 273.545 366.000,273.200 366.180,273.200 366.400 C 273.200 366.620,272.660 366.800,272.000 366.800 C 271.340 366.800,270.800 366.980,270.800 367.200 C 270.800 367.420,270.440 367.600,270.000 367.600 C 269.560 367.600,269.200 367.780,269.200 368.000 C 269.200 368.220,268.761 368.400,268.224 368.400 C 267.687 368.400,267.136 368.580,267.000 368.800 C 266.864 369.020,266.403 369.200,265.976 369.200 C 265.549 369.200,265.200 369.380,265.200 369.600 C 265.200 369.820,264.761 370.000,264.224 370.000 C 263.687 370.000,263.136 370.180,263.000 370.400 C 262.864 370.620,262.403 370.800,261.976 370.800 C 261.549 370.800,261.200 370.980,261.200 371.200 C 261.200 371.420,260.761 371.600,260.224 371.600 C 259.687 371.600,259.136 371.780,259.000 372.000 C 258.864 372.220,258.313 372.400,257.776 372.400 C 257.239 372.400,256.800 372.580,256.800 372.800 C 256.800 373.020,256.260 373.200,255.600 373.200 C 254.940 373.200,254.400 373.380,254.400 373.600 C 254.400 373.820,253.858 374.000,253.195 374.000 C 252.532 374.000,251.677 374.160,251.295 374.355 C 250.913 374.550,249.160 375.018,247.400 375.395 C 245.640 375.772,243.787 376.242,243.281 376.440 C 242.776 376.638,241.841 376.800,241.205 376.800 C 240.568 376.800,239.936 376.980,239.800 377.200 C 239.664 377.420,238.843 377.600,237.976 377.600 C 237.109 377.600,236.400 377.780,236.400 378.000 C 236.400 378.220,235.421 378.400,234.224 378.400 C 233.027 378.400,231.936 378.580,231.800 378.800 C 231.664 379.020,230.663 379.200,229.576 379.200 C 228.489 379.200,227.600 379.380,227.600 379.600 C 227.600 379.831,226.333 380.000,224.600 380.000 C 222.867 380.000,221.600 380.169,221.600 380.400 C 221.600 380.638,220.075 380.800,217.824 380.800 C 215.737 380.800,213.937 380.979,213.800 381.200 C 213.462 381.746,186.538 381.746,186.200 381.200 C 186.063 380.979,184.263 380.800,182.176 380.800 C 179.925 380.800,178.400 380.638,178.400 380.400 C 178.400 380.169,177.133 380.000,175.400 380.000 C 173.667 380.000,172.400 379.831,172.400 379.600 C 172.400 379.380,171.511 379.200,170.424 379.200 C 169.337 379.200,168.336 379.020,168.200 378.800 C 168.064 378.580,166.973 378.400,165.776 378.400 C 164.579 378.400,163.600 378.220,163.600 378.000 C 163.600 377.780,162.891 377.600,162.024 377.600 C 161.157 377.600,160.336 377.420,160.200 377.200 C 160.064 376.980,159.432 376.800,158.795 376.800 C 158.159 376.800,157.224 376.638,156.719 376.440 C 156.213 376.242,154.360 375.772,152.600 375.395 C 150.840 375.018,149.087 374.550,148.705 374.355 C 148.323 374.160,147.468 374.000,146.805 374.000 C 146.142 374.000,145.600 373.820,145.600 373.600 C 145.600 373.380,145.060 373.200,144.400 373.200 C 143.740 373.200,143.200 373.020,143.200 372.800 C 143.200 372.580,142.750 372.400,142.200 372.400 C 141.650 372.400,141.200 372.220,141.200 372.000 C 141.200 371.780,140.660 371.600,140.000 371.600 C 139.340 371.600,138.800 371.420,138.800 371.200 C 138.800 370.980,138.451 370.800,138.024 370.800 C 137.597 370.800,137.136 370.620,137.000 370.400 C 136.864 370.180,136.313 370.000,135.776 370.000 C 135.239 370.000,134.800 369.820,134.800 369.600 C 134.800 369.380,134.451 369.200,134.024 369.200 C 133.597 369.200,133.136 369.020,133.000 368.800 C 132.864 368.580,132.313 368.400,131.776 368.400 C 131.239 368.400,130.800 368.220,130.800 368.000 C 130.800 367.780,130.440 367.600,130.000 367.600 C 129.560 367.600,129.200 367.420,129.200 367.200 C 129.200 366.980,128.660 366.800,128.000 366.800 C 127.340 366.800,126.800 366.620,126.800 366.400 C 126.800 366.180,126.455 366.000,126.033 366.000 C 125.612 366.000,125.207 365.860,125.133 365.688 C 125.060 365.516,121.760 363.769,117.800 361.805 C 113.840 359.841,110.540 358.092,110.467 357.917 C 110.393 357.743,109.988 357.600,109.567 357.600 C 109.145 357.600,108.800 357.420,108.800 357.200 C 108.800 356.980,108.530 356.800,108.200 356.800 C 107.870 356.800,107.600 356.620,107.600 356.400 C 107.600 356.180,107.364 356.000,107.075 356.000 C 106.787 356.000,106.164 355.640,105.692 355.200 C 105.220 354.760,104.596 354.400,104.305 354.400 C 104.014 354.400,103.517 354.040,103.200 353.600 C 102.883 353.160,102.303 352.800,101.912 352.800 C 101.520 352.800,101.200 352.650,101.200 352.468 C 101.200 352.285,100.705 351.881,100.100 351.570 C 99.495 351.260,98.709 350.689,98.353 350.303 C 97.997 349.916,97.452 349.600,97.141 349.600 C 96.831 349.600,96.317 349.240,96.000 348.800 C 95.683 348.360,95.227 348.000,94.987 348.000 C 94.747 348.000,94.202 347.685,93.775 347.300 C 92.759 346.383,90.299 344.490,88.244 343.043 C 87.340 342.407,86.309 341.552,85.953 341.143 C 85.597 340.734,85.092 340.400,84.831 340.400 C 84.570 340.400,83.296 339.320,82.000 338.000 C 80.704 336.680,79.479 335.600,79.277 335.600 C 78.797 335.600,64.400 321.203,64.400 320.723 C 64.400 320.521,63.320 319.296,62.000 318.000 C 60.680 316.704,59.600 315.450,59.600 315.211 C 59.600 314.973,59.029 314.152,58.332 313.385 C 57.635 312.619,56.780 311.562,56.432 311.036 C 55.662 309.870,53.653 307.281,52.700 306.225 C 52.315 305.798,52.000 305.253,52.000 305.013 C 52.000 304.773,51.640 304.317,51.200 304.000 C 50.760 303.683,50.400 303.169,50.400 302.859 C 50.400 302.548,50.084 302.003,49.697 301.647 C 49.311 301.291,48.740 300.505,48.430 299.900 C 48.119 299.295,47.715 298.800,47.532 298.800 C 47.350 298.800,47.200 298.480,47.200 298.088 C 47.200 297.697,46.840 297.117,46.400 296.800 C 45.960 296.483,45.600 295.986,45.600 295.695 C 45.600 295.404,45.240 294.780,44.800 294.308 C 44.360 293.836,44.000 293.213,44.000 292.925 C 44.000 292.636,43.820 292.400,43.600 292.400 C 43.380 292.400,43.200 292.130,43.200 291.800 C 43.200 291.470,43.020 291.200,42.800 291.200 C 42.580 291.200,42.400 290.855,42.400 290.433 C 42.400 290.012,42.257 289.607,42.083 289.533 C 41.908 289.460,40.159 286.160,38.195 282.200 C 36.231 278.240,34.484 274.940,34.312 274.867 C 34.140 274.793,34.000 274.388,34.000 273.967 C 34.000 273.545,33.820 273.200,33.600 273.200 C 33.380 273.200,33.200 272.660,33.200 272.000 C 33.200 271.340,33.020 270.800,32.800 270.800 C 32.580 270.800,32.400 270.440,32.400 270.000 C 32.400 269.560,32.220 269.200,32.000 269.200 C 31.780 269.200,31.600 268.761,31.600 268.224 C 31.600 267.687,31.420 267.136,31.200 267.000 C 30.980 266.864,30.800 266.403,30.800 265.976 C 30.800 265.549,30.620 265.200,30.400 265.200 C 30.180 265.200,30.000 264.761,30.000 264.224 C 30.000 263.687,29.820 263.136,29.600 263.000 C 29.380 262.864,29.200 262.403,29.200 261.976 C 29.200 261.549,29.020 261.200,28.800 261.200 C 28.580 261.200,28.400 260.761,28.400 260.224 C 28.400 259.687,28.220 259.136,28.000 259.000 C 27.780 258.864,27.600 258.313,27.600 257.776 C 27.600 257.239,27.420 256.800,27.200 256.800 C 26.980 256.800,26.800 256.260,26.800 255.600 C 26.800 254.940,26.620 254.400,26.400 254.400 C 26.180 254.400,26.000 253.800,26.000 253.067 C 26.000 252.333,25.865 251.599,25.700 251.435 C 25.535 251.270,25.186 250.115,24.925 248.868 C 24.664 247.621,24.245 245.790,23.993 244.800 C 23.741 243.810,23.440 242.324,23.325 241.497 C 23.210 240.671,22.955 239.895,22.758 239.774 C 22.561 239.652,22.400 238.843,22.400 237.976 C 22.400 237.109,22.220 236.400,22.000 236.400 C 21.780 236.400,21.600 235.421,21.600 234.224 C 21.600 233.027,21.420 231.936,21.200 231.800 C 20.980 231.664,20.800 230.663,20.800 229.576 C 20.800 228.489,20.620 227.600,20.400 227.600 C 20.169 227.600,20.000 226.333,20.000 224.600 C 20.000 222.867,19.831 221.600,19.600 221.600 C 19.362 221.600,19.200 220.075,19.200 217.824 C 19.200 215.737,19.021 213.937,18.800 213.800 C 18.546 213.643,18.400 208.604,18.400 200.000 C 18.400 191.396,18.546 186.357,18.800 186.200 C 19.021 186.063,19.200 184.263,19.200 182.176 C 19.200 179.925,19.362 178.400,19.600 178.400 C 19.831 178.400,20.000 177.133,20.000 175.400 C 20.000 173.667,20.169 172.400,20.400 172.400 C 20.620 172.400,20.800 171.511,20.800 170.424 C 20.800 169.337,20.980 168.336,21.200 168.200 C 21.420 168.064,21.600 166.973,21.600 165.776 C 21.600 164.579,21.780 163.600,22.000 163.600 C 22.220 163.600,22.400 162.891,22.400 162.024 C 22.400 161.157,22.561 160.348,22.758 160.226 C 22.955 160.105,23.210 159.329,23.325 158.503 C 23.440 157.676,23.741 156.190,23.993 155.200 C 24.245 154.210,24.664 152.379,24.925 151.132 C 25.186 149.885,25.535 148.730,25.700 148.565 C 25.865 148.401,26.000 147.667,26.000 146.933 C 26.000 146.200,26.180 145.600,26.400 145.600 C 26.620 145.600,26.800 145.060,26.800 144.400 C 26.800 143.740,26.980 143.200,27.200 143.200 C 27.420 143.200,27.600 142.750,27.600 142.200 C 27.600 141.650,27.780 141.200,28.000 141.200 C 28.220 141.200,28.400 140.660,28.400 140.000 C 28.400 139.340,28.580 138.800,28.800 138.800 C 29.020 138.800,29.200 138.451,29.200 138.024 C 29.200 137.597,29.380 137.136,29.600 137.000 C 29.820 136.864,30.000 136.313,30.000 135.776 C 30.000 135.239,30.180 134.800,30.400 134.800 C 30.620 134.800,30.800 134.451,30.800 134.024 C 30.800 133.597,30.980 133.136,31.200 133.000 C 31.420 132.864,31.600 132.313,31.600 131.776 C 31.600 131.239,31.780 130.800,32.000 130.800 C 32.220 130.800,32.400 130.440,32.400 130.000 C 32.400 129.560,32.580 129.200,32.800 129.200 C 33.020 129.200,33.200 128.660,33.200 128.000 C 33.200 127.340,33.380 126.800,33.600 126.800 C 33.820 126.800,34.000 126.455,34.000 126.033 C 34.000 125.612,34.138 125.207,34.307 125.133 C 34.475 125.060,35.955 122.300,37.594 119.000 C 39.234 115.700,40.689 112.910,40.826 112.800 C 40.964 112.690,41.198 112.105,41.346 111.500 C 41.494 110.895,41.792 110.400,42.008 110.400 C 42.223 110.400,42.400 110.040,42.400 109.600 C 42.400 109.160,42.580 108.800,42.800 108.800 C 43.020 108.800,43.200 108.530,43.200 108.200 C 43.200 107.870,43.380 107.600,43.600 107.600 C 43.820 107.600,44.000 107.364,44.000 107.075 C 44.000 106.787,44.360 106.164,44.800 105.692 C 45.240 105.220,45.600 104.596,45.600 104.305 C 45.600 104.014,45.960 103.517,46.400 103.200 C 46.840 102.883,47.200 102.303,47.200 101.912 C 47.200 101.520,47.350 101.200,47.532 101.200 C 47.715 101.200,48.119 100.705,48.430 100.100 C 48.740 99.495,49.311 98.709,49.697 98.353 C 50.084 97.997,50.400 97.452,50.400 97.141 C 50.400 96.831,50.760 96.317,51.200 96.000 C 51.640 95.683,52.003 95.238,52.007 95.012 C 52.011 94.785,52.506 93.991,53.107 93.247 C 54.832 91.111,56.515 88.983,57.600 87.565 C 58.150 86.847,58.825 86.034,59.100 85.758 C 59.375 85.483,59.600 85.054,59.600 84.806 C 59.600 84.559,60.680 83.296,62.000 82.000 C 63.320 80.704,64.400 79.479,64.400 79.277 C 64.400 78.797,78.797 64.400,79.277 64.400 C 79.479 64.400,80.704 63.320,82.000 62.000 C 83.296 60.680,84.559 59.600,84.806 59.600 C 85.054 59.600,85.483 59.375,85.758 59.100 C 86.034 58.825,86.847 58.150,87.565 57.600 C 88.983 56.515,91.111 54.832,93.247 53.107 C 93.991 52.506,94.785 52.011,95.012 52.007 C 95.238 52.003,95.683 51.640,96.000 51.200 C 96.317 50.760,96.831 50.400,97.141 50.400 C 97.452 50.400,97.997 50.084,98.353 49.697 C 98.709 49.311,99.495 48.740,100.100 48.430 C 100.705 48.119,101.200 47.715,101.200 47.532 C 101.200 47.350,101.520 47.200,101.912 47.200 C 102.303 47.200,102.883 46.840,103.200 46.400 C 103.517 45.960,104.014 45.600,104.305 45.600 C 104.596 45.600,105.220 45.240,105.692 44.800 C 106.164 44.360,106.787 44.000,107.075 44.000 C 107.364 44.000,107.600 43.820,107.600 43.600 C 107.600 43.380,107.870 43.200,108.200 43.200 C 108.530 43.200,108.800 43.020,108.800 42.800 C 108.800 42.580,109.160 42.400,109.600 42.400 C 110.040 42.400,110.400 42.223,110.400 42.008 C 110.400 41.792,110.895 41.494,111.500 41.346 C 112.105 41.198,112.690 40.964,112.800 40.826 C 112.910 40.689,115.700 39.234,119.000 37.594 C 122.300 35.955,125.060 34.475,125.133 34.307 C 125.207 34.138,125.612 34.000,126.033 34.000 C 126.455 34.000,126.800 33.820,126.800 33.600 C 126.800 33.380,127.340 33.200,128.000 33.200 C 128.660 33.200,129.200 33.020,129.200 32.800 C 129.200 32.580,129.560 32.400,130.000 32.400 C 130.440 32.400,130.800 32.220,130.800 32.000 C 130.800 31.780,131.239 31.600,131.776 31.600 C 132.313 31.600,132.864 31.420,133.000 31.200 C 133.136 30.980,133.597 30.800,134.024 30.800 C 134.451 30.800,134.800 30.620,134.800 30.400 C 134.800 30.180,135.239 30.000,135.776 30.000 C 136.313 30.000,136.864 29.820,137.000 29.600 C 137.136 29.380,137.597 29.200,138.024 29.200 C 138.451 29.200,138.800 29.020,138.800 28.800 C 138.800 28.580,139.340 28.400,140.000 28.400 C 140.660 28.400,141.200 28.220,141.200 28.000 C 141.200 27.780,141.650 27.600,142.200 27.600 C 142.750 27.600,143.200 27.420,143.200 27.200 C 143.200 26.980,143.740 26.800,144.400 26.800 C 145.060 26.800,145.600 26.620,145.600 26.400 C 145.600 26.180,146.200 26.000,146.933 26.000 C 147.667 26.000,148.401 25.865,148.565 25.700 C 148.730 25.535,149.885 25.186,151.132 24.925 C 152.379 24.664,154.210 24.245,155.200 23.993 C 156.190 23.741,157.676 23.440,158.503 23.325 C 159.329 23.210,160.105 22.955,160.226 22.758 C 160.348 22.561,161.157 22.400,162.024 22.400 C 162.891 22.400,163.600 22.220,163.600 22.000 C 163.600 21.780,164.579 21.600,165.776 21.600 C 166.973 21.600,168.064 21.420,168.200 21.200 C 168.336 20.980,169.337 20.800,170.424 20.800 C 171.511 20.800,172.400 20.620,172.400 20.400 C 172.400 20.169,173.667 20.000,175.400 20.000 C 177.133 20.000,178.400 19.831,178.400 19.600 C 178.400 19.362,179.925 19.200,182.176 19.200 C 184.263 19.200,186.063 19.021,186.200 18.800 C 186.357 18.546,191.396 18.400,200.000 18.400 C 208.604 18.400,213.643 18.546,213.800 18.800 M194.200 51.600 C 194.054 51.836,191.670 52.000,188.400 52.000 C 185.130 52.000,182.746 52.164,182.600 52.400 C 182.464 52.620,181.193 52.800,179.776 52.800 C 178.325 52.800,177.200 52.975,177.200 53.200 C 177.200 53.422,176.133 53.600,174.800 53.600 C 173.467 53.600,172.400 53.778,172.400 54.000 C 172.400 54.220,171.500 54.400,170.400 54.400 C 169.300 54.400,168.400 54.580,168.400 54.800 C 168.400 55.020,167.680 55.200,166.800 55.200 C 165.920 55.200,165.200 55.380,165.200 55.600 C 165.200 55.820,164.480 56.000,163.600 56.000 C 162.720 56.000,162.000 56.180,162.000 56.400 C 162.000 56.620,161.370 56.800,160.600 56.800 C 159.830 56.800,159.200 56.980,159.200 57.200 C 159.200 57.420,158.660 57.600,158.000 57.600 C 157.340 57.600,156.800 57.755,156.800 57.944 C 156.800 58.134,155.939 58.391,154.887 58.515 C 152.577 58.789,149.600 59.680,149.600 60.097 C 149.600 60.264,149.238 60.400,148.795 60.400 C 148.352 60.400,147.677 60.559,147.295 60.753 C 146.913 60.948,146.105 61.308,145.500 61.553 C 144.895 61.799,143.905 62.201,143.300 62.447 C 142.695 62.692,141.887 63.052,141.505 63.247 C 141.123 63.441,140.538 63.600,140.205 63.600 C 139.872 63.600,139.600 63.780,139.600 64.000 C 139.600 64.220,139.240 64.400,138.800 64.400 C 138.360 64.400,138.000 64.580,138.000 64.800 C 138.000 65.020,137.640 65.200,137.200 65.200 C 136.760 65.200,136.400 65.380,136.400 65.600 C 136.400 65.820,136.040 66.000,135.600 66.000 C 135.160 66.000,134.800 66.180,134.800 66.400 C 134.800 66.620,134.440 66.800,134.000 66.800 C 133.560 66.800,133.200 66.980,133.200 67.200 C 133.200 67.420,132.840 67.600,132.400 67.600 C 131.960 67.600,131.600 67.780,131.600 68.000 C 131.600 68.220,131.240 68.400,130.800 68.400 C 130.360 68.400,130.000 68.580,130.000 68.800 C 130.000 69.020,129.640 69.200,129.200 69.200 C 128.760 69.200,128.400 69.336,128.400 69.502 C 128.400 69.669,127.815 70.060,127.100 70.372 C 126.385 70.684,125.509 71.268,125.153 71.670 C 124.797 72.071,124.212 72.400,123.853 72.400 C 123.494 72.400,123.200 72.580,123.200 72.800 C 123.200 73.020,122.880 73.200,122.488 73.200 C 122.097 73.200,121.517 73.560,121.200 74.000 C 120.883 74.440,120.401 74.800,120.129 74.800 C 119.673 74.800,117.239 76.252,116.117 77.194 C 115.851 77.417,115.480 77.600,115.292 77.600 C 115.105 77.600,114.602 77.920,114.175 78.311 C 113.749 78.702,112.770 79.464,112.000 80.005 C 110.083 81.352,109.314 81.985,107.760 83.500 C 107.027 84.215,106.256 84.800,106.048 84.800 C 105.840 84.800,104.615 85.839,103.325 87.108 C 102.036 88.378,100.355 89.852,99.590 90.384 C 97.773 91.649,91.622 97.808,90.387 99.600 C 89.856 100.370,88.562 101.843,87.511 102.874 C 86.460 103.905,85.600 104.913,85.600 105.115 C 85.600 105.316,85.060 106.046,84.400 106.737 C 83.740 107.428,83.200 108.264,83.200 108.596 C 83.200 108.928,83.020 109.200,82.800 109.200 C 82.561 109.200,82.400 110.733,82.400 113.000 C 82.400 115.267,82.561 116.800,82.800 116.800 C 83.020 116.800,83.200 117.120,83.200 117.512 C 83.200 117.903,83.560 118.483,84.000 118.800 C 84.440 119.117,84.800 119.595,84.800 119.861 C 84.800 120.128,85.160 120.460,85.600 120.600 C 86.040 120.740,86.400 121.022,86.400 121.227 C 86.400 121.432,86.760 121.600,87.200 121.600 C 87.640 121.600,88.000 121.780,88.000 122.000 C 88.000 122.235,89.400 122.400,91.400 122.400 C 93.400 122.400,94.800 122.235,94.800 122.000 C 94.800 121.780,95.160 121.600,95.600 121.600 C 96.040 121.600,96.400 121.432,96.400 121.227 C 96.400 121.022,96.774 120.735,97.232 120.590 C 98.124 120.307,100.400 118.110,100.400 117.532 C 100.400 117.340,101.345 116.231,102.500 115.068 C 103.655 113.905,105.230 112.170,106.000 111.212 C 107.766 109.015,109.015 107.766,111.212 106.000 C 112.170 105.230,113.905 103.655,115.068 102.500 C 116.231 101.345,117.367 100.400,117.591 100.400 C 117.816 100.400,118.000 100.220,118.000 100.000 C 118.000 99.780,118.198 99.600,118.440 99.600 C 118.681 99.600,119.383 99.060,120.000 98.400 C 120.617 97.740,121.319 97.200,121.560 97.200 C 121.802 97.200,122.000 97.020,122.000 96.800 C 122.000 96.580,122.230 96.400,122.512 96.400 C 122.793 96.400,123.283 96.040,123.600 95.600 C 123.917 95.160,124.319 94.800,124.492 94.800 C 124.665 94.800,125.372 94.260,126.063 93.600 C 126.754 92.940,127.562 92.400,127.859 92.400 C 128.157 92.400,128.400 92.238,128.400 92.039 C 128.400 91.841,128.895 91.489,129.500 91.258 C 130.878 90.732,132.957 89.498,133.133 89.100 C 133.207 88.935,133.612 88.800,134.033 88.800 C 134.455 88.800,134.800 88.620,134.800 88.400 C 134.800 88.180,135.036 88.000,135.325 88.000 C 135.613 88.000,136.236 87.640,136.708 87.200 C 137.180 86.760,137.844 86.400,138.183 86.400 C 138.522 86.400,138.800 86.254,138.800 86.075 C 138.800 85.896,139.430 85.502,140.200 85.200 C 140.970 84.898,141.600 84.504,141.600 84.325 C 141.600 84.146,141.960 84.000,142.400 84.000 C 142.840 84.000,143.200 83.820,143.200 83.600 C 143.200 83.380,143.560 83.200,144.000 83.200 C 144.440 83.200,144.800 83.020,144.800 82.800 C 144.800 82.580,145.160 82.400,145.600 82.400 C 146.040 82.400,146.400 82.220,146.400 82.000 C 146.400 81.780,146.839 81.600,147.376 81.600 C 147.913 81.600,148.464 81.420,148.600 81.200 C 148.736 80.980,149.197 80.800,149.624 80.800 C 150.051 80.800,150.400 80.620,150.400 80.400 C 150.400 80.180,150.760 80.000,151.200 80.000 C 151.640 80.000,152.000 79.820,152.000 79.600 C 152.000 79.380,152.540 79.200,153.200 79.200 C 153.860 79.200,154.400 79.020,154.400 78.800 C 154.400 78.580,154.749 78.400,155.176 78.400 C 155.603 78.400,156.064 78.220,156.200 78.000 C 156.336 77.780,156.887 77.600,157.424 77.600 C 157.961 77.600,158.400 77.420,158.400 77.200 C 158.400 76.980,158.839 76.800,159.376 76.800 C 159.913 76.800,160.464 76.620,160.600 76.400 C 160.736 76.180,161.467 76.000,162.224 76.000 C 162.981 76.000,163.600 75.850,163.600 75.666 C 163.600 75.482,164.725 75.135,166.100 74.895 C 167.475 74.655,169.410 74.247,170.400 73.990 C 171.390 73.733,173.055 73.433,174.100 73.323 C 175.145 73.213,176.000 72.960,176.000 72.761 C 176.000 72.563,176.979 72.400,178.176 72.400 C 179.373 72.400,180.464 72.220,180.600 72.000 C 180.736 71.780,181.996 71.600,183.400 71.600 C 184.804 71.600,186.064 71.420,186.200 71.200 C 186.357 70.946,191.396 70.800,200.000 70.800 C 208.604 70.800,213.643 70.946,213.800 71.200 C 213.936 71.420,215.196 71.600,216.600 71.600 C 218.004 71.600,219.264 71.780,219.400 72.000 C 219.536 72.220,220.627 72.400,221.824 72.400 C 223.021 72.400,224.000 72.563,224.000 72.761 C 224.000 72.960,224.855 73.213,225.900 73.323 C 226.945 73.433,228.610 73.733,229.600 73.990 C 230.590 74.247,232.525 74.655,233.900 74.895 C 235.275 75.135,236.400 75.482,236.400 75.666 C 236.400 75.850,237.019 76.000,237.776 76.000 C 238.533 76.000,239.264 76.180,239.400 76.400 C 239.536 76.620,240.177 76.800,240.824 76.800 C 241.471 76.800,242.000 76.980,242.000 77.200 C 242.000 77.420,242.349 77.600,242.776 77.600 C 243.203 77.600,243.664 77.780,243.800 78.000 C 243.936 78.220,244.397 78.400,244.824 78.400 C 245.251 78.400,245.600 78.580,245.600 78.800 C 245.600 79.020,246.140 79.200,246.800 79.200 C 247.460 79.200,248.000 79.380,248.000 79.600 C 248.000 79.820,248.360 80.000,248.800 80.000 C 249.240 80.000,249.600 80.180,249.600 80.400 C 249.600 80.620,249.949 80.800,250.376 80.800 C 250.803 80.800,251.264 80.980,251.400 81.200 C 251.536 81.420,252.087 81.600,252.624 81.600 C 253.161 81.600,253.600 81.780,253.600 82.000 C 253.600 82.220,253.960 82.400,254.400 82.400 C 254.840 82.400,255.200 82.580,255.200 82.800 C 255.200 83.020,255.560 83.200,256.000 83.200 C 256.440 83.200,256.800 83.380,256.800 83.600 C 256.800 83.820,257.160 84.000,257.600 84.000 C 258.040 84.000,258.400 84.146,258.400 84.325 C 258.400 84.504,259.030 84.898,259.800 85.200 C 260.570 85.502,261.200 85.896,261.200 86.075 C 261.200 86.254,261.478 86.400,261.817 86.400 C 262.156 86.400,262.820 86.760,263.292 87.200 C 263.764 87.640,264.387 88.000,264.675 88.000 C 264.964 88.000,265.200 88.180,265.200 88.400 C 265.200 88.620,265.545 88.800,265.967 88.800 C 266.388 88.800,266.793 88.935,266.867 89.100 C 267.043 89.498,269.122 90.732,270.500 91.258 C 271.105 91.489,271.600 91.841,271.600 92.039 C 271.600 92.238,271.843 92.400,272.141 92.400 C 272.438 92.400,273.246 92.940,273.937 93.600 C 274.628 94.260,275.335 94.800,275.508 94.800 C 275.681 94.800,276.083 95.160,276.400 95.600 C 276.717 96.040,277.207 96.400,277.488 96.400 C 277.770 96.400,278.000 96.580,278.000 96.800 C 278.000 97.020,278.180 97.200,278.400 97.200 C 278.619 97.200,279.541 97.920,280.448 98.800 C 281.355 99.680,282.259 100.400,282.457 100.400 C 282.655 100.400,283.769 101.345,284.932 102.500 C 286.095 103.655,287.792 105.201,288.704 105.936 C 291.409 108.117,291.786 108.490,293.819 111.000 C 294.888 112.320,296.626 114.243,297.682 115.274 C 298.737 116.305,299.600 117.305,299.600 117.496 C 299.600 118.139,302.301 120.800,302.954 120.800 C 303.309 120.800,303.601 120.935,303.603 121.100 C 303.605 121.265,304.091 121.625,304.683 121.900 C 305.970 122.498,312.000 122.580,312.000 122.000 C 312.000 121.780,312.360 121.600,312.800 121.600 C 313.240 121.600,313.600 121.432,313.600 121.227 C 313.600 121.022,313.960 120.740,314.400 120.600 C 314.840 120.460,315.200 120.128,315.200 119.861 C 315.200 119.595,315.560 119.117,316.000 118.800 C 316.440 118.483,316.800 117.903,316.800 117.512 C 316.800 117.120,316.980 116.800,317.200 116.800 C 317.439 116.800,317.600 115.267,317.600 113.000 C 317.600 110.733,317.439 109.200,317.200 109.200 C 316.980 109.200,316.800 108.928,316.800 108.596 C 316.800 108.264,316.260 107.428,315.600 106.737 C 314.940 106.046,314.400 105.316,314.400 105.115 C 314.400 104.913,313.540 103.905,312.489 102.874 C 311.438 101.843,310.144 100.370,309.613 99.600 C 308.378 97.808,302.227 91.649,300.410 90.384 C 299.645 89.852,297.964 88.378,296.675 87.108 C 295.385 85.839,294.160 84.800,293.952 84.800 C 293.744 84.800,292.973 84.215,292.240 83.500 C 290.686 81.985,289.917 81.352,288.000 80.005 C 287.230 79.464,286.251 78.702,285.825 78.311 C 285.398 77.920,284.895 77.600,284.708 77.600 C 284.520 77.600,284.149 77.417,283.883 77.194 C 282.761 76.252,280.327 74.800,279.871 74.800 C 279.599 74.800,279.117 74.440,278.800 74.000 C 278.483 73.560,277.903 73.200,277.512 73.200 C 277.120 73.200,276.800 73.020,276.800 72.800 C 276.800 72.580,276.506 72.400,276.147 72.400 C 275.788 72.400,275.203 72.071,274.847 71.670 C 274.491 71.268,273.615 70.684,272.900 70.372 C 272.185 70.060,271.600 69.669,271.600 69.502 C 271.600 69.336,271.240 69.200,270.800 69.200 C 270.360 69.200,270.000 69.020,270.000 68.800 C 270.000 68.580,269.640 68.400,269.200 68.400 C 268.760 68.400,268.400 68.220,268.400 68.000 C 268.400 67.780,268.040 67.600,267.600 67.600 C 267.160 67.600,266.800 67.420,266.800 67.200 C 266.800 66.980,266.440 66.800,266.000 66.800 C 265.560 66.800,265.200 66.620,265.200 66.400 C 265.200 66.180,264.840 66.000,264.400 66.000 C 263.960 66.000,263.600 65.820,263.600 65.600 C 263.600 65.380,263.240 65.200,262.800 65.200 C 262.360 65.200,262.000 65.020,262.000 64.800 C 262.000 64.580,261.640 64.400,261.200 64.400 C 260.760 64.400,260.400 64.220,260.400 64.000 C 260.400 63.780,260.128 63.600,259.795 63.600 C 259.462 63.600,258.877 63.441,258.495 63.247 C 258.113 63.052,257.305 62.692,256.700 62.447 C 256.095 62.201,255.105 61.799,254.500 61.553 C 253.895 61.308,253.087 60.948,252.705 60.753 C 252.323 60.559,251.648 60.400,251.205 60.400 C 250.762 60.400,250.400 60.264,250.400 60.097 C 250.400 59.680,247.423 58.789,245.113 58.515 C 244.061 58.391,243.200 58.134,243.200 57.944 C 243.200 57.755,242.761 57.600,242.224 57.600 C 241.687 57.600,241.136 57.420,241.000 57.200 C 240.864 56.980,240.133 56.800,239.376 56.800 C 238.619 56.800,238.000 56.620,238.000 56.400 C 238.000 56.180,237.280 56.000,236.400 56.000 C 235.520 56.000,234.800 55.820,234.800 55.600 C 234.800 55.380,234.080 55.200,233.200 55.200 C 232.320 55.200,231.600 55.020,231.600 54.800 C 231.600 54.580,230.700 54.400,229.600 54.400 C 228.500 54.400,227.600 54.220,227.600 54.000 C 227.600 53.778,226.533 53.600,225.200 53.600 C 223.867 53.600,222.800 53.422,222.800 53.200 C 222.800 52.975,221.675 52.800,220.224 52.800 C 218.807 52.800,217.536 52.620,217.400 52.400 C 217.254 52.164,214.870 52.000,211.600 52.000 C 208.330 52.000,205.946 51.836,205.800 51.600 C 205.654 51.364,203.270 51.200,200.000 51.200 C 196.730 51.200,194.346 51.364,194.200 51.600 M75.600 156.400 C 75.600 156.620,75.142 156.800,74.582 156.800 C 74.022 156.800,73.077 157.254,72.482 157.809 C 71.887 158.364,71.085 159.116,70.700 159.479 C 70.315 159.843,70.000 160.378,70.000 160.670 C 70.000 160.961,69.820 161.200,69.600 161.200 C 69.336 161.200,69.200 174.400,69.200 200.000 C 69.200 225.600,69.336 238.800,69.600 238.800 C 69.820 238.800,70.000 239.039,70.000 239.330 C 70.000 239.622,70.315 240.157,70.700 240.521 C 71.085 240.884,71.887 241.636,72.482 242.191 C 73.077 242.746,74.022 243.200,74.582 243.200 C 75.142 243.200,75.600 243.380,75.600 243.600 C 75.600 243.831,76.867 244.000,78.600 244.000 C 80.333 244.000,81.600 243.831,81.600 243.600 C 81.600 243.380,81.878 243.200,82.217 243.200 C 82.556 243.200,83.220 242.840,83.692 242.400 C 84.164 241.960,84.787 241.600,85.075 241.600 C 85.364 241.600,85.600 241.412,85.600 241.183 C 85.600 240.954,85.960 240.380,86.400 239.908 C 86.866 239.408,87.200 238.496,87.200 237.725 C 87.200 236.996,87.380 236.400,87.600 236.400 C 87.859 236.400,88.000 231.667,88.000 223.000 L 88.000 209.600 92.200 209.600 C 94.733 209.600,96.400 209.441,96.400 209.200 C 96.400 208.980,97.018 208.800,97.774 208.800 C 100.499 208.800,104.400 205.842,104.400 203.775 C 104.400 203.265,104.580 202.736,104.800 202.600 C 105.020 202.464,105.200 201.294,105.200 200.000 C 105.200 198.706,105.020 197.536,104.800 197.400 C 104.580 197.264,104.400 196.749,104.400 196.255 C 104.400 194.241,100.441 191.200,97.820 191.200 C 97.039 191.200,96.400 191.020,96.400 190.800 C 96.400 190.559,94.733 190.400,92.200 190.400 L 88.000 190.400 88.000 182.600 L 88.000 174.800 101.206 174.800 C 113.900 174.800,117.600 174.507,117.600 173.503 C 117.600 173.336,117.825 173.200,118.100 173.200 C 121.333 173.196,123.704 164.805,121.572 160.912 C 120.497 158.951,118.056 156.800,116.904 156.800 C 116.407 156.800,116.000 156.620,116.000 156.400 C 116.000 156.139,109.000 156.000,95.800 156.000 C 82.600 156.000,75.600 156.139,75.600 156.400 M144.800 156.400 C 144.800 156.620,144.432 156.800,143.982 156.800 C 143.532 156.800,142.677 157.254,142.082 157.809 C 141.487 158.364,140.685 159.116,140.300 159.479 C 139.915 159.843,139.600 160.378,139.600 160.670 C 139.600 160.961,139.420 161.200,139.200 161.200 C 138.936 161.200,138.800 174.400,138.800 200.000 C 138.800 225.600,138.936 238.800,139.200 238.800 C 139.420 238.800,139.600 239.039,139.600 239.330 C 139.600 239.622,139.915 240.157,140.300 240.521 C 140.685 240.884,141.487 241.636,142.082 242.191 C 142.677 242.746,143.532 243.200,143.982 243.200 C 144.432 243.200,144.800 243.380,144.800 243.600 C 144.800 243.831,146.059 244.000,147.776 244.000 C 149.413 244.000,150.864 243.820,151.000 243.600 C 151.136 243.380,151.597 243.200,152.024 243.200 C 152.451 243.200,152.800 243.020,152.800 242.800 C 152.800 242.580,153.070 242.400,153.400 242.400 C 153.730 242.400,154.000 242.220,154.000 242.000 C 154.000 241.780,154.270 241.600,154.600 241.600 C 154.930 241.600,155.200 241.358,155.200 241.062 C 155.200 240.766,155.560 240.198,156.000 239.800 C 156.491 239.356,156.800 238.568,156.800 237.762 C 156.800 237.039,156.980 236.336,157.200 236.200 C 157.438 236.053,157.600 233.529,157.600 229.976 C 157.600 226.689,157.695 224.000,157.810 224.000 C 157.926 224.000,161.963 227.915,166.781 232.700 C 176.287 242.141,176.565 242.400,177.183 242.400 C 177.412 242.400,177.600 242.580,177.600 242.800 C 177.600 243.020,177.960 243.200,178.400 243.200 C 178.840 243.200,179.200 243.380,179.200 243.600 C 179.200 243.833,180.533 244.000,182.400 244.000 C 184.267 244.000,185.600 243.833,185.600 243.600 C 185.600 243.380,186.050 243.200,186.600 243.200 C 187.150 243.200,187.600 243.020,187.600 242.800 C 187.600 242.580,187.788 242.400,188.017 242.400 C 188.246 242.400,188.816 242.044,189.283 241.608 C 193.273 237.891,192.577 230.527,187.846 226.400 C 186.103 224.879,176.394 215.170,172.723 211.278 L 170.445 208.863 172.123 208.602 C 173.045 208.459,174.385 208.085,175.100 207.771 C 178.354 206.342,179.200 205.885,179.200 205.554 C 179.200 205.359,179.467 205.200,179.793 205.200 C 181.084 205.200,188.000 198.284,188.000 196.993 C 188.000 196.667,188.180 196.400,188.400 196.400 C 188.620 196.400,188.800 196.040,188.800 195.600 C 188.800 195.160,188.980 194.800,189.200 194.800 C 189.420 194.800,189.600 194.440,189.600 194.000 C 189.600 193.560,189.741 193.200,189.913 193.200 C 191.272 193.200,192.192 175.630,190.900 174.340 C 190.625 174.065,190.400 173.351,190.400 172.753 C 190.400 172.156,190.265 171.607,190.100 171.533 C 189.935 171.460,189.367 170.545,188.837 169.500 C 188.308 168.455,187.723 167.600,187.537 167.600 C 187.352 167.600,187.200 167.344,187.200 167.031 C 187.200 166.404,181.832 160.800,181.231 160.800 C 181.026 160.800,180.616 160.575,180.321 160.300 C 179.463 159.499,177.332 158.400,176.638 158.400 C 176.287 158.400,176.000 158.220,176.000 158.000 C 176.000 157.780,175.460 157.600,174.800 157.600 C 174.140 157.600,173.600 157.420,173.600 157.200 C 173.600 156.980,172.970 156.800,172.200 156.800 C 171.430 156.800,170.800 156.620,170.800 156.400 C 170.800 156.142,166.200 156.000,157.800 156.000 C 149.400 156.000,144.800 156.142,144.800 156.400 M214.400 156.400 C 214.400 156.620,213.950 156.800,213.400 156.800 C 212.850 156.800,212.400 156.980,212.400 157.200 C 212.400 157.420,212.212 157.600,211.983 157.600 C 211.442 157.600,209.929 159.101,209.072 160.486 C 208.039 162.156,208.039 237.844,209.072 239.514 C 209.929 240.899,211.442 242.400,211.983 242.400 C 212.212 242.400,212.400 242.580,212.400 242.800 C 212.400 243.020,212.850 243.200,213.400 243.200 C 213.950 243.200,214.400 243.380,214.400 243.600 C 214.400 243.861,221.467 244.000,234.800 244.000 C 248.133 244.000,255.200 243.861,255.200 243.600 C 255.200 243.380,255.650 243.200,256.200 243.200 C 256.750 243.200,257.200 243.020,257.200 242.800 C 257.200 242.580,257.390 242.400,257.623 242.400 C 258.196 242.400,260.400 239.948,260.400 239.311 C 260.400 239.030,260.580 238.800,260.800 238.800 C 261.040 238.800,261.200 237.200,261.200 234.800 C 261.200 232.400,261.040 230.800,260.800 230.800 C 260.580 230.800,260.400 230.530,260.400 230.201 C 260.400 229.124,257.777 226.790,255.662 225.987 C 253.753 225.261,252.547 225.200,240.196 225.200 L 226.800 225.200 226.800 217.400 L 226.800 209.600 231.200 209.600 C 233.867 209.600,235.600 209.442,235.600 209.200 C 235.600 208.980,236.354 208.800,237.275 208.800 C 238.956 208.800,241.592 207.451,241.597 206.588 C 241.599 206.362,241.960 205.917,242.400 205.600 C 242.840 205.283,243.200 204.624,243.200 204.135 C 243.200 203.647,243.380 203.136,243.600 203.000 C 243.820 202.864,244.000 201.514,244.000 200.000 C 244.000 198.486,243.820 197.136,243.600 197.000 C 243.380 196.864,243.200 196.353,243.200 195.865 C 243.200 195.376,242.840 194.717,242.400 194.400 C 241.960 194.083,241.600 193.608,241.600 193.345 C 241.600 193.082,241.060 192.628,240.400 192.336 C 239.740 192.044,239.200 191.669,239.200 191.502 C 239.200 191.336,238.390 191.200,237.400 191.200 C 236.410 191.200,235.600 191.020,235.600 190.800 C 235.600 190.558,233.867 190.400,231.200 190.400 L 226.800 190.400 226.800 182.600 L 226.800 174.800 240.367 174.800 C 253.188 174.800,254.040 174.755,255.867 173.973 C 257.909 173.100,260.400 170.807,260.400 169.799 C 260.400 169.470,260.580 169.200,260.800 169.200 C 261.040 169.200,261.200 167.600,261.200 165.200 C 261.200 162.800,261.040 161.200,260.800 161.200 C 260.580 161.200,260.400 160.970,260.400 160.689 C 260.400 160.052,258.196 157.600,257.623 157.600 C 257.390 157.600,257.200 157.420,257.200 157.200 C 257.200 156.980,256.750 156.800,256.200 156.800 C 255.650 156.800,255.200 156.620,255.200 156.400 C 255.200 156.139,248.133 156.000,234.800 156.000 C 221.467 156.000,214.400 156.139,214.400 156.400 M284.000 156.400 C 284.000 156.620,283.593 156.800,283.096 156.800 C 281.944 156.800,279.503 158.951,278.428 160.912 C 277.124 163.293,277.124 236.707,278.428 239.088 C 279.503 241.049,281.944 243.200,283.096 243.200 C 283.593 243.200,284.000 243.380,284.000 243.600 C 284.000 243.861,290.992 244.000,304.176 244.000 C 317.196 244.000,324.440 243.858,324.600 243.600 C 324.736 243.380,325.205 243.200,325.642 243.200 C 326.079 243.200,326.923 242.746,327.518 242.191 C 328.113 241.636,328.915 240.884,329.300 240.521 C 329.685 240.157,330.000 239.622,330.000 239.330 C 330.000 239.039,330.180 238.800,330.400 238.800 C 330.640 238.800,330.800 237.200,330.800 234.800 C 330.800 232.400,330.640 230.800,330.400 230.800 C 330.180 230.800,330.000 230.516,330.000 230.169 C 330.000 229.821,329.278 228.844,328.396 227.996 C 325.683 225.389,324.399 225.200,309.438 225.200 L 296.400 225.200 296.400 217.400 L 296.400 209.600 300.800 209.600 C 303.467 209.600,305.200 209.442,305.200 209.200 C 305.200 208.980,305.982 208.800,306.939 208.800 C 308.103 208.800,308.982 208.536,309.600 208.000 C 310.107 207.560,310.675 207.200,310.861 207.200 C 311.048 207.200,311.200 206.970,311.200 206.688 C 311.200 206.407,311.560 205.917,312.000 205.600 C 312.440 205.283,312.800 204.714,312.800 204.335 C 312.800 203.957,312.980 203.536,313.200 203.400 C 313.420 203.264,313.600 201.734,313.600 200.000 C 313.600 198.266,313.420 196.736,313.200 196.600 C 312.980 196.464,312.800 196.043,312.800 195.665 C 312.800 195.286,312.440 194.717,312.000 194.400 C 311.560 194.083,311.200 193.615,311.200 193.360 C 311.200 193.105,310.660 192.673,310.000 192.400 C 309.340 192.127,308.800 191.745,308.800 191.551 C 308.800 191.358,307.990 191.200,307.000 191.200 C 306.010 191.200,305.200 191.020,305.200 190.800 C 305.200 190.558,303.467 190.400,300.800 190.400 L 296.400 190.400 296.400 182.600 L 296.400 174.800 310.176 174.800 C 317.753 174.800,324.050 174.643,324.168 174.452 C 324.286 174.260,324.903 173.999,325.537 173.873 C 326.866 173.607,330.000 170.769,330.000 169.831 C 330.000 169.484,330.180 169.200,330.400 169.200 C 330.640 169.200,330.800 167.600,330.800 165.200 C 330.800 162.800,330.640 161.200,330.400 161.200 C 330.180 161.200,330.000 160.961,330.000 160.670 C 330.000 160.378,329.685 159.843,329.300 159.479 C 328.915 159.116,328.113 158.364,327.518 157.809 C 326.923 157.254,326.079 156.800,325.642 156.800 C 325.205 156.800,324.736 156.620,324.600 156.400 C 324.440 156.142,317.196 156.000,304.176 156.000 C 290.992 156.000,284.000 156.139,284.000 156.400 M168.313 175.538 C 168.397 175.792,168.730 176.000,169.052 176.000 C 169.825 176.000,171.600 177.798,171.600 178.582 C 171.600 178.922,171.780 179.200,172.000 179.200 C 172.220 179.200,172.400 179.560,172.400 180.000 C 172.400 180.440,172.580 180.800,172.800 180.800 C 173.020 180.800,173.200 181.509,173.200 182.376 C 173.200 183.243,173.020 184.064,172.800 184.200 C 172.580 184.336,172.400 184.805,172.400 185.242 C 172.400 186.062,169.674 189.014,168.099 189.900 C 167.526 190.223,165.509 190.400,162.405 190.400 L 157.600 190.400 157.600 182.547 L 157.600 174.694 162.879 174.884 C 166.366 175.010,168.211 175.232,168.313 175.538 M95.600 286.800 C 95.600 287.020,95.240 287.200,94.800 287.200 C 94.360 287.200,94.000 287.380,94.000 287.600 C 94.000 287.820,93.807 288.000,93.571 288.000 C 93.014 288.000,92.339 288.731,91.632 290.100 C 91.320 290.705,90.915 291.200,90.732 291.200 C 90.550 291.200,90.400 291.830,90.400 292.600 C 90.400 293.370,90.220 294.000,90.000 294.000 C 89.780 294.000,89.600 294.720,89.600 295.600 C 89.600 296.480,89.780 297.200,90.000 297.200 C 90.220 297.200,90.400 297.830,90.400 298.600 C 90.400 299.370,90.580 300.000,90.800 300.000 C 91.020 300.000,91.200 300.270,91.200 300.600 C 91.200 300.930,91.380 301.200,91.600 301.200 C 91.820 301.200,92.000 301.545,92.000 301.967 C 92.000 302.388,92.187 302.796,92.416 302.872 C 92.874 303.025,97.200 306.995,101.816 311.500 C 103.450 313.095,104.988 314.400,105.233 314.400 C 105.478 314.400,106.183 314.940,106.800 315.600 C 107.417 316.260,108.053 316.800,108.214 316.800 C 108.374 316.800,108.797 317.124,109.153 317.519 C 109.509 317.914,110.430 318.677,111.200 319.215 C 111.970 319.752,113.122 320.688,113.759 321.296 C 114.397 321.903,115.162 322.400,115.459 322.400 C 115.757 322.400,116.000 322.549,116.000 322.730 C 116.000 322.912,117.080 323.587,118.399 324.230 C 119.719 324.874,120.799 325.535,120.799 325.700 C 120.800 325.865,121.120 326.000,121.512 326.000 C 121.903 326.000,122.483 326.360,122.800 326.800 C 123.117 327.240,123.697 327.600,124.088 327.600 C 124.480 327.600,124.800 327.780,124.800 328.000 C 124.800 328.220,124.988 328.400,125.217 328.400 C 125.446 328.400,126.020 328.760,126.492 329.200 C 126.964 329.640,127.587 330.000,127.875 330.000 C 128.164 330.000,128.400 330.180,128.400 330.400 C 128.400 330.620,128.760 330.800,129.200 330.800 C 129.640 330.800,130.000 330.980,130.000 331.200 C 130.000 331.420,130.360 331.600,130.800 331.600 C 131.240 331.600,131.600 331.780,131.600 332.000 C 131.600 332.220,131.960 332.400,132.400 332.400 C 132.840 332.400,133.200 332.580,133.200 332.800 C 133.200 333.020,133.560 333.200,134.000 333.200 C 134.440 333.200,134.800 333.380,134.800 333.600 C 134.800 333.820,135.160 334.000,135.600 334.000 C 136.040 334.000,136.400 334.180,136.400 334.400 C 136.400 334.620,136.760 334.800,137.200 334.800 C 137.640 334.800,138.000 334.980,138.000 335.200 C 138.000 335.420,138.360 335.600,138.800 335.600 C 139.240 335.600,139.600 335.780,139.600 336.000 C 139.600 336.220,139.960 336.400,140.400 336.400 C 140.840 336.400,141.200 336.580,141.200 336.800 C 141.200 337.020,141.639 337.200,142.176 337.200 C 142.713 337.200,143.264 337.380,143.400 337.600 C 143.536 337.820,144.087 338.000,144.624 338.000 C 145.161 338.000,145.600 338.147,145.600 338.328 C 145.600 338.508,146.511 338.904,147.625 339.207 C 148.739 339.510,149.740 339.903,149.849 340.079 C 149.958 340.256,150.472 340.400,150.990 340.400 C 151.509 340.400,151.996 340.589,152.073 340.819 C 152.150 341.050,153.245 341.345,154.506 341.475 C 155.768 341.605,156.800 341.867,156.800 342.056 C 156.800 342.245,157.329 342.400,157.976 342.400 C 158.623 342.400,159.264 342.580,159.400 342.800 C 159.536 343.020,160.166 343.200,160.800 343.200 C 161.434 343.200,162.064 343.380,162.200 343.600 C 162.336 343.820,163.067 344.000,163.824 344.000 C 164.581 344.000,165.200 344.180,165.200 344.400 C 165.200 344.620,165.920 344.800,166.800 344.800 C 167.680 344.800,168.400 344.980,168.400 345.200 C 168.400 345.422,169.467 345.600,170.800 345.600 C 172.133 345.600,173.200 345.778,173.200 346.000 C 173.200 346.222,174.267 346.400,175.600 346.400 C 176.933 346.400,178.000 346.578,178.000 346.800 C 178.000 347.026,179.133 347.200,180.600 347.200 C 182.067 347.200,183.200 347.374,183.200 347.600 C 183.200 347.850,185.659 348.000,189.776 348.000 C 193.729 348.000,196.451 348.160,196.600 348.400 C 196.736 348.620,198.266 348.800,200.000 348.800 C 201.734 348.800,203.264 348.620,203.400 348.400 C 203.549 348.160,206.271 348.000,210.224 348.000 C 214.341 348.000,216.800 347.850,216.800 347.600 C 216.800 347.374,217.933 347.200,219.400 347.200 C 220.867 347.200,222.000 347.026,222.000 346.800 C 222.000 346.578,223.067 346.400,224.400 346.400 C 225.733 346.400,226.800 346.222,226.800 346.000 C 226.800 345.778,227.867 345.600,229.200 345.600 C 230.533 345.600,231.600 345.422,231.600 345.200 C 231.600 344.980,232.320 344.800,233.200 344.800 C 234.080 344.800,234.800 344.620,234.800 344.400 C 234.800 344.180,235.419 344.000,236.176 344.000 C 236.933 344.000,237.664 343.820,237.800 343.600 C 237.936 343.380,238.566 343.200,239.200 343.200 C 239.834 343.200,240.464 343.020,240.600 342.800 C 240.736 342.580,241.377 342.400,242.024 342.400 C 242.671 342.400,243.200 342.245,243.200 342.056 C 243.200 341.867,244.232 341.605,245.494 341.475 C 246.755 341.345,247.850 341.050,247.927 340.819 C 248.004 340.589,248.491 340.400,249.010 340.400 C 249.528 340.400,250.042 340.256,250.151 340.079 C 250.260 339.903,251.261 339.510,252.375 339.207 C 253.489 338.904,254.400 338.508,254.400 338.328 C 254.400 338.147,254.839 338.000,255.376 338.000 C 255.913 338.000,256.464 337.820,256.600 337.600 C 256.736 337.380,257.287 337.200,257.824 337.200 C 258.361 337.200,258.800 337.020,258.800 336.800 C 258.800 336.580,259.160 336.400,259.600 336.400 C 260.040 336.400,260.400 336.220,260.400 336.000 C 260.400 335.780,260.760 335.600,261.200 335.600 C 261.640 335.600,262.000 335.420,262.000 335.200 C 262.000 334.980,262.360 334.800,262.800 334.800 C 263.240 334.800,263.600 334.620,263.600 334.400 C 263.600 334.180,263.960 334.000,264.400 334.000 C 264.840 334.000,265.200 333.820,265.200 333.600 C 265.200 333.380,265.560 333.200,266.000 333.200 C 266.440 333.200,266.800 333.020,266.800 332.800 C 266.800 332.580,267.160 332.400,267.600 332.400 C 268.040 332.400,268.400 332.220,268.400 332.000 C 268.400 331.780,268.760 331.600,269.200 331.600 C 269.640 331.600,270.000 331.420,270.000 331.200 C 270.000 330.980,270.360 330.800,270.800 330.800 C 271.240 330.800,271.600 330.620,271.600 330.400 C 271.600 330.180,271.836 330.000,272.125 330.000 C 272.413 330.000,273.036 329.640,273.508 329.200 C 273.980 328.760,274.554 328.400,274.783 328.400 C 275.012 328.400,275.200 328.220,275.200 328.000 C 275.200 327.780,275.520 327.600,275.912 327.600 C 276.303 327.600,276.883 327.240,277.200 326.800 C 277.517 326.360,278.097 326.000,278.488 326.000 C 278.880 326.000,279.200 325.865,279.201 325.700 C 279.201 325.535,280.281 324.874,281.601 324.230 C 282.920 323.587,284.000 322.912,284.000 322.730 C 284.000 322.549,284.243 322.400,284.541 322.400 C 284.838 322.400,285.603 321.903,286.241 321.296 C 286.878 320.688,288.030 319.752,288.800 319.215 C 289.570 318.677,290.491 317.914,290.847 317.519 C 291.203 317.124,291.626 316.800,291.786 316.800 C 291.947 316.800,292.583 316.260,293.200 315.600 C 293.817 314.940,294.522 314.400,294.767 314.400 C 295.012 314.400,296.549 313.095,298.181 311.500 C 300.783 308.958,304.461 305.552,307.018 303.315 C 308.277 302.214,309.600 299.684,309.600 298.377 C 309.600 297.730,309.780 297.200,310.000 297.200 C 310.220 297.200,310.400 296.480,310.400 295.600 C 310.400 294.720,310.220 294.000,310.000 294.000 C 309.780 294.000,309.600 293.370,309.600 292.600 C 309.600 291.830,309.432 291.200,309.227 291.200 C 309.022 291.200,308.746 290.861,308.615 290.448 C 308.297 289.446,307.020 288.000,306.453 288.000 C 306.204 288.000,306.000 287.820,306.000 287.600 C 306.000 287.380,305.640 287.200,305.200 287.200 C 304.760 287.200,304.400 287.020,304.400 286.800 C 304.400 286.567,303.075 286.400,301.224 286.400 C 299.477 286.400,297.936 286.580,297.800 286.800 C 297.664 287.020,297.153 287.200,296.665 287.200 C 296.176 287.200,295.517 287.560,295.200 288.000 C 294.883 288.440,294.490 288.800,294.327 288.800 C 294.014 288.800,291.757 290.867,286.139 296.300 C 284.262 298.115,282.545 299.600,282.324 299.600 C 282.102 299.600,281.417 300.140,280.800 300.800 C 280.183 301.460,279.503 302.000,279.288 302.000 C 279.073 302.000,278.155 302.720,277.248 303.600 C 276.341 304.480,275.459 305.200,275.288 305.200 C 275.117 305.200,274.717 305.560,274.400 306.000 C 274.083 306.440,273.543 306.800,273.200 306.800 C 272.857 306.800,272.317 307.160,272.000 307.600 C 271.683 308.040,271.116 308.400,270.740 308.400 C 270.365 308.400,269.819 308.628,269.529 308.906 C 269.238 309.184,268.145 309.859,267.100 310.405 C 266.055 310.952,265.200 311.534,265.200 311.699 C 265.200 311.865,264.964 312.000,264.675 312.000 C 264.387 312.000,263.764 312.360,263.292 312.800 C 262.820 313.240,262.156 313.600,261.817 313.600 C 261.478 313.600,261.200 313.780,261.200 314.000 C 261.200 314.220,260.840 314.400,260.400 314.400 C 259.960 314.400,259.600 314.580,259.600 314.800 C 259.600 315.020,259.330 315.200,259.000 315.200 C 258.670 315.200,258.400 315.380,258.400 315.600 C 258.400 315.820,258.040 316.000,257.600 316.000 C 257.160 316.000,256.800 316.180,256.800 316.400 C 256.800 316.620,256.548 316.800,256.241 316.800 C 255.933 316.800,254.655 317.340,253.400 318.000 C 252.145 318.660,250.777 319.200,250.359 319.200 C 249.942 319.200,249.600 319.380,249.600 319.600 C 249.600 319.820,249.150 320.000,248.600 320.000 C 248.050 320.000,247.600 320.180,247.600 320.400 C 247.600 320.620,247.150 320.800,246.600 320.800 C 246.050 320.800,245.600 320.980,245.600 321.200 C 245.600 321.420,245.161 321.600,244.624 321.600 C 244.087 321.600,243.536 321.780,243.400 322.000 C 243.264 322.220,242.713 322.400,242.176 322.400 C 241.639 322.400,241.200 322.580,241.200 322.800 C 241.200 323.020,240.840 323.200,240.400 323.200 C 239.960 323.200,239.600 323.380,239.600 323.600 C 239.600 323.820,238.880 324.000,238.000 324.000 C 237.120 324.000,236.400 324.180,236.400 324.400 C 236.400 324.620,235.725 324.808,234.900 324.818 C 234.075 324.827,232.680 325.095,231.800 325.412 C 230.920 325.729,229.716 325.991,229.124 325.994 C 228.532 325.997,227.936 326.180,227.800 326.400 C 227.664 326.620,226.753 326.800,225.776 326.800 C 224.799 326.800,224.000 326.980,224.000 327.200 C 224.000 327.425,222.875 327.600,221.424 327.600 C 220.007 327.600,218.736 327.780,218.600 328.000 C 218.464 328.220,217.283 328.400,215.976 328.400 C 214.659 328.400,213.600 328.578,213.600 328.800 C 213.600 329.059,208.800 329.200,200.000 329.200 C 191.200 329.200,186.400 329.059,186.400 328.800 C 186.400 328.578,185.341 328.400,184.024 328.400 C 182.717 328.400,181.536 328.220,181.400 328.000 C 181.264 327.780,179.993 327.600,178.576 327.600 C 177.125 327.600,176.000 327.425,176.000 327.200 C 176.000 326.980,175.201 326.800,174.224 326.800 C 173.247 326.800,172.336 326.620,172.200 326.400 C 172.064 326.180,171.468 325.997,170.876 325.994 C 170.284 325.991,169.080 325.729,168.200 325.412 C 167.320 325.095,165.925 324.827,165.100 324.818 C 164.275 324.808,163.600 324.620,163.600 324.400 C 163.600 324.180,162.880 324.000,162.000 324.000 C 161.120 324.000,160.400 323.820,160.400 323.600 C 160.400 323.380,160.040 323.200,159.600 323.200 C 159.160 323.200,158.800 323.020,158.800 322.800 C 158.800 322.580,158.361 322.400,157.824 322.400 C 157.287 322.400,156.736 322.220,156.600 322.000 C 156.464 321.780,155.913 321.600,155.376 321.600 C 154.839 321.600,154.400 321.420,154.400 321.200 C 154.400 320.980,153.950 320.800,153.400 320.800 C 152.850 320.800,152.400 320.620,152.400 320.400 C 152.400 320.180,151.950 320.000,151.400 320.000 C 150.850 320.000,150.400 319.820,150.400 319.600 C 150.400 319.380,150.058 319.200,149.641 319.200 C 149.223 319.200,147.855 318.660,146.600 318.000 C 145.345 317.340,144.067 316.800,143.759 316.800 C 143.452 316.800,143.200 316.620,143.200 316.400 C 143.200 316.180,142.840 316.000,142.400 316.000 C 141.960 316.000,141.600 315.820,141.600 315.600 C 141.600 315.380,141.330 315.200,141.000 315.200 C 140.670 315.200,140.400 315.020,140.400 314.800 C 140.400 314.580,140.040 314.400,139.600 314.400 C 139.160 314.400,138.800 314.220,138.800 314.000 C 138.800 313.780,138.522 313.600,138.183 313.600 C 137.844 313.600,137.180 313.240,136.708 312.800 C 136.236 312.360,135.613 312.000,135.325 312.000 C 135.036 312.000,134.800 311.865,134.800 311.699 C 134.800 311.534,133.945 310.952,132.900 310.405 C 131.855 309.859,130.762 309.184,130.471 308.906 C 130.181 308.628,129.635 308.400,129.260 308.400 C 128.884 308.400,128.317 308.040,128.000 307.600 C 127.683 307.160,127.143 306.800,126.800 306.800 C 126.457 306.800,125.917 306.440,125.600 306.000 C 125.283 305.560,124.883 305.200,124.712 305.200 C 124.541 305.200,123.659 304.480,122.752 303.600 C 121.845 302.720,120.927 302.000,120.712 302.000 C 120.497 302.000,119.817 301.460,119.200 300.800 C 118.583 300.140,117.898 299.600,117.676 299.600 C 117.455 299.600,115.738 298.115,113.861 296.300 C 108.243 290.867,105.986 288.800,105.673 288.800 C 105.510 288.800,105.117 288.440,104.800 288.000 C 104.483 287.560,103.813 287.200,103.312 287.200 C 102.810 287.200,102.400 287.020,102.400 286.800 C 102.400 286.565,101.000 286.400,99.000 286.400 C 97.000 286.400,95.600 286.565,95.600 286.800 " stroke="none" fill="#040404" fill-rule="evenodd"></path><path id="path1" d="" stroke="none" fill="#080404" fill-rule="evenodd"></path><path id="path2" d="" stroke="none" fill="#080404" fill-rule="evenodd"></path><path id="path3" d="" stroke="none" fill="#080404" fill-rule="evenodd"></path><path id="path4" d="" stroke="none" fill="#080404" fill-rule="evenodd"></path></g></svg>
