<svg id="svg" version="1.1" xmlns="http://www.w3.org/2000/svg" xmlns:xlink="http://www.w3.org/1999/xlink" width="400" height="400" viewBox="0, 0, 400,400"><g id="svgg"><path id="path0" d="M0.000 200.000 L 0.000 400.000 18.800 400.000 L 37.600 400.000 37.600 398.843 C 37.600 398.154,37.857 397.587,38.236 397.441 C 39.179 397.080,39.600 397.506,39.600 398.824 L 39.600 400.000 43.444 400.000 L 47.288 400.000 47.044 398.500 C 46.244 393.578,46.257 393.252,47.305 391.696 C 48.207 390.357,48.816 388.365,49.317 385.112 C 49.409 384.514,49.332 383.074,49.147 381.912 C 48.690 379.056,49.349 375.675,50.995 372.431 C 52.791 368.892,54.499 361.742,53.981 359.933 C 53.451 358.086,53.514 356.472,54.188 354.600 C 55.216 351.747,54.978 348.019,53.600 345.400 C 52.219 342.774,52.018 340.083,53.025 337.687 C 53.721 336.033,53.829 332.865,53.255 330.942 C 52.775 329.334,54.324 327.277,56.647 326.438 C 59.082 325.558,59.171 325.278,59.208 318.400 C 59.226 314.990,59.414 310.220,59.625 307.800 C 60.617 296.453,60.603 293.355,59.556 292.330 C 58.629 291.423,57.861 290.361,57.343 289.269 C 57.204 288.978,57.423 287.763,57.828 286.570 C 58.483 284.643,58.505 284.211,58.021 282.700 C 56.811 278.917,57.631 275.602,60.619 272.200 C 61.392 271.320,62.124 270.150,62.245 269.600 C 62.366 269.050,62.618 268.150,62.804 267.600 C 62.990 267.050,63.220 264.406,63.313 261.724 C 63.470 257.236,63.584 256.646,64.742 254.317 C 66.094 251.598,66.457 248.219,65.500 247.258 C 65.136 246.892,65.025 245.141,65.092 240.828 C 65.184 234.929,65.476 233.135,67.115 228.400 C 67.533 227.190,68.207 225.120,68.611 223.800 C 69.501 220.895,69.734 220.564,71.469 219.740 C 72.864 219.078,73.479 218.283,74.192 216.215 C 74.503 215.312,74.934 214.958,76.000 214.729 C 78.675 214.153,93.255 213.939,96.800 214.423 C 98.670 214.678,101.820 215.013,103.800 215.168 C 108.184 215.509,108.370 215.590,110.002 217.862 L 111.306 219.678 112.271 218.637 C 113.601 217.203,115.788 216.332,116.914 216.789 C 117.401 216.987,118.474 217.259,119.299 217.392 C 122.143 217.854,122.962 219.121,123.268 223.538 C 123.685 229.545,124.921 234.110,125.611 232.192 C 127.072 228.130,127.837 221.997,127.234 219.183 C 126.695 216.669,126.681 213.143,127.194 208.990 C 127.444 206.964,127.465 200.693,127.252 191.800 C 127.055 183.598,127.066 176.558,127.278 174.800 C 127.477 173.150,127.638 168.515,127.636 164.501 C 127.632 157.546,127.673 157.163,128.492 156.401 C 130.986 154.077,131.666 158.092,131.822 176.063 C 131.941 189.726,132.068 190.539,134.149 190.996 C 135.454 191.283,166.931 191.967,167.334 191.717 C 167.530 191.596,174.284 191.440,182.345 191.370 C 190.405 191.300,197.540 191.222,198.200 191.197 C 201.983 191.054,247.083 191.671,251.600 191.928 C 254.582 192.098,257.716 192.076,258.600 191.881 C 259.480 191.686,263.530 191.481,267.600 191.427 C 279.126 191.272,277.738 196.386,278.086 152.800 C 278.664 80.303,278.701 81.897,276.401 80.286 C 275.515 79.665,275.804 79.435,278.603 78.531 C 281.323 77.653,282.496 84.024,281.339 93.400 C 281.040 95.820,280.898 98.070,281.023 98.399 C 281.648 100.042,281.896 106.822,281.416 109.122 C 281.056 110.850,281.017 112.373,281.280 114.469 C 281.482 116.081,281.721 132.160,281.812 150.200 C 281.902 168.240,282.152 184.710,282.366 186.800 C 282.811 191.136,282.700 215.821,282.215 220.517 C 281.837 224.167,282.546 229.304,283.620 230.698 L 284.311 231.595 284.933 230.646 C 285.390 229.949,285.578 228.467,285.640 225.066 L 285.725 220.436 287.041 219.160 C 288.315 217.926,288.432 217.895,290.678 218.190 C 291.955 218.357,293.270 218.518,293.600 218.547 C 296.262 218.782,326.184 217.878,327.666 217.519 C 330.755 216.770,338.274 218.253,340.008 219.954 C 341.046 220.972,342.035 224.984,341.414 225.657 C 340.745 226.382,339.598 231.363,339.599 233.538 C 339.601 236.363,341.434 238.378,344.028 238.406 C 345.930 238.427,345.854 240.645,343.782 245.600 C 342.685 248.221,343.019 251.067,344.742 253.800 C 345.686 255.296,345.770 255.860,346.039 262.448 C 346.337 269.754,346.804 272.247,348.616 276.200 C 352.266 284.167,352.964 287.708,351.444 290.560 C 350.870 291.637,350.400 292.696,350.400 292.911 C 350.400 293.127,349.691 294.342,348.824 295.612 C 346.451 299.088,345.903 302.201,347.333 304.076 C 347.920 304.846,348.400 305.661,348.400 305.889 C 348.400 306.116,348.670 306.526,349.000 306.800 C 351.313 308.720,348.971 314.066,345.600 314.562 C 344.610 314.707,342.720 314.983,341.400 315.174 C 338.154 315.644,338.002 315.732,336.401 318.087 C 334.281 321.203,333.426 325.083,334.599 326.257 C 334.929 326.586,335.296 327.338,335.414 327.928 C 336.278 332.236,339.514 333.063,344.895 330.350 C 345.277 330.158,345.948 330.000,346.387 330.000 C 346.904 330.000,347.273 329.649,347.436 329.000 C 347.754 327.732,348.149 327.732,348.727 329.000 C 349.049 329.707,349.508 330.006,350.291 330.019 C 354.882 330.099,355.693 333.379,354.605 347.458 C 354.339 350.898,354.106 351.995,352.903 355.451 C 352.394 356.915,352.401 357.241,352.964 358.331 C 353.314 359.007,353.604 359.974,353.609 360.480 C 353.614 360.986,353.970 361.850,354.400 362.400 C 354.830 362.950,355.186 363.566,355.191 363.769 C 355.196 363.971,355.445 364.421,355.744 364.769 C 356.624 365.792,357.281 369.178,357.231 372.431 C 357.186 375.240,357.344 375.955,358.766 379.400 C 359.925 382.207,360.289 384.407,359.927 386.402 C 359.685 387.732,359.692 389.144,359.946 390.338 C 360.164 391.362,360.470 393.955,360.626 396.100 L 360.910 400.000 380.455 400.000 L 400.000 400.000 400.000 200.000 L 400.000 0.000 285.600 0.000 L 171.200 0.000 171.200 1.534 C 171.200 3.032,169.546 5.200,168.403 5.200 C 168.182 5.200,168.000 5.386,168.000 5.613 C 168.000 6.191,166.281 6.792,165.833 6.371 C 165.206 5.781,164.412 3.072,164.406 1.500 L 164.400 0.000 82.200 0.000 L 0.000 0.000 0.000 200.000 M163.700 18.713 C 164.910 19.769,164.606 21.802,163.062 22.980 C 159.414 25.762,152.506 23.120,154.088 19.547 C 155.132 17.188,161.335 16.650,163.700 18.713 M146.788 37.591 C 148.058 38.549,147.697 39.687,145.292 42.307 L 143.357 44.415 142.479 43.404 C 141.995 42.849,141.600 42.136,141.600 41.821 C 141.600 41.505,141.420 41.136,141.200 41.000 C 140.622 40.642,140.708 38.027,141.317 37.471 C 142.958 35.975,144.696 36.013,146.788 37.591 M189.430 51.777 C 189.710 52.894,189.396 53.600,188.619 53.600 C 187.829 53.600,187.543 52.481,188.103 51.584 C 188.755 50.540,189.133 50.596,189.430 51.777 M149.486 66.655 C 150.319 67.016,151.360 67.439,151.800 67.596 C 152.240 67.752,153.230 68.114,154.000 68.400 C 155.807 69.070,164.083 69.751,168.200 69.568 C 171.404 69.425,175.007 69.445,181.000 69.638 C 187.400 69.844,253.840 69.107,255.237 68.814 C 257.588 68.322,263.536 69.479,264.714 70.657 C 265.013 70.956,265.584 71.200,265.983 71.200 C 266.719 71.200,267.790 71.691,269.600 72.859 C 270.392 73.370,271.100 73.442,273.000 73.207 C 274.320 73.044,275.528 72.982,275.684 73.069 C 275.840 73.156,277.550 73.202,279.484 73.170 C 281.418 73.139,283.497 73.107,284.103 73.100 C 286.340 73.071,287.265 75.157,286.228 77.892 C 285.914 78.721,285.570 80.300,285.463 81.400 C 285.060 85.569,284.258 86.227,284.015 82.589 C 283.841 79.995,283.627 79.192,282.900 78.413 C 282.405 77.883,282.000 77.339,282.000 77.205 C 282.000 76.666,279.214 75.964,278.513 76.326 C 276.644 77.292,274.670 77.266,271.000 76.228 C 270.253 76.017,268.000 78.503,268.000 79.539 C 268.000 80.862,270.487 82.030,272.759 81.773 C 276.850 81.310,276.669 80.582,276.868 98.321 C 276.963 106.731,276.869 114.638,276.656 116.200 C 276.447 117.740,276.230 133.760,276.176 151.800 C 276.057 191.098,276.126 187.675,275.432 188.624 C 274.909 189.339,274.318 189.402,267.932 189.423 C 262.507 189.441,260.484 189.601,258.627 190.156 C 255.594 191.062,244.307 190.718,241.255 189.626 C 238.896 188.782,238.532 187.122,239.128 179.905 C 239.625 173.877,239.178 172.938,236.495 174.371 C 236.113 174.575,235.465 174.847,235.055 174.976 C 234.445 175.167,234.400 175.318,234.804 175.805 C 235.076 176.132,235.150 176.400,234.969 176.400 C 234.788 176.400,234.856 176.616,235.120 176.880 C 235.384 177.144,235.600 177.625,235.600 177.949 C 235.600 178.272,235.847 178.821,236.148 179.169 C 236.927 180.065,238.459 184.381,238.167 184.854 C 238.032 185.071,237.836 185.823,237.730 186.525 C 237.408 188.663,236.639 189.010,232.549 188.860 C 230.252 188.776,228.895 184.434,230.328 181.755 C 231.174 180.175,232.000 178.055,232.000 177.463 C 232.000 177.124,232.180 176.736,232.400 176.600 C 234.069 175.569,232.741 174.800,229.300 174.806 C 227.233 174.810,226.019 174.951,226.334 175.151 C 226.628 175.337,226.808 175.573,226.734 175.676 C 226.660 175.779,226.941 176.496,227.358 177.271 C 228.079 178.609,228.037 180.865,227.293 180.750 C 225.847 180.528,224.800 180.875,224.800 181.576 C 224.800 182.003,224.620 182.464,224.400 182.600 C 224.180 182.736,224.000 184.173,224.000 185.793 L 224.000 188.738 222.700 189.147 C 220.706 189.775,187.750 189.634,186.159 188.991 C 184.796 188.441,184.660 186.929,185.402 180.581 C 185.671 178.280,184.909 174.422,184.240 174.700 C 184.108 174.755,183.467 174.800,182.816 174.800 C 181.466 174.800,180.015 176.115,179.972 177.375 C 179.944 178.190,179.940 178.190,179.600 177.400 C 179.228 176.534,179.143 176.711,178.978 178.700 C 178.918 179.415,179.052 180.000,179.274 180.000 C 179.734 180.000,181.565 181.877,182.504 183.310 C 183.499 184.828,182.250 187.253,180.012 188.149 C 175.539 189.938,172.000 188.317,172.000 184.478 C 172.000 183.832,171.648 183.005,171.200 182.600 C 170.288 181.775,170.272 181.852,170.395 186.493 L 170.456 188.785 168.328 189.725 C 166.244 190.645,166.050 190.658,159.000 190.331 C 155.040 190.147,147.840 189.830,143.000 189.627 C 138.160 189.424,134.171 189.244,134.136 189.229 C 133.657 189.014,133.257 183.266,133.564 181.000 C 134.007 177.731,133.764 161.375,133.217 157.632 C 132.627 153.597,130.334 152.371,126.414 153.994 C 123.843 155.059,122.839 153.772,123.211 149.889 C 123.339 148.544,123.219 146.787,122.924 145.688 C 122.565 144.354,122.353 138.405,122.202 125.400 C 122.085 115.280,121.788 104.750,121.542 102.000 C 120.806 93.753,123.239 86.649,125.766 89.666 C 126.225 90.214,127.211 91.084,127.958 91.600 L 129.316 92.537 130.958 91.652 C 133.700 90.174,134.192 89.179,133.522 86.470 C 132.764 83.403,133.468 82.573,136.486 82.974 C 138.545 83.247,139.935 82.720,141.087 81.230 C 142.511 79.389,140.192 75.598,138.035 76.239 C 137.466 76.409,135.290 76.583,133.200 76.627 C 127.936 76.737,128.165 76.696,126.964 77.729 C 126.184 78.401,125.752 79.315,125.412 81.020 L 124.941 83.381 124.441 81.396 C 124.166 80.304,123.797 79.228,123.621 79.005 C 121.245 75.996,123.415 72.724,127.698 72.857 C 129.294 72.907,131.375 72.807,132.322 72.635 C 133.389 72.441,135.012 72.514,136.586 72.827 C 139.084 73.324,139.150 73.314,140.464 72.270 C 141.199 71.685,142.203 70.890,142.696 70.504 C 143.189 70.117,143.594 69.603,143.596 69.362 C 143.602 68.701,146.607 66.363,147.886 66.023 C 147.934 66.010,148.654 66.295,149.486 66.655 M139.363 79.233 C 140.172 79.974,138.707 80.800,136.583 80.800 C 132.499 80.800,130.489 82.912,131.240 86.414 C 131.814 89.090,130.531 90.927,128.890 89.778 C 127.666 88.920,127.503 79.532,128.700 78.829 C 129.508 78.355,138.788 78.707,139.363 79.233 M272.400 79.400 L 273.800 79.939 271.900 79.970 C 270.134 79.998,269.620 79.714,270.267 79.067 C 270.603 78.730,270.701 78.746,272.400 79.400 M362.446 110.256 C 362.746 110.617,363.210 111.742,363.478 112.756 C 364.607 117.032,362.837 119.117,359.700 117.204 C 358.262 116.328,357.729 112.155,358.917 111.071 C 360.557 109.575,361.668 109.319,362.446 110.256 M53.729 117.715 C 56.240 120.461,55.155 123.200,51.555 123.200 C 48.240 123.200,44.875 121.068,46.160 119.783 C 46.512 119.431,46.800 118.981,46.800 118.784 C 46.800 117.504,52.703 116.594,53.729 117.715 M336.160 139.406 C 340.716 140.730,342.247 143.656,339.361 145.526 C 338.511 146.077,337.626 147.143,337.178 148.156 C 334.983 153.120,327.248 150.514,326.879 144.687 C 326.683 141.606,327.797 140.341,331.494 139.447 C 332.762 139.140,333.862 138.869,333.938 138.844 C 334.015 138.820,335.014 139.073,336.160 139.406 M90.394 140.796 C 91.008 141.233,91.624 142.043,91.763 142.596 C 91.902 143.148,92.278 143.600,92.600 143.600 C 95.966 143.600,97.497 146.095,96.997 150.763 C 96.368 156.639,93.179 157.690,88.424 153.589 C 84.518 150.219,84.799 150.677,84.806 147.714 C 84.819 141.988,87.466 138.711,90.394 140.796 M50.000 149.057 C 50.768 149.788,50.827 154.133,50.079 154.880 C 49.343 155.616,46.148 155.477,43.881 154.611 C 40.388 153.275,40.406 151.396,43.927 149.712 C 47.731 147.892,48.670 147.791,50.000 149.057 M335.396 172.071 C 339.216 173.811,337.044 179.992,333.176 178.390 C 331.934 177.875,330.000 175.719,330.000 174.848 C 330.000 172.619,333.099 171.024,335.396 172.071 M48.700 187.451 C 49.818 188.686,49.817 188.856,48.688 189.918 C 46.564 191.913,40.800 191.012,40.800 188.685 C 40.800 186.030,46.594 185.125,48.700 187.451 M73.792 199.516 C 76.379 199.742,77.992 201.313,77.352 202.982 C 76.600 204.940,70.678 205.188,69.212 203.324 C 68.093 201.902,69.710 198.389,71.175 199.057 C 71.519 199.214,72.696 199.420,73.792 199.516 M95.650 201.211 C 95.964 201.535,97.000 202.951,97.953 204.359 L 99.686 206.917 98.543 207.959 C 93.015 212.995,87.963 209.666,90.842 202.884 C 92.196 199.693,93.680 199.177,95.650 201.211 M250.367 227.347 C 250.275 227.428,248.439 227.610,246.286 227.752 C 243.578 227.930,241.821 228.268,240.586 228.849 L 238.800 229.688 238.800 232.147 L 238.800 234.606 236.984 235.703 C 234.910 236.956,234.301 237.045,233.600 236.200 C 233.326 235.870,232.854 235.600,232.551 235.600 C 232.248 235.600,232.000 235.420,232.000 235.200 C 232.000 234.980,231.812 234.800,231.582 234.800 C 231.352 234.800,230.714 234.350,230.164 233.800 C 229.614 233.250,228.767 232.792,228.282 232.782 C 227.797 232.772,226.874 232.539,226.231 232.265 C 225.194 231.822,224.957 231.863,224.132 232.628 C 223.621 233.102,222.452 234.009,221.536 234.645 L 219.870 235.800 202.135 235.929 L 184.400 236.059 182.300 235.090 C 176.768 232.540,175.169 232.350,173.947 234.100 C 173.447 234.815,172.900 235.497,172.731 235.616 C 171.915 236.191,171.178 239.483,171.424 241.455 C 171.621 243.029,171.546 243.595,171.105 243.857 C 170.788 244.046,170.365 244.498,170.165 244.861 C 169.964 245.225,168.953 246.440,167.917 247.561 L 166.035 249.600 162.717 249.610 C 160.893 249.615,158.680 249.802,157.800 250.025 C 156.920 250.249,156.020 250.477,155.800 250.534 C 152.450 251.390,150.545 256.000,152.210 259.220 C 152.919 260.590,157.197 260.945,159.200 259.800 C 160.337 259.150,162.637 259.013,162.984 259.575 C 163.936 261.114,169.727 262.532,172.577 261.923 C 174.055 261.607,175.256 261.633,177.337 262.026 C 179.873 262.504,180.282 262.484,181.960 261.796 C 183.632 261.110,185.386 261.020,201.200 260.810 C 217.588 260.591,220.000 260.431,220.000 259.557 C 220.000 258.994,225.357 259.141,226.851 259.746 C 229.090 260.651,251.855 260.655,252.855 259.750 C 253.265 259.379,253.600 258.849,253.600 258.571 C 253.600 258.294,253.818 257.994,254.085 257.905 C 254.466 257.778,254.466 257.289,254.085 255.641 C 253.105 251.396,253.407 248.595,255.000 247.145 C 255.770 246.445,256.400 245.645,256.400 245.369 C 256.400 245.093,256.582 244.806,256.804 244.732 C 257.636 244.455,257.503 230.202,256.660 229.268 C 255.564 228.054,251.107 226.694,250.367 227.347 M346.333 228.457 C 346.407 228.646,346.722 228.800,347.033 228.800 C 347.345 228.800,347.600 229.070,347.600 229.400 C 347.600 229.730,347.739 230.000,347.909 230.000 C 348.288 230.000,349.452 232.255,349.739 233.546 C 350.229 235.749,344.888 238.287,342.433 237.017 C 339.872 235.693,339.932 231.491,342.556 228.496 C 343.352 227.586,345.984 227.560,346.333 228.457 M58.371 246.654 C 59.422 247.990,59.415 248.076,58.145 249.345 C 55.700 251.791,49.775 250.171,50.358 247.217 C 50.744 245.261,56.933 244.826,58.371 246.654 M248.487 249.998 C 249.029 253.191,248.396 253.710,245.146 252.737 C 243.633 252.283,243.600 252.233,243.600 250.370 C 243.600 248.203,243.838 248.011,246.391 248.122 L 248.182 248.200 248.487 249.998 M180.977 249.600 C 182.211 249.600,182.354 252.825,181.258 255.937 C 180.387 258.410,180.253 258.559,178.348 259.167 C 177.550 259.422,176.577 259.983,176.186 260.415 C 175.220 261.482,174.951 261.409,174.439 259.940 C 173.715 257.862,173.907 257.018,175.373 255.849 C 176.134 255.242,176.862 254.228,177.006 253.573 C 177.149 252.923,177.476 252.166,177.733 251.890 C 177.990 251.614,178.548 250.707,178.973 249.875 C 179.591 248.667,179.817 248.487,180.093 248.981 C 180.284 249.321,180.682 249.600,180.977 249.600 M230.929 251.020 C 231.619 252.467,231.433 253.424,230.229 254.628 C 229.489 255.368,224.880 255.623,224.218 254.960 C 222.537 253.280,223.626 251.046,226.364 250.555 C 227.154 250.413,228.070 250.146,228.400 249.961 C 229.552 249.315,230.257 249.610,230.929 251.020 M150.877 264.807 C 148.756 267.362,148.840 270.531,151.046 271.147 C 154.899 272.222,158.106 266.875,155.159 264.289 C 153.452 262.791,152.451 262.913,150.877 264.807 M264.830 271.687 C 264.248 273.029,262.522 274.799,261.795 274.800 C 261.572 274.800,261.212 275.204,260.995 275.698 C 260.206 277.491,254.617 277.482,253.808 275.685 C 253.032 273.961,249.333 274.083,249.769 275.819 C 249.962 276.589,249.807 276.779,248.800 277.000 C 247.752 277.230,247.600 277.437,247.600 278.632 L 247.600 280.000 250.551 280.000 C 254.906 280.000,254.752 279.440,255.188 296.800 C 255.351 303.290,255.681 309.320,255.920 310.200 C 256.159 311.080,256.470 312.340,256.611 313.000 L 256.867 314.200 257.470 312.800 C 258.921 309.430,259.223 307.616,259.433 301.000 C 259.636 294.597,260.177 290.800,260.887 290.800 C 261.059 290.800,261.200 290.552,261.200 290.249 C 261.200 289.946,261.470 289.474,261.800 289.200 C 262.234 288.840,262.400 287.886,262.400 285.746 C 262.400 282.159,263.405 280.094,265.200 279.991 C 265.530 279.972,266.358 278.834,267.039 277.461 L 268.278 274.965 267.597 272.783 C 266.759 270.099,265.701 269.680,264.830 271.687 M145.567 276.746 C 144.300 277.772,144.306 280.791,145.580 282.907 C 146.192 283.923,146.363 284.574,146.106 284.907 C 145.454 285.750,144.690 289.136,144.982 289.886 C 145.135 290.279,145.427 293.390,145.632 296.800 C 146.031 303.455,146.449 306.631,147.343 309.800 L 147.908 311.800 148.212 310.200 C 148.380 309.320,148.767 307.884,149.073 307.009 C 149.552 305.636,150.525 293.159,150.496 288.752 C 150.487 287.406,149.564 285.418,148.609 284.686 C 148.360 284.495,148.978 283.674,150.189 282.586 L 152.178 280.800 157.789 280.782 C 163.992 280.763,167.776 280.118,166.261 279.340 C 161.667 276.978,162.111 277.077,157.134 277.306 C 154.561 277.425,152.350 277.416,152.220 277.287 C 150.969 276.036,146.857 275.701,145.567 276.746 M30.300 283.288 C 30.903 283.783,30.946 286.060,30.389 288.065 C 29.930 289.717,25.768 290.571,24.665 289.239 C 24.038 288.482,23.203 284.235,23.647 284.067 C 23.841 283.993,24.000 283.692,24.000 283.396 C 24.000 282.376,29.083 282.288,30.300 283.288 M329.415 287.511 C 329.275 288.342,329.337 289.467,329.555 290.011 C 329.880 290.826,329.954 290.561,329.975 288.500 C 330.003 285.666,329.790 285.289,329.415 287.511 M74.231 329.328 C 73.591 329.796,73.585 329.890,74.164 330.370 C 74.514 330.660,74.818 331.371,74.841 331.949 C 74.880 332.946,74.897 332.937,75.177 331.765 C 75.339 331.086,75.589 330.341,75.732 330.110 C 76.194 329.362,75.021 328.750,74.231 329.328 M183.880 333.870 C 183.240 334.906,184.431 335.035,191.600 334.711 C 195.670 334.527,202.893 334.490,207.651 334.628 C 213.766 334.807,216.383 334.752,216.575 334.440 C 216.771 334.123,212.844 333.999,202.524 333.997 C 194.646 333.995,187.279 333.882,186.154 333.747 C 185.029 333.612,184.006 333.667,183.880 333.870 M128.667 336.100 C 127.172 339.679,126.800 342.979,126.800 352.663 L 126.800 362.168 124.940 363.875 C 122.841 365.802,122.274 368.270,122.890 372.800 C 123.847 379.842,122.465 381.570,115.860 381.587 C 108.867 381.606,106.499 383.074,109.315 385.646 C 110.571 386.794,110.608 386.800,115.789 386.806 C 119.306 386.810,121.520 386.999,122.600 387.388 C 125.191 388.322,125.873 388.161,127.815 386.163 C 129.694 384.230,129.760 384.006,129.238 381.310 C 129.018 380.175,129.065 379.386,129.380 378.910 C 129.637 378.519,130.098 377.390,130.403 376.400 C 130.709 375.410,131.175 374.240,131.440 373.800 C 132.256 372.445,132.753 367.679,132.732 361.400 C 132.716 356.406,132.860 354.864,133.595 352.200 C 135.768 344.317,136.007 340.851,134.646 336.921 C 134.124 335.414,133.836 335.259,130.921 334.919 C 129.318 334.732,129.217 334.784,128.667 336.100 M74.854 337.733 C 74.815 339.119,74.942 339.620,75.300 339.502 C 75.904 339.303,76.222 337.600,75.656 337.600 C 75.436 337.600,75.178 337.195,75.082 336.700 C 74.987 336.205,74.884 336.670,74.854 337.733 M334.109 338.000 C 334.109 338.990,334.187 339.395,334.282 338.900 C 334.378 338.405,334.378 337.595,334.282 337.100 C 334.187 336.605,334.109 337.010,334.109 338.000 M130.630 350.400 C 130.513 351.830,130.303 356.195,130.164 360.100 C 130.025 364.005,129.764 367.200,129.585 367.200 C 129.084 367.200,128.938 365.964,129.237 364.261 C 129.385 363.415,129.393 360.805,129.253 358.461 C 128.900 352.520,128.939 347.357,129.355 345.000 L 129.707 343.000 130.276 345.400 C 130.625 346.876,130.762 348.801,130.630 350.400 M98.400 346.215 C 96.750 346.499,94.814 346.983,94.097 347.291 L 92.794 347.850 94.897 348.684 C 99.935 350.680,107.461 351.083,108.554 349.414 C 110.768 346.034,106.765 344.773,98.400 346.215 M304.761 350.378 C 300.538 351.155,299.475 352.439,302.100 353.591 C 306.326 355.446,318.400 354.544,318.400 352.373 C 318.400 350.857,309.351 349.533,304.761 350.378 M31.762 354.055 C 33.437 354.818,33.569 356.715,32.043 358.078 C 29.490 360.359,25.750 358.412,27.483 355.704 C 28.830 353.598,29.874 353.195,31.762 354.055 M76.700 360.245 L 74.800 361.215 74.800 363.990 L 74.800 366.764 76.300 367.082 C 79.257 367.709,86.077 367.448,87.556 366.652 L 88.912 365.922 87.856 365.014 C 87.275 364.515,86.800 363.903,86.800 363.653 C 86.800 363.404,86.632 363.200,86.427 363.200 C 86.222 363.200,85.928 362.803,85.774 362.319 C 84.926 359.646,80.053 358.533,76.700 360.245 M322.600 363.952 C 318.209 365.480,317.739 365.948,319.466 367.080 C 321.714 368.553,324.458 369.200,328.459 369.200 C 330.598 369.200,332.806 369.374,333.367 369.587 C 334.223 369.913,334.459 369.837,334.848 369.111 C 336.520 365.987,335.776 364.159,332.705 363.841 C 326.867 363.237,324.585 363.262,322.600 363.952 M60.200 376.754 C 52.687 377.331,52.522 382.000,60.015 382.000 C 61.921 382.000,64.031 382.192,64.704 382.427 C 66.027 382.888,68.002 382.150,69.916 380.479 L 70.831 379.679 69.001 378.179 C 66.948 376.497,65.855 376.320,60.200 376.754 M349.000 380.393 C 336.760 383.200,334.951 384.770,342.344 386.168 C 349.255 387.474,355.976 386.122,354.978 383.625 C 354.841 383.281,354.643 382.552,354.539 382.004 C 354.324 380.873,353.293 379.585,352.638 379.630 C 352.397 379.646,350.760 379.990,349.000 380.393 M279.133 382.681 C 278.415 383.546,278.395 391.265,279.109 391.503 C 279.379 391.593,279.609 391.967,279.619 392.333 C 279.630 392.700,279.915 392.190,280.252 391.200 C 280.590 390.210,281.121 389.200,281.433 388.956 C 282.532 388.095,282.165 384.596,280.833 383.233 C 279.782 382.159,279.612 382.104,279.133 382.681 M287.792 382.750 C 284.484 383.774,284.319 387.973,287.513 389.845 C 290.849 391.800,299.377 389.729,296.900 387.567 C 296.515 387.230,295.852 386.483,295.426 385.906 C 294.087 384.090,289.538 382.209,287.792 382.750 M125.394 384.410 C 125.273 384.605,124.895 384.658,124.554 384.527 C 124.069 384.341,124.046 384.219,124.447 383.971 C 125.054 383.596,125.709 383.900,125.394 384.410 M16.369 393.042 C 17.333 393.357,15.467 394.379,13.412 394.660 C 11.899 394.868,11.475 394.781,11.032 394.176 C 9.723 392.386,12.536 391.789,16.369 393.042 M278.942 395.591 C 278.811 396.246,278.455 396.988,278.152 397.240 C 277.030 398.171,277.460 400.000,278.800 400.000 L 280.000 400.000 280.000 397.200 C 280.000 394.324,279.383 393.385,278.942 395.591 " stroke="none" fill="#1d0536" fill-rule="evenodd"></path><path id="path1" d="M156.060 19.443 C 153.561 21.194,156.893 23.001,161.076 22.165 C 162.543 21.871,163.294 20.815,162.653 19.946 C 161.973 19.023,157.180 18.658,156.060 19.443 M146.462 69.452 C 145.768 70.181,145.200 71.044,145.200 71.369 C 145.200 72.177,143.452 74.000,142.678 74.000 C 142.331 74.000,141.936 74.180,141.800 74.400 C 141.664 74.620,141.068 74.813,140.476 74.829 C 139.531 74.855,139.603 74.937,141.068 75.501 C 142.018 75.866,142.919 76.542,143.160 77.071 C 143.392 77.582,143.780 78.000,144.020 78.000 C 144.492 78.000,145.600 78.981,145.600 79.398 C 145.600 79.539,144.561 80.683,143.292 81.940 C 140.943 84.268,140.769 85.225,142.408 86.800 C 145.010 89.300,141.166 92.725,136.300 92.241 C 135.035 92.115,134.000 92.169,134.000 92.359 C 134.000 92.550,133.636 92.802,133.191 92.918 C 132.747 93.034,132.198 93.661,131.972 94.310 C 131.466 95.761,130.075 96.494,128.974 95.890 C 128.148 95.436,126.800 94.038,126.800 93.635 C 126.800 92.807,125.036 92.336,124.529 93.029 C 123.606 94.292,124.140 126.764,125.140 130.200 L 125.490 131.400 125.913 130.400 C 127.173 127.421,127.600 125.010,127.600 120.879 C 127.600 118.476,127.803 115.540,128.052 114.355 C 128.301 113.170,128.513 110.940,128.525 109.400 C 128.561 104.568,130.787 104.511,131.002 109.336 C 131.064 110.713,131.415 112.728,131.784 113.813 C 132.292 115.310,132.432 116.963,132.362 120.664 C 132.239 127.242,132.054 126.979,138.726 129.751 C 140.116 130.328,141.858 130.800,142.598 130.800 C 143.338 130.800,144.199 131.056,144.511 131.368 C 145.433 132.290,148.163 132.870,149.387 132.405 C 151.568 131.576,160.016 132.283,161.120 133.387 C 162.834 135.100,163.878 126.789,163.043 118.084 C 162.651 114.006,163.723 113.012,168.863 112.683 C 170.918 112.551,173.169 112.220,173.865 111.947 C 175.097 111.464,180.794 112.210,183.379 113.192 C 183.830 113.363,185.100 113.349,186.200 113.159 C 195.163 111.616,202.738 111.191,207.233 111.980 C 208.425 112.189,210.930 112.633,212.800 112.966 L 216.200 113.572 220.590 112.227 C 226.350 110.463,226.227 110.664,226.103 103.219 C 225.924 92.468,227.210 90.857,236.000 90.821 C 245.094 90.784,247.612 93.073,246.759 100.600 C 246.584 102.140,246.432 105.314,246.421 107.654 C 246.395 113.004,246.325 113.069,240.355 113.322 C 230.090 113.757,225.713 114.897,227.641 116.634 C 228.109 117.055,228.641 117.791,228.824 118.268 C 229.093 118.972,229.597 119.187,231.478 119.400 C 235.071 119.807,236.280 120.312,237.189 121.783 C 237.642 122.515,238.640 123.412,239.406 123.776 C 241.382 124.714,241.191 124.961,237.700 125.993 C 234.625 126.902,231.658 127.073,230.423 126.413 C 229.346 125.836,228.068 129.375,228.853 130.764 C 229.375 131.688,229.630 131.781,231.219 131.622 C 232.199 131.524,233.450 131.480,234.000 131.524 C 234.550 131.568,237.160 131.763,239.800 131.957 C 244.306 132.287,245.263 132.460,248.800 133.575 C 251.039 134.281,254.136 134.230,255.223 133.469 C 256.389 132.652,257.317 132.649,259.400 133.453 C 261.356 134.208,262.726 134.191,263.601 133.399 C 263.965 133.069,264.476 132.800,264.737 132.800 C 265.924 132.800,266.846 130.282,266.591 127.739 C 265.960 121.440,268.523 116.069,271.800 116.828 C 275.844 117.764,276.236 116.493,275.676 104.285 C 275.482 100.058,275.331 95.094,275.341 93.253 C 275.356 90.551,275.229 89.810,274.680 89.409 C 273.859 88.809,273.805 88.400,274.547 88.400 C 275.317 88.400,276.088 84.431,275.443 83.786 C 275.185 83.528,273.629 83.230,271.987 83.124 C 266.048 82.743,264.012 77.972,268.702 75.428 C 269.651 74.913,269.689 74.830,268.980 74.816 C 268.529 74.807,267.989 74.644,267.780 74.454 C 267.275 73.995,263.936 73.200,262.510 73.200 C 261.885 73.200,260.390 72.941,259.187 72.625 C 257.327 72.137,256.701 72.132,255.000 72.591 C 251.941 73.417,195.842 74.032,168.800 73.536 C 154.447 73.272,153.095 73.069,152.153 71.040 C 151.959 70.622,150.883 69.795,149.762 69.203 L 147.724 68.126 146.462 69.452 M128.614 73.878 C 124.020 74.054,122.974 74.844,124.524 76.964 C 125.025 77.648,125.110 77.643,126.424 76.842 C 127.596 76.128,128.454 76.001,132.200 75.987 C 134.998 75.977,136.936 75.785,137.522 75.460 L 138.444 74.948 137.341 74.446 C 135.977 73.824,133.763 73.680,128.614 73.878 M272.857 74.523 L 271.515 75.033 272.576 75.516 C 273.694 76.026,276.579 76.086,278.600 75.642 C 280.687 75.183,284.000 76.840,284.000 78.342 C 284.000 79.243,284.554 78.444,285.151 76.681 C 285.906 74.451,285.271 73.827,282.616 74.189 C 280.044 74.538,279.103 74.548,276.400 74.253 C 275.016 74.102,273.702 74.202,272.857 74.523 M51.018 120.371 C 50.737 120.825,52.233 121.351,52.803 120.998 C 53.029 120.859,53.109 120.577,52.983 120.372 C 52.685 119.891,51.315 119.890,51.018 120.371 M244.433 120.400 C 244.635 120.400,244.800 120.934,244.800 121.586 C 244.800 123.514,243.438 123.910,240.926 122.710 C 239.288 121.928,241.614 119.738,243.533 120.256 C 243.826 120.335,244.231 120.400,244.433 120.400 M332.213 140.835 C 330.136 141.623,328.800 142.639,328.800 143.430 C 328.800 144.096,330.116 146.394,330.500 146.397 C 330.665 146.399,330.800 146.651,330.800 146.958 C 330.800 147.265,331.565 147.899,332.500 148.367 L 334.200 149.217 335.200 148.069 C 338.987 143.722,339.155 143.329,337.769 142.065 C 335.839 140.306,334.428 139.994,332.213 140.835 M86.820 143.676 C 84.287 146.725,85.137 151.087,88.392 151.738 C 89.016 151.863,90.067 152.543,90.727 153.249 C 93.150 155.842,95.283 154.812,96.044 150.682 C 96.595 147.692,96.166 146.002,94.674 145.289 C 94.193 145.060,92.930 144.473,91.868 143.985 C 90.805 143.497,89.841 142.851,89.725 142.549 C 89.343 141.554,88.221 141.989,86.820 143.676 M45.901 151.137 C 44.143 152.197,44.607 153.253,47.061 153.777 C 48.857 154.161,49.901 152.768,48.877 151.357 C 48.088 150.271,47.417 150.221,45.901 151.137 M153.784 154.751 C 152.896 154.905,151.751 155.449,151.241 155.959 C 150.221 156.979,150.227 156.269,151.156 166.182 C 151.417 168.961,151.431 171.155,151.193 172.182 C 150.121 176.826,151.053 182.025,153.111 182.881 C 153.710 183.129,154.290 183.372,154.400 183.420 C 154.510 183.468,155.005 183.639,155.500 183.800 C 156.578 184.151,156.566 184.023,155.700 185.851 C 155.191 186.925,155.130 187.373,155.478 187.490 C 155.740 187.579,155.865 187.885,155.756 188.171 C 155.538 188.738,165.580 189.491,166.851 189.003 C 167.640 188.699,168.080 185.015,167.958 179.743 C 167.828 174.142,167.918 172.381,168.362 171.846 C 168.589 171.572,168.967 169.661,169.200 167.600 C 169.433 165.539,169.780 163.661,169.969 163.426 C 170.159 163.192,170.404 162.640,170.515 162.200 C 170.705 161.439,170.729 161.444,171.004 162.300 C 171.163 162.795,171.542 163.200,171.847 163.200 C 172.151 163.200,172.400 163.457,172.400 163.771 C 172.400 164.086,172.704 164.647,173.077 165.020 C 173.449 165.392,173.805 166.347,173.867 167.142 C 174.058 169.570,174.757 170.799,175.949 170.804 C 176.527 170.807,177.661 170.918,178.468 171.052 C 179.862 171.282,179.976 171.215,180.739 169.720 C 181.180 168.855,181.820 167.915,182.161 167.632 C 184.948 165.319,185.455 160.017,182.834 160.593 C 181.330 160.923,177.511 160.468,177.804 159.994 C 178.030 159.628,175.804 158.400,174.915 158.400 C 174.606 158.400,174.475 158.202,174.625 157.960 C 174.822 157.640,174.672 157.640,174.075 157.960 C 172.960 158.556,172.781 158.516,173.081 157.734 C 173.380 156.953,172.726 157.245,171.300 158.529 C 170.805 158.975,170.400 159.139,170.400 158.893 C 170.400 158.648,170.580 158.336,170.800 158.200 C 171.454 157.796,171.277 156.685,170.600 156.945 C 170.270 157.071,170.000 157.020,170.000 156.831 C 170.000 156.518,168.747 156.030,167.200 155.741 C 166.870 155.679,164.620 155.448,162.200 155.227 C 159.780 155.006,157.260 154.745,156.600 154.648 C 155.940 154.550,154.673 154.597,153.784 154.751 M241.600 155.417 C 239.295 156.762,239.430 156.567,239.538 158.392 C 239.588 159.256,239.415 160.307,239.152 160.728 C 238.863 161.191,238.803 161.792,239.001 162.247 C 239.181 162.661,239.396 164.321,239.478 165.935 C 239.570 167.761,239.910 169.423,240.378 170.335 C 242.777 175.009,242.778 175.014,242.168 177.041 C 241.410 179.557,241.452 182.347,242.299 185.829 L 242.997 188.702 248.634 188.981 C 257.883 189.439,258.397 188.939,258.374 179.510 C 258.368 177.371,258.567 174.866,258.815 173.943 C 260.518 167.621,258.870 157.714,255.848 156.101 C 252.822 154.485,243.928 154.059,241.600 155.417 M224.739 156.322 C 224.437 157.760,224.874 168.401,225.227 168.184 C 225.428 168.059,225.887 168.576,226.248 169.331 C 226.974 170.855,228.189 171.200,232.823 171.200 C 236.324 171.200,236.400 171.132,236.400 168.025 C 236.400 165.490,236.337 165.304,235.300 164.789 C 234.695 164.488,233.259 163.555,232.108 162.714 C 230.958 161.874,229.563 161.014,229.008 160.803 C 228.454 160.592,228.000 160.145,228.000 159.810 C 228.000 159.474,227.816 159.200,227.591 159.200 C 227.367 159.200,226.970 158.705,226.710 158.100 C 225.977 156.396,224.923 155.446,224.739 156.322 M333.211 174.311 L 332.284 175.061 333.225 175.937 L 334.165 176.813 334.971 176.006 L 335.778 175.200 334.958 174.380 C 334.153 173.576,334.120 173.574,333.211 174.311 M92.497 203.725 C 90.599 206.943,91.737 209.869,94.374 208.553 C 96.761 207.362,96.737 206.169,94.272 203.513 L 93.263 202.427 92.497 203.725 M342.502 230.918 C 341.192 233.137,341.159 234.306,342.369 235.631 L 343.439 236.802 345.519 235.765 C 347.865 234.596,347.889 234.536,346.836 232.471 C 346.194 231.212,345.437 230.580,343.539 229.719 C 343.396 229.654,342.929 230.194,342.502 230.918 " stroke="none" fill="#3d3f65" fill-rule="evenodd"></path><path id="path2" d="M164.406 1.500 C 164.412 3.072,165.206 5.781,165.833 6.371 C 166.281 6.792,168.000 6.191,168.000 5.613 C 168.000 5.386,168.182 5.200,168.403 5.200 C 169.546 5.200,171.200 3.032,171.200 1.534 L 171.200 0.000 167.800 0.000 L 164.400 0.000 164.406 1.500 M158.600 17.616 C 154.355 17.974,152.892 19.344,154.155 21.778 C 156.056 25.442,164.400 24.516,164.400 20.642 C 164.400 18.266,162.520 17.286,158.600 17.616 M162.653 19.946 C 163.294 20.815,162.543 21.871,161.076 22.165 C 156.893 23.001,153.561 21.194,156.060 19.443 C 157.180 18.658,161.973 19.023,162.653 19.946 M142.604 36.564 C 142.181 36.804,141.601 37.212,141.317 37.471 C 140.708 38.027,140.622 40.642,141.200 41.000 C 141.420 41.136,141.600 41.505,141.600 41.821 C 141.600 42.136,141.995 42.849,142.479 43.404 L 143.357 44.415 145.292 42.307 C 147.697 39.687,148.058 38.549,146.788 37.591 C 145.356 36.511,143.503 36.056,142.604 36.564 M188.103 51.584 C 187.543 52.481,187.829 53.600,188.619 53.600 C 189.396 53.600,189.710 52.894,189.430 51.777 C 189.133 50.596,188.755 50.540,188.103 51.584 M146.468 66.790 C 144.795 67.724,143.601 68.793,143.596 69.362 C 143.594 69.603,143.189 70.117,142.696 70.504 C 142.203 70.890,141.199 71.685,140.464 72.270 C 139.150 73.314,139.084 73.324,136.586 72.827 C 135.012 72.514,133.389 72.441,132.322 72.635 C 131.375 72.807,129.294 72.907,127.698 72.857 C 123.415 72.724,121.245 75.996,123.621 79.005 C 123.797 79.228,124.166 80.304,124.441 81.396 L 124.941 83.381 125.412 81.020 C 125.752 79.315,126.184 78.401,126.964 77.729 C 128.165 76.696,127.936 76.737,133.200 76.627 C 135.290 76.583,137.459 76.410,138.020 76.242 C 138.876 75.986,139.309 76.199,140.720 77.569 C 141.645 78.466,142.671 79.200,143.000 79.200 C 144.170 79.200,143.213 80.488,141.681 80.974 C 141.197 81.128,140.800 81.383,140.800 81.541 C 140.800 82.411,138.343 83.220,136.458 82.970 C 133.470 82.574,132.766 83.413,133.522 86.470 C 134.192 89.179,133.700 90.174,130.958 91.652 L 129.316 92.537 127.958 91.600 C 127.211 91.084,126.225 90.214,125.766 89.666 C 123.239 86.649,120.806 93.753,121.542 102.000 C 121.788 104.750,122.073 115.291,122.176 125.425 C 122.301 137.788,122.512 144.237,122.817 145.025 C 123.067 145.671,123.238 147.460,123.197 149.000 C 123.156 150.540,123.130 152.133,123.139 152.540 C 123.162 153.524,124.403 154.451,125.400 154.227 C 125.840 154.129,127.048 153.844,128.085 153.595 C 132.182 152.610,133.094 154.074,133.547 162.359 C 133.880 168.461,134.370 169.914,136.119 169.987 C 136.295 169.994,136.881 170.478,137.423 171.062 C 138.378 172.093,138.458 172.108,140.104 171.574 C 141.037 171.271,142.025 171.043,142.300 171.067 C 142.575 171.091,142.800 170.861,142.800 170.556 C 142.800 169.776,143.009 169.849,144.364 171.100 C 145.020 171.705,146.061 172.652,146.678 173.203 C 148.959 175.244,149.583 176.515,150.359 180.708 C 150.533 181.647,151.094 182.862,151.606 183.406 C 152.662 184.530,152.578 184.761,151.068 184.886 C 150.481 184.935,150.000 185.137,150.000 185.336 C 150.000 185.535,149.753 185.493,149.451 185.242 C 148.741 184.653,147.600 185.092,147.600 185.954 C 147.600 186.321,147.314 187.030,146.964 187.530 C 145.540 189.563,146.791 189.858,158.998 190.368 C 166.018 190.661,166.250 190.645,168.326 189.727 L 170.456 188.785 170.395 186.493 C 170.272 181.852,170.288 181.775,171.200 182.600 C 171.648 183.005,172.000 183.832,172.000 184.478 C 172.000 188.317,175.539 189.938,180.012 188.149 C 182.250 187.253,183.499 184.828,182.504 183.310 C 181.565 181.877,179.734 180.000,179.274 180.000 C 179.052 180.000,178.918 179.415,178.978 178.700 C 179.143 176.711,179.228 176.534,179.600 177.400 C 179.940 178.190,179.944 178.190,179.972 177.375 C 180.015 176.115,181.466 174.800,182.816 174.800 C 183.467 174.800,184.108 174.755,184.240 174.700 C 184.909 174.422,185.671 178.280,185.402 180.581 C 185.246 181.911,185.074 184.235,185.018 185.745 L 184.918 188.490 186.246 189.045 C 189.140 190.254,189.954 189.803,190.921 186.453 C 191.633 183.984,191.352 182.917,189.509 181.092 C 188.425 180.018,188.398 179.888,188.627 176.892 C 189.148 170.077,188.931 157.517,188.228 153.780 C 187.385 149.302,187.494 146.665,188.530 146.468 C 189.945 146.200,190.836 149.806,190.986 156.400 C 191.013 157.570,195.937 157.873,196.633 156.747 C 196.751 156.556,197.197 156.400,197.624 156.400 C 198.051 156.400,198.400 156.229,198.400 156.021 C 198.400 155.812,198.807 155.202,199.304 154.666 C 200.213 153.685,201.621 148.559,201.607 146.280 C 201.599 145.022,202.618 142.800,203.203 142.800 C 203.413 142.800,203.698 142.350,203.836 141.800 C 203.974 141.250,204.337 140.800,204.643 140.800 C 204.950 140.800,205.200 140.530,205.200 140.200 C 205.200 139.870,205.470 139.600,205.800 139.600 C 206.130 139.600,206.747 139.285,207.171 138.900 C 209.948 136.380,213.828 135.297,218.134 135.840 C 219.490 136.011,220.720 136.162,220.867 136.176 C 221.013 136.189,221.256 136.322,221.405 136.472 C 221.647 136.713,231.695 136.623,248.600 136.228 C 251.680 136.155,254.875 135.961,255.700 135.796 C 256.921 135.551,257.200 135.612,257.200 136.119 C 257.200 136.462,257.483 137.026,257.829 137.371 C 258.174 137.717,258.344 138.000,258.206 138.000 C 258.068 138.000,258.216 138.495,258.534 139.100 C 260.783 143.368,261.061 147.886,259.100 148.279 C 258.495 148.401,257.997 148.703,257.994 148.950 C 257.990 149.207,257.837 149.162,257.637 148.846 C 257.177 148.120,256.400 149.480,256.400 151.012 C 256.400 153.829,253.574 155.325,250.331 154.224 C 249.365 153.896,247.500 153.517,246.187 153.383 C 243.417 153.098,242.261 152.622,240.648 151.100 C 240.006 150.495,239.340 150.000,239.167 150.000 C 238.649 150.000,236.632 150.828,236.408 151.133 C 235.861 151.878,233.700 152.400,231.164 152.400 C 228.094 152.400,227.717 152.191,225.917 149.488 L 224.910 147.977 224.425 149.888 C 223.871 152.074,223.810 152.193,222.242 154.169 C 221.586 154.995,221.091 156.099,221.100 156.714 C 221.109 157.311,221.151 160.894,221.193 164.676 C 221.239 168.767,221.472 172.236,221.769 173.242 C 222.093 174.340,222.155 175.506,221.944 176.566 C 221.765 177.465,221.431 179.446,221.201 180.969 C 220.971 182.492,220.635 183.932,220.453 184.169 C 220.271 184.406,220.082 185.636,220.032 186.901 C 219.928 189.566,220.346 189.944,222.584 189.205 L 224.000 188.738 224.000 185.793 C 224.000 184.173,224.180 182.736,224.400 182.600 C 224.620 182.464,224.800 182.003,224.800 181.576 C 224.800 180.875,225.847 180.528,227.293 180.750 C 228.037 180.865,228.079 178.609,227.358 177.271 C 226.941 176.496,226.660 175.779,226.734 175.676 C 226.808 175.573,226.628 175.337,226.334 175.151 C 226.019 174.951,227.233 174.810,229.300 174.806 C 232.741 174.800,234.069 175.569,232.400 176.600 C 232.180 176.736,232.000 177.124,232.000 177.463 C 232.000 178.055,231.174 180.175,230.328 181.755 C 228.895 184.434,230.252 188.776,232.549 188.860 C 236.639 189.010,237.408 188.663,237.730 186.525 C 237.836 185.823,238.032 185.071,238.167 184.854 C 238.459 184.381,236.927 180.065,236.148 179.169 C 235.847 178.821,235.600 178.272,235.600 177.949 C 235.600 177.625,235.384 177.144,235.120 176.880 C 234.856 176.616,234.788 176.400,234.969 176.400 C 235.150 176.400,235.076 176.132,234.804 175.805 C 234.400 175.318,234.445 175.167,235.055 174.976 C 235.465 174.847,236.113 174.575,236.495 174.371 C 239.178 172.938,239.625 173.877,239.128 179.905 C 238.307 189.849,238.591 190.126,250.070 190.566 C 259.103 190.912,258.911 191.003,259.261 186.190 C 259.510 182.767,260.864 176.477,261.627 175.200 C 261.825 174.870,262.354 173.835,262.803 172.900 C 263.252 171.965,263.795 171.200,264.010 171.200 C 264.224 171.200,264.400 170.958,264.400 170.662 C 264.400 170.366,264.805 169.670,265.300 169.115 L 266.200 168.105 267.800 169.025 C 268.680 169.531,269.850 170.202,270.400 170.516 C 270.950 170.831,272.215 171.194,273.211 171.324 C 276.122 171.704,276.015 172.711,276.019 144.958 C 276.022 127.592,276.157 120.141,276.490 119.000 C 277.062 117.036,277.011 100.206,276.427 98.671 C 276.174 98.006,276.170 97.542,276.415 97.391 C 276.638 97.253,276.800 94.238,276.800 90.252 C 276.800 81.662,276.644 81.352,272.546 81.791 C 271.052 81.951,270.000 81.910,270.000 81.693 C 270.000 81.237,266.879 79.787,266.568 80.098 C 266.241 80.426,267.188 81.800,268.159 82.407 C 268.622 82.696,270.344 83.019,271.987 83.124 C 273.629 83.230,275.185 83.528,275.443 83.786 C 276.088 84.431,275.317 88.400,274.547 88.400 C 273.805 88.400,273.859 88.809,274.680 89.409 C 275.229 89.810,275.356 90.551,275.341 93.253 C 275.331 95.094,275.482 100.058,275.676 104.285 C 276.236 116.493,275.844 117.764,271.800 116.828 C 268.523 116.069,265.960 121.440,266.591 127.739 C 266.846 130.282,265.924 132.800,264.737 132.800 C 264.476 132.800,263.965 133.069,263.601 133.399 C 262.726 134.191,261.356 134.208,259.400 133.453 C 257.317 132.649,256.389 132.652,255.223 133.469 C 254.136 134.230,251.039 134.281,248.800 133.575 C 245.263 132.460,244.306 132.287,239.800 131.957 C 237.160 131.763,234.550 131.568,234.000 131.524 C 233.450 131.480,232.199 131.524,231.219 131.622 C 229.630 131.781,229.375 131.688,228.853 130.764 C 228.068 129.375,229.346 125.836,230.423 126.413 C 231.658 127.073,234.625 126.902,237.700 125.993 C 241.191 124.961,241.382 124.714,239.406 123.776 C 238.640 123.412,237.642 122.515,237.189 121.783 C 236.280 120.312,235.071 119.807,231.478 119.400 C 229.597 119.187,229.093 118.972,228.824 118.268 C 228.641 117.791,228.109 117.055,227.641 116.634 C 225.713 114.897,230.090 113.757,240.355 113.322 C 246.325 113.069,246.395 113.004,246.421 107.654 C 246.432 105.314,246.584 102.140,246.759 100.600 C 247.612 93.073,245.094 90.784,236.000 90.821 C 227.210 90.857,225.924 92.468,226.103 103.219 C 226.227 110.664,226.350 110.463,220.590 112.227 L 216.200 113.572 212.800 112.966 C 210.930 112.633,208.425 112.189,207.233 111.980 C 202.738 111.191,195.163 111.616,186.200 113.159 C 185.100 113.349,183.830 113.363,183.379 113.192 C 180.794 112.210,175.097 111.464,173.865 111.947 C 173.169 112.220,170.918 112.551,168.863 112.683 C 163.723 113.012,162.651 114.006,163.043 118.084 C 163.878 126.789,162.834 135.100,161.120 133.387 C 160.016 132.283,151.568 131.576,149.387 132.405 C 148.163 132.870,145.433 132.290,144.511 131.368 C 144.199 131.056,143.338 130.800,142.598 130.800 C 141.858 130.800,140.116 130.328,138.726 129.751 C 132.054 126.979,132.239 127.242,132.362 120.664 C 132.432 116.963,132.292 115.310,131.784 113.813 C 131.415 112.728,131.064 110.713,131.002 109.336 C 130.787 104.511,128.561 104.568,128.525 109.400 C 128.513 110.940,128.301 113.170,128.052 114.355 C 127.803 115.540,127.600 118.476,127.600 120.879 C 127.600 125.010,127.173 127.421,125.913 130.400 L 125.490 131.400 125.140 130.200 C 124.140 126.764,123.606 94.292,124.529 93.029 C 125.036 92.336,126.800 92.807,126.800 93.635 C 126.800 94.038,128.148 95.436,128.974 95.890 C 130.075 96.494,131.466 95.761,131.972 94.310 C 132.198 93.661,132.747 93.034,133.191 92.918 C 133.636 92.802,134.000 92.550,134.000 92.359 C 134.000 92.169,135.035 92.115,136.300 92.241 C 141.166 92.725,145.010 89.300,142.408 86.800 C 140.769 85.225,140.943 84.268,143.292 81.940 C 144.561 80.683,145.600 79.539,145.600 79.398 C 145.600 78.981,144.492 78.000,144.020 78.000 C 143.780 78.000,143.392 77.582,143.160 77.071 C 142.919 76.542,142.018 75.866,141.068 75.501 C 139.603 74.937,139.531 74.855,140.476 74.829 C 141.068 74.813,141.664 74.620,141.800 74.400 C 141.936 74.180,142.331 74.000,142.678 74.000 C 143.452 74.000,145.200 72.177,145.200 71.369 C 145.200 71.044,145.768 70.181,146.462 69.452 L 147.724 68.126 149.762 69.203 C 150.883 69.795,151.959 70.622,152.153 71.040 C 153.095 73.069,154.447 73.272,168.800 73.536 C 195.842 74.032,251.941 73.417,255.000 72.591 C 256.701 72.132,257.327 72.137,259.187 72.625 C 260.390 72.941,261.885 73.200,262.510 73.200 C 263.936 73.200,267.275 73.995,267.780 74.454 C 267.989 74.644,268.529 74.807,268.980 74.816 C 269.689 74.830,269.651 74.913,268.702 75.428 C 267.801 75.916,266.000 78.554,266.000 79.384 C 266.000 80.628,268.771 78.610,269.946 76.511 C 270.267 75.937,270.459 75.928,271.654 76.425 C 273.282 77.103,277.067 77.113,278.318 76.444 C 279.208 75.968,282.000 76.545,282.000 77.205 C 282.000 77.339,282.405 77.883,282.900 78.413 C 283.627 79.192,283.841 79.995,284.015 82.589 C 284.258 86.227,285.060 85.569,285.463 81.400 C 285.570 80.300,285.914 78.721,286.228 77.892 C 287.265 75.157,286.340 73.071,284.103 73.100 C 283.497 73.107,281.418 73.139,279.484 73.170 C 277.550 73.202,275.840 73.156,275.684 73.069 C 275.528 72.982,274.320 73.044,273.000 73.207 C 271.100 73.442,270.392 73.370,269.600 72.859 C 267.790 71.691,266.719 71.200,265.983 71.200 C 265.584 71.200,265.013 70.956,264.714 70.657 C 263.536 69.479,257.588 68.322,255.237 68.814 C 253.840 69.107,187.400 69.844,181.000 69.638 C 175.007 69.445,171.404 69.425,168.200 69.568 C 164.083 69.751,155.807 69.070,154.000 68.400 C 153.230 68.114,152.240 67.752,151.800 67.596 C 151.360 67.439,150.319 67.016,149.486 66.655 C 148.654 66.295,147.934 66.010,147.886 66.023 C 147.839 66.036,147.201 66.381,146.468 66.790 M137.341 74.446 L 138.444 74.948 137.522 75.460 C 136.936 75.785,134.998 75.977,132.200 75.987 C 128.454 76.001,127.596 76.128,126.424 76.842 C 124.620 77.942,123.165 76.333,124.320 74.516 C 124.911 73.586,135.332 73.531,137.341 74.446 M279.600 74.478 C 280.150 74.470,281.507 74.339,282.616 74.189 C 285.271 73.827,285.906 74.451,285.151 76.681 C 284.554 78.444,284.000 79.243,284.000 78.342 C 284.000 76.840,280.687 75.183,278.600 75.642 C 276.579 76.086,273.694 76.026,272.576 75.516 L 271.515 75.033 272.857 74.523 C 273.702 74.202,275.016 74.102,276.400 74.253 C 277.610 74.385,279.050 74.486,279.600 74.478 M360.217 110.124 C 358.605 111.104,358.400 111.540,358.400 113.977 C 358.400 116.295,358.463 116.450,359.700 117.204 C 362.837 119.117,364.607 117.032,363.478 112.756 C 362.699 109.809,361.855 109.127,360.217 110.124 M47.900 117.829 C 47.295 118.157,46.800 118.587,46.800 118.784 C 46.800 118.981,46.512 119.431,46.160 119.783 C 44.875 121.068,48.240 123.200,51.555 123.200 C 55.155 123.200,56.240 120.461,53.729 117.715 C 53.084 117.011,49.271 117.085,47.900 117.829 M52.983 120.372 C 53.109 120.577,53.029 120.859,52.803 120.998 C 52.233 121.351,50.737 120.825,51.018 120.371 C 51.315 119.890,52.685 119.891,52.983 120.372 M242.130 120.280 C 240.654 120.565,239.846 122.194,240.926 122.710 C 243.438 123.910,244.800 123.514,244.800 121.586 C 244.800 120.934,244.635 120.400,244.433 120.400 C 244.231 120.400,243.826 120.335,243.533 120.256 C 243.240 120.177,242.609 120.188,242.130 120.280 M331.494 139.447 C 327.797 140.341,326.683 141.606,326.879 144.687 C 327.248 150.514,334.983 153.120,337.178 148.156 C 337.626 147.143,338.511 146.077,339.361 145.526 C 341.400 144.205,341.446 142.793,339.504 141.106 C 338.502 140.236,334.576 138.640,333.938 138.844 C 333.862 138.869,332.762 139.140,331.494 139.447 M87.057 140.919 C 84.744 142.770,83.846 149.588,85.700 151.222 C 89.433 154.513,90.449 155.216,92.105 155.659 C 95.411 156.543,96.494 155.459,96.997 150.763 C 97.497 146.095,95.966 143.600,92.600 143.600 C 92.278 143.600,91.902 143.148,91.763 142.596 C 91.202 140.361,88.816 139.511,87.057 140.919 M337.769 142.065 C 339.155 143.329,338.987 143.722,335.200 148.069 L 334.200 149.217 332.500 148.367 C 331.565 147.899,330.800 147.265,330.800 146.958 C 330.800 146.651,330.665 146.399,330.500 146.397 C 329.274 146.387,328.540 143.159,329.556 142.240 C 332.086 139.950,335.372 139.880,337.769 142.065 M89.725 142.549 C 89.841 142.851,90.805 143.497,91.868 143.985 C 92.930 144.473,94.193 145.060,94.674 145.289 C 96.166 146.002,96.595 147.692,96.044 150.682 C 95.283 154.812,93.150 155.842,90.727 153.249 C 90.067 152.543,89.016 151.863,88.392 151.738 C 85.137 151.087,84.287 146.725,86.820 143.676 C 88.221 141.989,89.343 141.554,89.725 142.549 M47.000 148.356 C 40.890 150.404,39.607 152.976,43.881 154.611 C 48.499 156.376,50.600 155.558,50.600 151.994 C 50.600 148.954,49.260 147.599,47.000 148.356 M48.877 151.357 C 49.901 152.768,48.857 154.161,47.061 153.777 C 44.607 153.253,44.143 152.197,45.901 151.137 C 47.417 150.221,48.088 150.271,48.877 151.357 M162.200 155.227 C 164.620 155.448,166.870 155.679,167.200 155.741 C 168.747 156.030,170.000 156.518,170.000 156.831 C 170.000 157.020,170.270 157.071,170.600 156.945 C 171.277 156.685,171.454 157.796,170.800 158.200 C 170.580 158.336,170.400 158.648,170.400 158.893 C 170.400 159.139,170.805 158.975,171.300 158.529 C 172.726 157.245,173.380 156.953,173.081 157.734 C 172.781 158.516,172.960 158.556,174.075 157.960 C 174.672 157.640,174.822 157.640,174.625 157.960 C 174.475 158.202,174.606 158.400,174.915 158.400 C 175.804 158.400,178.030 159.628,177.804 159.994 C 177.511 160.468,181.330 160.923,182.834 160.593 C 185.455 160.017,184.948 165.319,182.161 167.632 C 181.820 167.915,181.180 168.855,180.739 169.720 C 179.976 171.215,179.862 171.282,178.468 171.052 C 177.661 170.918,176.527 170.807,175.949 170.804 C 174.757 170.799,174.058 169.570,173.867 167.142 C 173.805 166.347,173.449 165.392,173.077 165.020 C 172.704 164.647,172.400 164.086,172.400 163.771 C 172.400 163.457,172.151 163.200,171.847 163.200 C 171.542 163.200,171.163 162.795,171.004 162.300 C 170.729 161.444,170.705 161.439,170.515 162.200 C 170.404 162.640,170.159 163.192,169.969 163.426 C 169.780 163.661,169.433 165.539,169.200 167.600 C 168.967 169.661,168.589 171.572,168.362 171.846 C 167.918 172.381,167.828 174.142,167.958 179.743 C 168.080 185.015,167.640 188.699,166.851 189.003 C 165.580 189.491,155.538 188.738,155.756 188.171 C 155.865 187.885,155.740 187.579,155.478 187.490 C 155.130 187.373,155.191 186.925,155.700 185.851 C 156.566 184.023,156.578 184.151,155.500 183.800 C 155.005 183.639,154.510 183.468,154.400 183.420 C 154.290 183.372,153.710 183.129,153.111 182.881 C 151.053 182.025,150.121 176.826,151.193 172.182 C 151.431 171.155,151.417 168.961,151.156 166.182 C 150.227 156.269,150.221 156.979,151.241 155.959 C 152.242 154.958,154.672 154.363,156.600 154.648 C 157.260 154.745,159.780 155.006,162.200 155.227 M252.000 155.107 C 255.907 155.599,256.892 156.288,258.248 159.478 C 259.519 162.470,259.823 170.202,258.815 173.943 C 258.567 174.866,258.368 177.371,258.374 179.510 C 258.397 188.939,257.883 189.439,248.634 188.981 L 242.997 188.702 242.299 185.829 C 241.452 182.347,241.410 179.557,242.168 177.041 C 242.778 175.014,242.777 175.009,240.378 170.335 C 239.910 169.423,239.570 167.761,239.478 165.935 C 239.396 164.321,239.181 162.661,239.001 162.247 C 238.803 161.792,238.863 161.191,239.152 160.728 C 239.415 160.307,239.588 159.256,239.538 158.392 C 239.430 156.567,239.295 156.762,241.600 155.417 C 243.526 154.293,245.141 154.245,252.000 155.107 M226.710 158.100 C 226.970 158.705,227.367 159.200,227.591 159.200 C 227.816 159.200,228.000 159.474,228.000 159.810 C 228.000 160.145,228.454 160.592,229.008 160.803 C 229.563 161.014,230.958 161.874,232.108 162.714 C 233.259 163.555,234.695 164.488,235.300 164.789 C 236.337 165.304,236.400 165.490,236.400 168.025 C 236.400 171.132,236.324 171.200,232.823 171.200 C 228.189 171.200,226.974 170.855,226.248 169.331 C 225.887 168.576,225.428 168.059,225.227 168.184 C 224.874 168.401,224.437 157.760,224.739 156.322 C 224.923 155.446,225.977 156.396,226.710 158.100 M332.172 171.986 C 330.116 172.818,329.602 174.802,330.976 176.604 C 333.073 179.353,336.158 179.330,337.161 176.559 C 338.271 173.489,335.265 170.734,332.172 171.986 M334.971 176.006 L 334.165 176.813 333.225 175.937 L 332.284 175.061 333.211 174.311 C 334.120 173.574,334.153 173.576,334.958 174.380 L 335.778 175.200 334.971 176.006 M41.900 186.930 C 39.460 189.067,41.086 191.060,45.130 190.887 C 50.796 190.646,51.019 186.786,45.400 186.211 C 43.245 185.991,42.888 186.065,41.900 186.930 M69.952 199.486 C 67.601 202.296,68.563 204.193,72.491 204.495 C 74.133 204.622,75.363 204.506,76.052 204.159 C 78.825 202.763,77.398 199.830,73.792 199.516 C 72.696 199.420,71.519 199.214,71.175 199.057 C 70.788 198.880,70.322 199.044,69.952 199.486 M92.479 200.354 C 92.018 200.709,91.282 201.848,90.842 202.884 C 87.963 209.666,93.015 212.995,98.543 207.959 L 99.686 206.917 97.953 204.359 C 95.112 200.163,93.888 199.268,92.479 200.354 M95.865 205.729 C 96.953 207.828,93.979 209.814,92.206 208.171 C 91.055 207.104,91.123 206.054,92.497 203.725 L 93.263 202.427 94.272 203.513 C 94.827 204.111,95.544 205.108,95.865 205.729 M343.018 227.971 C 342.638 228.586,343.574 229.793,344.876 230.370 C 345.601 230.690,346.371 231.542,346.875 232.580 L 347.695 234.268 346.648 235.316 C 345.346 236.618,345.314 237.144,346.552 236.907 C 348.127 236.606,349.984 234.648,349.739 233.546 C 349.452 232.255,348.288 230.000,347.909 230.000 C 347.739 230.000,347.600 229.730,347.600 229.400 C 347.600 229.070,347.345 228.800,347.033 228.800 C 346.722 228.800,346.407 228.646,346.333 228.457 C 346.129 227.931,343.299 227.517,343.018 227.971 M51.137 246.130 C 49.815 247.135,50.188 249.193,51.827 249.939 C 54.442 251.131,59.200 249.879,59.200 247.999 C 59.200 245.961,53.190 244.568,51.137 246.130 M24.700 282.659 C 24.315 282.769,24.000 283.100,24.000 283.396 C 24.000 283.692,23.841 283.993,23.647 284.067 C 23.203 284.235,24.038 288.482,24.665 289.239 C 25.768 290.571,29.930 289.717,30.389 288.065 C 30.946 286.060,30.903 283.783,30.300 283.288 C 29.721 282.812,25.733 282.365,24.700 282.659 M129.355 345.000 C 128.939 347.357,128.900 352.520,129.253 358.461 C 129.393 360.805,129.385 363.415,129.237 364.261 C 128.938 365.964,129.084 367.200,129.585 367.200 C 129.764 367.200,130.025 364.005,130.164 360.100 C 130.303 356.195,130.513 351.830,130.630 350.400 C 130.762 348.801,130.625 346.876,130.276 345.400 L 129.707 343.000 129.355 345.000 M28.794 354.113 C 26.729 355.775,26.550 357.810,28.383 358.791 C 30.472 359.909,33.508 357.912,33.029 355.734 C 32.633 353.927,30.188 352.991,28.794 354.113 M124.447 383.971 C 124.046 384.219,124.069 384.341,124.554 384.527 C 124.895 384.658,125.273 384.605,125.394 384.410 C 125.709 383.900,125.054 383.596,124.447 383.971 M11.552 392.512 C 11.745 392.705,12.419 392.798,13.051 392.719 C 14.109 392.587,14.081 392.559,12.700 392.368 C 11.840 392.249,11.350 392.310,11.552 392.512 M13.200 394.234 L 11.000 394.778 13.169 394.600 C 14.363 394.501,15.524 394.236,15.749 394.011 C 16.245 393.515,16.033 393.533,13.200 394.234 " stroke="none" fill="#353650" fill-rule="evenodd"></path><path id="path3" d="M141.523 79.947 C 141.339 81.195,141.981 81.257,143.148 80.103 C 143.772 79.486,143.723 79.399,142.547 79.038 C 141.832 78.818,141.667 78.964,141.523 79.947 M266.887 79.565 C 266.059 79.778,266.106 79.841,267.386 80.240 C 268.655 80.635,268.749 80.615,268.312 80.040 C 268.045 79.688,267.820 79.384,267.813 79.365 C 267.806 79.346,267.389 79.436,266.887 79.565 M276.274 97.500 C 276.178 97.665,276.245 98.160,276.422 98.600 C 276.703 99.298,276.747 99.260,276.772 98.300 C 276.800 97.215,276.612 96.914,276.274 97.500 M212.800 136.036 C 210.254 136.601,209.004 137.237,207.171 138.900 C 206.747 139.285,206.130 139.600,205.800 139.600 C 205.470 139.600,205.200 139.870,205.200 140.200 C 205.200 140.530,204.950 140.800,204.643 140.800 C 204.337 140.800,203.974 141.250,203.836 141.800 C 203.698 142.350,203.413 142.800,203.203 142.800 C 202.618 142.800,201.599 145.022,201.607 146.280 C 201.621 148.559,200.213 153.685,199.304 154.666 C 198.807 155.202,198.400 155.812,198.400 156.021 C 198.400 156.229,198.051 156.400,197.624 156.400 C 197.197 156.400,196.751 156.556,196.633 156.747 C 195.937 157.873,191.013 157.570,190.986 156.400 C 190.836 149.806,189.945 146.200,188.530 146.468 C 187.494 146.665,187.385 149.302,188.228 153.780 C 188.931 157.517,189.148 170.077,188.627 176.892 C 188.398 179.888,188.425 180.018,189.509 181.092 C 191.575 183.138,191.783 186.731,189.969 189.018 C 189.740 189.307,194.350 189.451,204.919 189.483 L 220.200 189.529 220.140 187.065 C 220.106 185.709,220.238 184.406,220.431 184.169 C 220.625 183.932,220.971 182.492,221.201 180.969 C 221.431 179.446,221.765 177.465,221.944 176.566 C 222.155 175.506,222.093 174.340,221.769 173.242 C 221.472 172.236,221.239 168.767,221.193 164.676 C 221.151 160.894,221.109 157.311,221.100 156.714 C 221.091 156.099,221.586 154.995,222.242 154.169 C 223.810 152.193,223.871 152.074,224.425 149.888 L 224.910 147.977 225.917 149.488 C 227.717 152.191,228.094 152.400,231.164 152.400 C 233.700 152.400,235.861 151.878,236.408 151.133 C 236.632 150.828,238.649 150.000,239.167 150.000 C 239.340 150.000,240.006 150.495,240.648 151.100 C 242.261 152.622,243.417 153.098,246.187 153.383 C 247.500 153.517,249.365 153.896,250.331 154.224 C 253.574 155.325,256.400 153.829,256.400 151.012 C 256.400 149.480,257.177 148.120,257.637 148.846 C 257.837 149.162,257.990 149.207,257.994 148.950 C 257.997 148.703,258.495 148.401,259.100 148.279 C 261.061 147.886,260.783 143.368,258.534 139.100 C 258.216 138.495,258.068 138.000,258.206 138.000 C 258.344 138.000,258.174 137.717,257.829 137.371 C 257.483 137.026,257.200 136.462,257.200 136.119 C 257.200 135.612,256.921 135.551,255.700 135.796 C 254.875 135.961,251.680 136.155,248.600 136.228 C 232.072 136.614,221.650 136.716,221.427 136.494 C 220.793 135.860,214.985 135.552,212.800 136.036 M265.243 169.125 C 264.780 169.702,264.400 170.405,264.400 170.687 C 264.400 170.969,264.224 171.200,264.010 171.200 C 263.795 171.200,263.252 171.965,262.803 172.900 C 262.354 173.835,261.825 174.870,261.627 175.200 C 260.855 176.493,259.517 182.789,259.265 186.319 L 259.000 190.038 260.000 189.754 C 260.550 189.598,264.119 189.455,267.932 189.435 C 276.119 189.394,275.802 189.576,276.195 184.669 C 276.503 180.829,275.860 169.353,275.412 170.686 C 275.070 171.704,272.319 171.612,270.400 170.518 C 269.850 170.204,268.655 169.527,267.743 169.012 L 266.087 168.077 265.243 169.125 M133.974 172.500 C 133.945 176.611,133.760 179.761,133.401 182.261 C 133.270 183.174,133.366 185.085,133.613 186.509 L 134.064 189.096 136.132 189.345 C 140.385 189.856,146.796 189.655,146.552 189.019 C 146.429 188.699,146.615 188.029,146.964 187.530 C 147.314 187.030,147.600 186.321,147.600 185.954 C 147.600 185.092,148.741 184.653,149.451 185.242 C 149.753 185.493,150.000 185.535,150.000 185.336 C 150.000 185.137,150.481 184.935,151.068 184.886 C 152.578 184.761,152.662 184.530,151.606 183.406 C 151.094 182.862,150.533 181.647,150.359 180.708 C 149.583 176.515,148.959 175.244,146.678 173.203 C 146.061 172.652,145.020 171.705,144.364 171.100 C 143.009 169.849,142.800 169.776,142.800 170.556 C 142.800 170.861,142.575 171.091,142.300 171.067 C 142.025 171.043,141.037 171.271,140.104 171.574 C 138.458 172.108,138.378 172.093,137.423 171.062 C 136.881 170.478,136.272 170.000,136.068 170.000 C 135.865 170.000,135.474 169.730,135.200 169.400 C 134.236 168.238,134.000 168.835,133.974 172.500 M342.137 228.895 C 340.760 230.776,340.161 233.658,340.819 235.245 C 341.671 237.302,344.690 238.170,345.694 236.646 C 346.267 235.776,345.984 235.648,344.690 236.188 C 341.890 237.358,340.579 234.001,342.591 230.814 C 343.570 229.263,343.154 227.505,342.137 228.895 M11.063 393.000 C 10.826 393.653,11.227 394.400,11.814 394.400 C 13.163 394.400,16.443 393.485,16.139 393.194 C 15.627 392.706,11.230 392.538,11.063 393.000 " stroke="none" fill="#453548" fill-rule="evenodd"></path><path id="path4" d="M278.600 78.539 C 275.876 79.374,275.512 79.663,276.401 80.286 C 278.701 81.897,278.664 80.303,278.086 152.800 C 277.738 196.386,279.126 191.272,267.600 191.427 C 263.530 191.481,259.480 191.686,258.600 191.881 C 257.716 192.076,254.582 192.098,251.600 191.928 C 247.083 191.671,201.983 191.054,198.200 191.197 C 197.540 191.222,190.405 191.300,182.345 191.370 C 174.284 191.440,167.530 191.596,167.334 191.717 C 166.931 191.967,135.454 191.283,134.149 190.996 C 132.068 190.539,131.941 189.726,131.822 176.063 C 131.666 158.092,130.986 154.077,128.492 156.401 C 127.673 157.163,127.632 157.546,127.636 164.501 C 127.638 168.515,127.477 173.150,127.278 174.800 C 127.066 176.558,127.055 183.598,127.252 191.800 C 127.465 200.693,127.444 206.964,127.194 208.990 C 126.681 213.143,126.695 216.669,127.234 219.183 C 127.837 221.997,127.072 228.130,125.611 232.192 C 124.921 234.110,123.685 229.545,123.268 223.538 C 122.962 219.121,122.143 217.854,119.299 217.392 C 118.474 217.259,117.401 216.987,116.914 216.789 C 115.788 216.332,113.601 217.203,112.271 218.637 L 111.306 219.678 110.002 217.862 C 108.370 215.590,108.184 215.509,103.800 215.168 C 101.820 215.013,98.670 214.678,96.800 214.423 C 93.255 213.939,78.675 214.153,76.000 214.729 C 74.934 214.958,74.503 215.312,74.192 216.215 C 73.479 218.283,72.864 219.078,71.469 219.740 C 69.734 220.564,69.501 220.895,68.611 223.800 C 68.207 225.120,67.533 227.190,67.115 228.400 C 65.476 233.135,65.184 234.929,65.092 240.828 C 65.025 245.141,65.136 246.892,65.500 247.258 C 66.457 248.219,66.094 251.598,64.742 254.317 C 63.584 256.646,63.470 257.236,63.313 261.724 C 63.220 264.406,62.990 267.050,62.804 267.600 C 62.618 268.150,62.366 269.050,62.245 269.600 C 62.124 270.150,61.392 271.320,60.619 272.200 C 57.631 275.602,56.811 278.917,58.021 282.700 C 58.507 284.217,58.483 284.642,57.806 286.634 C 57.202 288.411,57.145 289.004,57.526 289.534 C 57.790 289.900,58.126 290.470,58.273 290.800 C 58.420 291.130,58.984 291.820,59.526 292.333 C 60.608 293.356,60.627 296.341,59.625 307.800 C 59.414 310.220,59.226 314.990,59.208 318.400 C 59.171 325.278,59.082 325.558,56.647 326.438 C 54.324 327.277,52.775 329.334,53.255 330.942 C 53.829 332.865,53.721 336.033,53.025 337.687 C 52.018 340.083,52.219 342.774,53.600 345.400 C 54.978 348.019,55.216 351.747,54.188 354.600 C 53.514 356.472,53.451 358.086,53.981 359.933 C 54.499 361.742,52.791 368.892,50.995 372.431 C 49.349 375.675,48.690 379.056,49.147 381.912 C 49.332 383.074,49.409 384.514,49.317 385.112 C 48.816 388.365,48.207 390.357,47.305 391.696 C 46.257 393.252,46.244 393.578,47.044 398.500 L 47.288 400.000 162.444 400.000 L 277.600 400.000 277.600 398.849 C 277.600 398.216,277.848 397.492,278.152 397.240 C 278.455 396.988,278.811 396.246,278.942 395.591 C 279.383 393.385,280.000 394.324,280.000 397.200 L 280.000 400.000 320.455 400.000 L 360.910 400.000 360.626 396.100 C 360.470 393.955,360.164 391.362,359.946 390.338 C 359.692 389.144,359.685 387.732,359.927 386.402 C 360.289 384.407,359.925 382.207,358.766 379.400 C 357.344 375.955,357.186 375.240,357.231 372.431 C 357.281 369.178,356.624 365.792,355.744 364.769 C 355.445 364.421,355.196 363.971,355.191 363.769 C 355.186 363.566,354.830 362.950,354.400 362.400 C 353.970 361.850,353.614 360.986,353.609 360.480 C 353.604 359.974,353.314 359.007,352.964 358.331 C 352.401 357.241,352.394 356.915,352.903 355.451 C 354.106 351.995,354.339 350.898,354.605 347.458 C 355.693 333.379,354.882 330.099,350.291 330.019 C 349.508 330.006,349.049 329.707,348.727 329.000 C 348.477 328.450,348.140 328.000,347.979 328.000 C 347.818 328.000,347.574 328.450,347.436 329.000 C 347.273 329.649,346.904 330.000,346.387 330.000 C 345.948 330.000,345.277 330.158,344.895 330.350 C 339.514 333.063,336.278 332.236,335.414 327.928 C 335.296 327.338,334.929 326.586,334.599 326.257 C 333.426 325.083,334.281 321.203,336.401 318.087 C 338.002 315.732,338.154 315.644,341.400 315.174 C 342.720 314.983,344.610 314.707,345.600 314.562 C 348.971 314.066,351.313 308.720,349.000 306.800 C 348.670 306.526,348.400 306.116,348.400 305.889 C 348.400 305.661,347.920 304.846,347.333 304.076 C 345.903 302.201,346.451 299.088,348.824 295.612 C 349.691 294.342,350.400 293.127,350.400 292.911 C 350.400 292.696,350.870 291.637,351.444 290.560 C 352.964 287.708,352.266 284.167,348.616 276.200 C 346.804 272.247,346.337 269.754,346.039 262.448 C 345.770 255.860,345.686 255.296,344.742 253.800 C 343.019 251.067,342.685 248.221,343.782 245.600 C 345.854 240.645,345.930 238.427,344.028 238.406 C 341.434 238.378,339.601 236.363,339.599 233.538 C 339.598 231.363,340.745 226.382,341.414 225.657 C 342.035 224.984,341.046 220.972,340.008 219.954 C 338.274 218.253,330.755 216.770,327.666 217.519 C 326.184 217.878,296.262 218.782,293.600 218.547 C 293.270 218.518,291.955 218.357,290.678 218.190 C 288.432 217.895,288.315 217.926,287.041 219.160 L 285.725 220.436 285.640 225.066 C 285.578 228.467,285.390 229.949,284.933 230.646 L 284.311 231.595 283.620 230.698 C 282.546 229.304,281.837 224.167,282.215 220.517 C 282.700 215.821,282.811 191.136,282.366 186.800 C 282.152 184.710,281.902 168.240,281.812 150.200 C 281.721 132.160,281.482 116.081,281.280 114.469 C 281.017 112.373,281.056 110.850,281.416 109.122 C 281.896 106.822,281.648 100.042,281.023 98.399 C 280.898 98.070,281.040 95.820,281.339 93.400 C 282.496 84.023,281.331 77.702,278.600 78.539 M128.700 78.829 C 127.503 79.532,127.666 88.920,128.890 89.778 C 130.531 90.927,131.814 89.090,131.240 86.414 C 130.489 82.912,132.499 80.800,136.583 80.800 C 138.707 80.800,140.172 79.974,139.363 79.233 C 138.788 78.707,129.508 78.355,128.700 78.829 M270.267 79.067 C 269.620 79.714,270.134 79.998,271.900 79.970 L 273.800 79.939 272.400 79.400 C 270.701 78.746,270.603 78.730,270.267 79.067 M254.088 227.824 C 257.374 228.943,257.414 229.061,257.304 237.343 C 257.245 241.780,257.050 244.650,256.804 244.732 C 256.582 244.806,256.400 245.093,256.400 245.369 C 256.400 245.645,255.770 246.445,255.000 247.145 C 253.407 248.595,253.105 251.396,254.085 255.641 C 254.466 257.289,254.466 257.778,254.085 257.905 C 253.818 257.994,253.600 258.294,253.600 258.571 C 253.600 258.849,253.265 259.379,252.855 259.750 C 251.855 260.655,229.090 260.651,226.851 259.746 C 225.357 259.141,220.000 258.994,220.000 259.557 C 220.000 260.431,217.588 260.591,201.200 260.810 C 185.386 261.020,183.632 261.110,181.960 261.796 C 180.282 262.484,179.873 262.504,177.337 262.026 C 175.256 261.633,174.055 261.607,172.577 261.923 C 169.727 262.532,163.936 261.114,162.984 259.575 C 162.637 259.013,160.337 259.150,159.200 259.800 C 157.197 260.945,152.919 260.590,152.210 259.220 C 150.545 256.000,152.450 251.390,155.800 250.534 C 156.020 250.477,156.920 250.249,157.800 250.025 C 158.680 249.802,160.893 249.615,162.717 249.610 L 166.035 249.600 167.917 247.561 C 168.953 246.440,169.964 245.225,170.165 244.861 C 170.365 244.498,170.788 244.046,171.105 243.857 C 171.546 243.595,171.621 243.029,171.424 241.455 C 171.178 239.483,171.915 236.191,172.731 235.616 C 172.900 235.497,173.447 234.815,173.947 234.100 C 175.169 232.350,176.768 232.540,182.300 235.090 L 184.400 236.059 202.135 235.929 L 219.870 235.800 221.536 234.645 C 222.452 234.009,223.621 233.102,224.132 232.628 C 224.957 231.863,225.194 231.822,226.231 232.265 C 226.874 232.539,227.797 232.772,228.282 232.782 C 228.767 232.792,229.614 233.250,230.164 233.800 C 230.714 234.350,231.352 234.800,231.582 234.800 C 231.812 234.800,232.000 234.980,232.000 235.200 C 232.000 235.420,232.248 235.600,232.551 235.600 C 232.854 235.600,233.326 235.870,233.600 236.200 C 234.301 237.045,234.910 236.956,236.984 235.703 L 238.800 234.606 238.800 232.147 L 238.800 229.688 240.586 228.849 C 241.821 228.268,243.578 227.930,246.286 227.752 C 248.439 227.610,250.275 227.428,250.367 227.347 C 250.732 227.025,252.352 227.232,254.088 227.824 M244.100 248.256 C 242.723 248.837,243.520 252.250,245.146 252.737 C 248.396 253.710,249.029 253.191,248.487 249.998 L 248.182 248.200 246.391 248.122 C 245.406 248.079,244.375 248.139,244.100 248.256 M178.973 249.875 C 178.548 250.707,177.990 251.614,177.733 251.890 C 177.476 252.166,177.149 252.923,177.006 253.573 C 176.862 254.228,176.134 255.242,175.373 255.849 C 173.907 257.018,173.715 257.862,174.439 259.940 C 174.951 261.409,175.220 261.482,176.186 260.415 C 176.577 259.983,177.550 259.422,178.348 259.167 C 180.253 258.559,180.387 258.410,181.258 255.937 C 182.354 252.825,182.211 249.600,180.977 249.600 C 180.682 249.600,180.284 249.321,180.093 248.981 C 179.817 248.487,179.591 248.667,178.973 249.875 M228.400 249.961 C 228.070 250.146,227.154 250.413,226.364 250.555 C 223.626 251.046,222.537 253.280,224.218 254.960 C 224.880 255.623,229.489 255.368,230.229 254.628 C 232.384 252.473,230.859 248.582,228.400 249.961 M155.159 264.289 C 158.106 266.875,154.899 272.222,151.046 271.147 C 149.478 270.709,149.457 270.672,149.509 268.399 C 149.601 264.382,152.698 262.129,155.159 264.289 M267.597 272.783 L 268.278 274.965 267.039 277.461 C 266.358 278.834,265.530 279.972,265.200 279.991 C 263.405 280.094,262.400 282.159,262.400 285.746 C 262.400 287.886,262.234 288.840,261.800 289.200 C 261.470 289.474,261.200 289.946,261.200 290.249 C 261.200 290.552,261.059 290.800,260.887 290.800 C 260.177 290.800,259.636 294.597,259.433 301.000 C 259.223 307.616,258.921 309.430,257.470 312.800 L 256.867 314.200 256.611 313.000 C 256.470 312.340,256.159 311.080,255.920 310.200 C 255.681 309.320,255.351 303.290,255.188 296.800 C 254.752 279.440,254.906 280.000,250.551 280.000 L 247.600 280.000 247.600 278.632 C 247.600 277.437,247.752 277.230,248.800 277.000 C 249.807 276.779,249.962 276.589,249.769 275.819 C 249.333 274.083,253.032 273.961,253.808 275.685 C 254.617 277.482,260.206 277.491,260.995 275.698 C 261.212 275.204,261.572 274.800,261.795 274.800 C 262.522 274.799,264.248 273.029,264.830 271.687 C 265.701 269.680,266.759 270.099,267.597 272.783 M150.493 276.532 C 151.313 276.818,152.091 277.158,152.220 277.287 C 152.350 277.416,154.561 277.425,157.134 277.306 C 162.111 277.077,161.667 276.978,166.261 279.340 C 167.776 280.118,163.992 280.763,157.789 280.782 L 152.178 280.800 150.189 282.586 C 148.978 283.674,148.360 284.495,148.609 284.686 C 149.564 285.418,150.487 287.406,150.496 288.752 C 150.525 293.159,149.552 305.636,149.073 307.009 C 148.767 307.884,148.380 309.320,148.212 310.200 L 147.908 311.800 147.343 309.800 C 146.449 306.631,146.031 303.455,145.632 296.800 C 145.427 293.390,145.135 290.279,144.982 289.886 C 144.690 289.136,145.454 285.750,146.106 284.907 C 146.363 284.574,146.192 283.923,145.580 282.907 C 142.830 278.338,145.549 274.810,150.493 276.532 M329.975 288.500 C 329.954 290.561,329.880 290.826,329.555 290.011 C 329.202 289.127,329.420 286.000,329.835 286.000 C 329.926 286.000,329.989 287.125,329.975 288.500 M75.732 330.110 C 75.589 330.341,75.339 331.086,75.177 331.765 C 74.897 332.937,74.880 332.946,74.841 331.949 C 74.818 331.371,74.514 330.660,74.164 330.370 C 73.585 329.890,73.591 329.796,74.231 329.328 C 75.021 328.750,76.194 329.362,75.732 330.110 M202.524 333.997 C 212.844 333.999,216.771 334.123,216.575 334.440 C 216.383 334.752,213.766 334.807,207.651 334.628 C 202.893 334.490,195.670 334.527,191.600 334.711 C 186.695 334.933,184.108 334.910,183.926 334.642 C 183.372 333.824,184.160 333.508,186.154 333.747 C 187.279 333.882,194.646 333.995,202.524 333.997 M133.372 335.291 C 134.352 335.516,135.074 337.578,135.403 341.087 C 135.666 343.893,135.350 345.834,133.595 352.200 C 132.860 354.864,132.716 356.406,132.732 361.400 C 132.753 367.679,132.256 372.445,131.440 373.800 C 131.175 374.240,130.709 375.410,130.403 376.400 C 130.098 377.390,129.637 378.519,129.380 378.910 C 129.065 379.386,129.018 380.175,129.238 381.310 C 129.760 384.006,129.694 384.230,127.815 386.163 C 125.873 388.161,125.191 388.322,122.600 387.388 C 121.520 386.999,119.306 386.810,115.789 386.806 C 110.608 386.800,110.571 386.794,109.315 385.646 C 106.499 383.074,108.867 381.606,115.860 381.587 C 122.465 381.570,123.847 379.842,122.890 372.800 C 122.274 368.270,122.841 365.802,124.940 363.875 L 126.800 362.168 126.800 352.663 C 126.800 342.979,127.172 339.679,128.667 336.100 C 129.265 334.671,130.063 334.534,133.372 335.291 M75.656 337.600 C 76.222 337.600,75.904 339.303,75.300 339.502 C 74.942 339.620,74.815 339.119,74.854 337.733 C 74.884 336.670,74.987 336.205,75.082 336.700 C 75.178 337.195,75.436 337.600,75.656 337.600 M334.282 338.900 C 334.187 339.395,334.109 338.990,334.109 338.000 C 334.109 337.010,334.187 336.605,334.282 337.100 C 334.378 337.595,334.378 338.405,334.282 338.900 M108.325 346.416 C 112.509 350.314,103.045 351.913,94.897 348.684 L 92.794 347.850 94.097 347.291 C 97.911 345.654,106.912 345.100,108.325 346.416 M316.500 351.194 C 318.778 352.205,318.840 352.500,316.966 353.389 C 311.393 356.034,296.454 354.061,301.661 351.368 C 304.739 349.777,313.089 349.678,316.500 351.194 M83.200 360.043 C 84.901 360.720,85.409 361.169,85.774 362.319 C 85.928 362.803,86.222 363.200,86.427 363.200 C 86.632 363.200,86.800 363.404,86.800 363.653 C 86.800 363.903,87.275 364.515,87.856 365.014 L 88.912 365.922 87.556 366.652 C 86.077 367.448,79.257 367.709,76.300 367.082 L 74.800 366.764 74.800 363.990 L 74.800 361.215 76.700 360.245 C 78.799 359.173,80.854 359.109,83.200 360.043 M332.705 363.841 C 335.776 364.159,336.520 365.987,334.848 369.111 C 334.459 369.837,334.223 369.913,333.367 369.587 C 332.806 369.374,330.598 369.200,328.459 369.200 C 322.055 369.200,316.446 366.688,319.500 365.188 C 323.386 363.280,325.348 363.079,332.705 363.841 M69.001 378.179 L 70.831 379.679 69.916 380.479 C 68.002 382.150,66.027 382.888,64.704 382.427 C 64.031 382.192,61.921 382.000,60.015 382.000 C 52.522 382.000,52.687 377.331,60.200 376.754 C 65.855 376.320,66.948 376.497,69.001 378.179 M353.713 380.304 C 354.063 380.690,354.435 381.455,354.539 382.004 C 354.643 382.552,354.841 383.281,354.978 383.625 C 355.976 386.122,349.255 387.474,342.344 386.168 C 334.951 384.770,336.760 383.200,349.000 380.393 C 353.049 379.465,352.955 379.467,353.713 380.304 M282.000 386.470 C 282.000 387.756,281.790 388.676,281.433 388.956 C 281.121 389.200,280.590 390.210,280.252 391.200 C 279.915 392.190,279.630 392.700,279.619 392.333 C 279.609 391.967,279.379 391.593,279.109 391.503 C 278.395 391.265,278.415 383.546,279.133 382.681 C 280.130 381.479,282.000 383.950,282.000 386.470 M292.626 383.866 C 293.740 384.411,295.000 385.328,295.426 385.906 C 295.852 386.483,296.515 387.230,296.900 387.567 C 297.940 388.474,297.784 388.749,295.737 389.627 C 290.312 391.952,285.899 390.615,285.476 386.517 C 285.067 382.550,287.832 381.525,292.626 383.866 M38.100 397.467 C 37.063 397.881,37.503 400.000,38.625 400.000 C 39.537 400.000,39.637 399.859,39.525 398.731 C 39.399 397.447,39.010 397.103,38.100 397.467 " stroke="none" fill="#040408" fill-rule="evenodd"></path></g></svg>
